<svg xmlns="http://www.w3.org/2000/svg" viewBox="0 0 844 844">
<path fill="#A0A0A0" d="M269,697V286c0-12,9.67-22,23-22c13.33,0,30,10,30,22v411c0,13.33-16.67,23-30,23
	C278.67,720,269,710.33,269,697z M391,697V286c0-27.72,50.75-29.26,54,0v411c-1.33,13.33-16.67,23-30,23
	C401.67,720,392.33,710.33,391,697z M522,697V286c0-12,9.67-22,23-22s30,10,30,22v411c0,13.33-16.67,23-30,23S522,710.33,522,697z
	 M644,759l40-565H164l36,549c0,20,7.33,44.33,46,47h375C634.33,790,641.33,781.67,644,759z M622,844H230
	c-54.67-2.67-82.67-39.33-84-70l-36-580H23c-12,0-23-10.67-23-24c0-13.33,9.67-30,23-30h215V55c1.33-38.67,30.33-55,61-55h246
	c13.33,0,27.33,1.33,46,24c14.67,17.33,15,27.33,15,38v78h215c13.33,0,23,16.67,23,30c0,13.33-11,24-23,24h-86l-39,597
	C694.67,807,672.67,841.33,622,844z M530,55H318c-18.67,0-27.33,11.67-26,29v56h260V84C552,65.33,539.33,55,530,55z"/>
</svg>