<svg xmlns="http://www.w3.org/2000/svg" viewBox="0 0 1024 1024" width="100%" height="100%"><path d="M392.448 275.911111a92.416 92.416 0 1 1-184.832 0 92.416 92.416 0 0 1 184.832 0" fill="#23ADE5"></path><path d="M826.624 464.583111l-63.744 36.864v-48.64a72.206222 72.206222 0 0 0-71.68-71.936H190.72a72.192 72.192 0 0 0-71.936 71.936V748.231111a71.936 71.936 0 0 0 71.936 71.936H691.2a71.936 71.936 0 0 0 71.936-71.936v-23.808l63.488 37.888a51.2 51.2 0 0 0 76.8-44.544V508.871111a51.2 51.2 0 0 0-76.8-44.288M572.928 369.351111c79.459556 0.142222 143.985778-64.156444 144.128-143.616 0.142222-79.459556-64.156444-143.985778-143.616-144.128-79.260444-0.142222-143.701333 63.857778-144.128 143.104-0.426667 79.459556 63.644444 144.213333 143.104 144.64h0.512" fill="#48CFE5"></path><path d="M425.216 512.967111l124.16 71.936a25.6 25.6 0 0 1 0 42.496l-124.16 71.68a25.6 25.6 0 0 1-37.12-21.248V534.471111a25.6 25.6 0 0 1 37.12-21.504" fill="#FDDE80"></path></svg>