<svg xmlns="http://www.w3.org/2000/svg" viewBox="0 0 1024 1024" width="100%" height="100%"><path d="M778.496 142.08h-537.6a56.832 56.832 0 0 0-60.16 54.016v630.528a56.832 56.832 0 0 0 59.136 54.016h537.6a56.832 56.832 0 0 0 59.136-54.016V196.096a56.832 56.832 0 0 0-59.136-54.016z" fill="#54E2E2"></path><path d="M298.496 679.168h421.376a25.6 25.6 0 0 0 0-52.736H298.496a25.6 25.6 0 1 0 0 52.736zM719.872 732.928H298.496a25.6 25.6 0 1 0 0 52.736h421.376a25.6 25.6 0 0 0 0-52.736z" fill="#23ADE5"></path><path d="M272.128 237.056m80.128 0l314.112 0q80.128 0 80.128 80.128l0 154.368q0 80.128-80.128 80.128l-314.112 0q-80.128 0-80.128-80.128l0-154.368q0-80.128 80.128-80.128Z" fill="#23ADE5"></path><path d="M404.992 361.472m-49.408 0a49.408 49.408 0 1 0 98.816 0 49.408 49.408 0 1 0-98.816 0Z" fill="#2EC3E5"></path><path d="M375.552 551.936l120.832-144.384a44.544 44.544 0 0 1 68.352 0l120.832 144.384z" fill="#2EC3E5"></path></svg>