<svg xmlns="http://www.w3.org/2000/svg" viewBox="0 0 953.46 738.35">
<path fill="#9FA0A0" d="M675.64,504c106.67-2.67,186.33-78.33,189-181c-1.33-77.33-49-143.33-125-170
	c-38.96-14.98-18.21-73.06,21-61c101.33,37.33,166.67,124.33,168,231c0,88-45.33,162-116,206c49.33,18.67,93,46,131,82
	c29.48,29.48-13.97,73.03-44,46c-61.33-57.33-140-89-224-89C633.92,568,633.92,504,675.64,504z M193.64,572
	c-97.33-53.33-159.67-150-161-266c2-86.67,32.83-158.83,92.5-216.5S259.64,2,349.64,0c89.33,2,163.83,31.83,223.5,89.5
	c59.67,57.67,90.83,129.83,93.5,216.5c-1.33,116-63.33,212.67-162,266c69.33,23.33,130.67,60,184,110c27.73,30.81-14.42,74.52-45,47
	c-80-76-183.33-118-294-118s-215,42-295,118c-29.5,29.5-75.63-17.63-44-47C63.31,632,124.31,595.33,193.64,572z M349.64,548
	c72-2,131.67-25.83,179-71.5c47.33-45.67,72-102.5,74-170.5c-2-68.67-26.67-125.67-74-171c-47.33-45.33-107-69-179-71
	c-72,2-131.83,25.67-179.5,71s-72.17,102.33-73.5,171c1.33,68,25.83,124.83,73.5,170.5S277.64,546,349.64,548z"/>
</svg>