<svg xmlns="http://www.w3.org/2000/svg" viewBox="0 0 1024 1024" width="100%" height="100%"><path d="M324.5568 660.31616v56.832c0 30.19264 24.4736 54.67136 54.67136 54.67136 30.19264 0 54.67136-24.4736 54.67136-54.67136v-14.04928l-109.34272-42.78272z m186.4704 72.96512C503.0656 799.0016 447.09376 849.92 379.22816 849.92c-73.32864 0-132.77184-59.4432-132.77184-132.77184v-87.3984l-117.15584-45.83936v0.06656a39.05024 39.05024 0 1 1-78.10048 0V411.71968a39.05024 39.05024 0 0 1 78.10048 0v0.06656l499.85024-195.59424v-23.54176a39.05024 39.05024 0 1 1 78.1056 0v610.39616a39.05024 39.05024 0 1 1-78.1056 0v-23.54176l-118.1184-46.22336z" fill="#FFD778"></path><path d="M808.78592 458.73152h124.96384A39.05024 39.05024 0 0 1 972.8 497.78176v0.13312a39.05024 39.05024 0 0 1-39.05024 39.05024h-124.96384a39.05024 39.05024 0 0 1-39.05024-39.05024v-0.13312a39.05024 39.05024 0 0 1 39.05024-39.05024z m-3.31264 130.43712l108.25728 62.61248a39.05024 39.05024 0 0 1 14.2848 53.2992l-0.05632 0.1024a39.04512 39.04512 0 0 1-53.376 14.30016l-108.25728-62.6176a39.05024 39.05024 0 0 1-14.2848-53.2992l0.05632-0.09728a39.04512 39.04512 0 0 1 53.376-14.30016z m-39.14752-250.3424l108.25728-62.61248a39.04512 39.04512 0 0 1 53.376 14.30528l0.0512 0.09216a39.05024 39.05024 0 0 1-14.2848 53.30432L805.4784 406.528a39.04512 39.04512 0 0 1-53.376-14.30016l-0.0512-0.09728a39.05024 39.05024 0 0 1 14.27968-53.2992z" fill="#FB813A"></path></svg>