<svg xmlns="http://www.w3.org/2000/svg" viewBox="0 0 1024 1024" width="100%" height="100%">
    <path
        d="M492.270933 147.729067A255.342933 255.342933 0 0 1 627.2 620.2624v51.2a37.546667 37.546667 0 0 1-25.6 34.133333h-221.866667a44.654933 44.654933 0 0 1-25.6-34.133333v-51.2a256.648533 256.648533 0 0 1 138.1376-472.533333z"
        fill="#FFA200"></path>
    <path
        d="M550.4 534.929067v-76.8h51.2c46.609067 0 51.2-26.786133 51.2-42.666667v-128c0-23.1168-17.2032-42.666667-51.2-42.666667h-213.333333c-42.103467 0-59.733333 21.111467-59.733334 42.666667v76.8h102.4v-68.266667h119.466667v119.466667h-51.2c-60.501333-0.5632-76.8 24.405333-76.8 42.666667v76.8h128z m-62.6688 24.533333a59.733333 59.733333 0 1 1-59.733333 59.733333 59.733333 59.733333 0 0 1 59.733333-59.733333z"
        fill="#FFF0D3"></path>
    <path d="M354.133333 739.7376h273.066667v8.533333a128 128 0 0 1-128 128h-17.066667a128 128 0 0 1-128-128v-8.533333z"
        fill="#5FB5EC"></path>
    <path
        d="M746.666667 210.6624h119.466666a17.066667 17.066667 0 0 1 0 34.133333h-119.466666a17.066667 17.066667 0 0 1 0-34.133333z m59.733333-59.733333a17.066667 17.066667 0 0 1 17.066667 17.066666v119.466667a17.066667 17.066667 0 0 1-34.133334 0v-119.466667a17.066667 17.066667 0 0 1 17.066667-17.066666z"
        fill="#FFE074"></path>
    <path
        d="M157.866667 662.929067h119.466666a17.066667 17.066667 0 0 1 0 34.133333h-119.466666a17.066667 17.066667 0 0 1 0-34.133333z m59.733333-59.733334a17.066667 17.066667 0 0 1 17.066667 17.066667v119.466667a17.066667 17.066667 0 0 1-34.133334 0v-119.466667a17.066667 17.066667 0 0 1 17.066667-17.066667z"
        fill="#FFE074"></path>
    <path d="M200.533333 662.9376h34.133334v34.133333h-34.133334z" fill="#FFE074"></path>
    <path d="M789.333333 210.670933h34.133334v34.133334h-34.133334z" fill="#FFE074"></path>
</svg>