<svg xmlns="http://www.w3.org/2000/svg" viewBox="0 0 1024 1024" width="100%" height="100%">
    <path
        d="M271.616 247.808a212.224 212.224 0 0 0-49.664 172.8l25.6 126.72c56.832 21.76 60.16 87.552 67.328 149.248a1167.872 1167.872 0 0 1 190.208-14.08 1247.488 1247.488 0 0 1 196.096 14.08c7.68-61.696 4.352-126.72 59.904-148.736l25.6-128a211.712 211.712 0 0 0-49.92-172.288 218.624 218.624 0 0 0-165.12-74.752h-134.912a218.624 218.624 0 0 0-165.12 74.752"
        fill="#FFB161"></path>
    <path
        d="M505.088 412.672l-34.816-34.56a19.456 19.456 0 0 0-27.392 27.392l25.6 25.6-25.6 25.6a19.456 19.456 0 0 0 27.392 27.392l34.816-34.56 35.072 34.56a18.688 18.688 0 0 0 13.568 5.632 19.456 19.456 0 0 0 13.824-33.024l-25.6-25.6 25.6-25.6a19.456 19.456 0 0 0-13.824-33.024 18.688 18.688 0 0 0-13.568 5.632z"
        fill="#FFE494"></path>
    <path
        d="M822.016 482.56a130.816 130.816 0 0 0-133.888 128v68.864l-368.128 1.536v-69.376a130.304 130.304 0 0 0-120.32-128h-13.568A81.92 81.92 0 0 0 102.4 563.2a76.8 76.8 0 0 0 0 13.312 79.104 79.104 0 0 0 38.912 54.784l8.96 4.352h2.304a25.6 25.6 0 0 1 15.36 22.016v63.744a112.384 112.384 0 0 0 80.896 105.472 51.2 51.2 0 0 0 98.816 5.888h313.088a51.2 51.2 0 0 0 98.816-5.888 112.384 112.384 0 0 0 79.104-105.472V650.752a25.6 25.6 0 0 1 8.192-11.52h1.536l4.608-2.816a80.384 80.384 0 0 0 51.2-61.44v-12.032a81.92 81.92 0 0 0-83.712-79.616"
        fill="#FB952C"></path>
</svg>