<svg xmlns="http://www.w3.org/2000/svg" viewBox="0 0 24 24" width="100%" height="100%">
    <path
        d="M6.11152 13.3818L12.7385 13.3818L14.074 16.2091L4.77077 16.2091L6.11152 13.3818z"
        fill="#00B9E7ff"></path>
    <path
        d="M7.51228 5.77233C7.6183 5.49296 7.88599 5.30823 8.18479 5.30823L10.302 5.30823C10.5325 5.30823 10.6918 5.53896 10.61 5.75451L5.38035 19.5351C5.27433 19.8144 5.00664 19.9992 4.70783 19.9992L3.15565 19.9992C2.65222 19.9992 2.30452 19.4953 2.48314 19.0247L7.51228 5.77233z"
        fill="#00B9E7ff"></path>
    <path
        d="M17.7595 5.24761C17.3688 5.24499 17.0508 5.5496 17.0515 5.92584L17.0642 19.3231C17.0648 19.6966 17.3794 19.9991 17.7673 19.9991L19.4532 19.9991C19.8415 19.9991 20.1563 19.6959 20.1563 19.322L20.1563 5.93605C20.1563 5.56393 19.8444 5.26155 19.458 5.25897L17.7595 5.24761z"
        fill="#59E0F9ff"></path>
    <path
        d="M11.4125 5.77007C11.3065 5.4907 11.0388 5.30597 10.74 5.30597L8.14548 5.30597L13.5445 19.5328C13.6505 19.8122 13.9182 19.9969 14.217 19.9969L15.7691 19.9969C16.2726 19.9969 16.6203 19.4931 16.4417 19.0224L11.4125 5.77007z"
        fill="#59E0F9ff"></path>
    <path
        d="M21.8385 2.26096C21.9179 2.10202 22.1446 2.10202 22.224 2.26096L22.3536 2.52039C22.6034 3.02047 22.9711 3.45233 23.4249 3.77874L23.663 3.95005C23.7826 4.03605 23.7826 4.21395 23.663 4.29994L23.4249 4.47126C22.9711 4.79767 22.6034 5.22952 22.3536 5.72961L22.224 5.98904C22.1446 6.14798 21.9179 6.14798 21.8385 5.98904L21.7089 5.72961C21.4591 5.22952 21.0914 4.79767 20.6376 4.47126L20.3995 4.29994C20.2799 4.21395 20.2799 4.03605 20.3995 3.95005L20.6376 3.77874C21.0914 3.45233 21.4591 3.02047 21.7089 2.52039L21.8385 2.26096z"
        fill="#FDDE80ff"></path>
</svg>