<svg xmlns="http://www.w3.org/2000/svg" viewBox="0 0 24 24" width="100%" height="100%">
    <path
        d="M14.36582 3.67143C15.80352 3.65373 17.00323 4.92678 17.39434 6.70047C17.46086 7.00223 17.7719 7.19548 18.07651 7.14389C18.6671 7.04388 19.24147 7.11564 19.73645 7.38712C21.21533 8.19796 21.42538 10.48176 20.20589 12.48835C19.88563 13.02058 19.48099 13.49606 19.00848 13.89667C18.84211 14.0377 18.77798 14.26694 18.84067 14.47584C18.95462 14.85523 19.01606 15.25757 19.01606 15.67392L19.01606 16.1641C19.01606 17.26858 18.57734 18.32774 17.79638 19.1087C17.01542 19.88966 15.95626 20.32838 14.85178 20.32838L9.29912 20.32838C8.19468 20.32838 7.1355 19.88966 6.35456 19.1087C5.57361 18.32774 5.13488 17.26858 5.13488 16.1641L5.13488 15.67392C5.13488 15.25699 5.19634 14.85485 5.31033 14.47517C5.37301 14.26637 5.3088 14.03712 5.14245 13.89619C4.66991 13.49578 4.26526 13.02038 3.94509 12.48835C2.72556 10.48176 2.93556 8.19796 4.41446 7.38712C4.90967 7.11554 5.48421 7.04383 6.07527 7.14374C6.37981 7.19522 6.69059 7.0019 6.75702 6.70026C7.14757 4.92688 8.34733 3.65373 9.78518 3.67143C10.47494 3.68023 11.11843 3.98481 11.64941 4.49674C11.88154 4.72055 12.26957 4.72063 12.5017 4.49685C13.03267 3.98511 13.67597 3.68023 14.36582 3.67143z"
        fill="#FF5C7Aff"></path>
    <path
        d="M11.7289 7.80475C11.84861 8.98123 11.20435 9.99031 10.28861 10.05924C9.3728 10.12819 8.53423 9.22949 8.41399 8.05301C8.29375 6.87653 8.93848 5.86693 9.85373 5.79852C10.76957 5.72959 11.60861 6.62827 11.7289 7.80475zM15.7225 8.05301C15.60221 9.23001 14.76317 10.12762 13.8479 10.05924C12.93264 9.99083 12.28733 8.98071 12.40762 7.80423C12.52781 6.62775 13.36694 5.72959 14.28269 5.79852C15.19795 5.86693 15.84269 6.87653 15.7225 8.05301zM18.16906 11.42227C17.58182 12.4055 16.52822 12.8807 15.8161 12.48317C15.10349 12.08573 15.0024 10.96675 15.59011 9.98358C16.17734 9.00041 17.23104 8.52516 17.94365 8.92267C18.65578 9.32019 18.75677 10.43914 18.16906 11.42227zM8.55615 9.98358C9.14388 10.96675 9.04281 12.08573 8.33018 12.48317C7.61808 12.8807 6.56443 12.4055 5.97671 11.42227C5.38951 10.43914 5.49057 9.32019 6.20319 8.92267C6.9153 8.52516 7.96895 9.00041 8.55615 9.98358z"
        fill="#FFCFE6ff"></path>
    <path
        d="M12.17328 11.43072C12.72787 11.43072 13.26845 11.60534 13.71821 11.92982C13.89734 12.05904 14.06899 12.21734 14.21914 12.39619C14.67053 12.9337 15.25728 13.46515 15.83606 13.8623C16.0105 13.98192 16.16976 14.12496 16.30896 14.28874C16.70842 14.75875 16.91242 15.36394 16.8791 15.97978C16.84579 16.59562 16.57757 17.17526 16.12973 17.5993C15.68189 18.02342 15.08851 18.25968 14.47181 18.25949L9.67882 18.25949C9.06126 18.26083 8.46676 18.02506 8.018 17.60074C7.56923 17.17651 7.30045 16.59619 7.26714 15.97949C7.23383 15.36288 7.43852 14.75693 7.83897 14.28682C7.97802 14.12352 8.137 13.98096 8.31101 13.86173C8.89154 13.46381 9.5054 12.94397 9.94973 12.39821C10.10381 12.20899 10.27306 12.04474 10.43242 11.92982C10.88218 11.60534 11.42275 11.43072 11.97734 11.43072L12.17328 11.43072z"
        fill="#FFCFE6ff"></path>
</svg>