<svg xmlns="http://www.w3.org/2000/svg" viewBox="0 0 24 24" width="100%" height="100%">
    <path
        d="M5.92972 20.481C5.34469 21.0726 4.39035 21.075 3.80205 20.4867L3.42324 20.1078C2.83711 19.5217 2.83752 18.5713 3.42416 17.9856L12.0134 9.41117C12.372 9.05293 12.9589 9.05293 13.3175 9.41117L14.4768 10.5692C14.8355 10.9275 14.8355 11.5132 14.4768 11.8714C12.0808 14.2648 7.88596 18.5029 5.92972 20.481z"
        fill="#FF5C7Aff"></path>
    <path
        d="M8.72852 12.693L12.0139 9.41126C12.3725 9.05302 12.9593 9.05302 13.318 9.41126L14.4773 10.5693C14.836 10.9276 14.836 11.5137 14.4773 11.872L11.1758 15.1698L8.72852 12.693z"
        fill="#FC6376ff"></path>
    <path
        d="M16.2118 14.531C16.5704 14.8893 16.971 14.782 17.1024 14.2925L19.5843 5.04082C19.7152 4.55181 19.422 4.25849 18.932 4.38973L9.67009 6.86887C9.18053 6.99964 9.07312 7.40025 9.43176 7.75849L16.2118 14.531z"
        fill="#FDDE80ff"></path>
    <path
        d="M20.7561 9.99241C21.1147 10.3507 21.0073 10.7508 20.5173 10.882L11.2554 13.3612C10.7658 13.4919 10.4722 13.1991 10.6036 12.7096L13.0855 3.45795C13.2164 2.96893 13.6174 2.86165 13.9761 3.21989L20.7561 9.99241z"
        fill="#FDDE80ff"></path>
    <path
        d="M6.6992 14.7177L9.17585 17.167L8.47269 17.878L5.99603 15.4287L6.6992 14.7177z"
        fill="#FFCFE6ff"></path>
    <path
        d="M8.67909 12.7448L11.1456 15.2003L10.44 15.909L7.97356 13.4535L8.67909 12.7448z"
        fill="#FFCFE6ff"></path>
</svg>