<svg xmlns="http://www.w3.org/2000/svg" viewBox="0 0 24 24" width="100%" height="100%">
    <path
        d="M3.18094 10.5647C3.18094 11.01408 3.35942 11.44493 3.67714 11.76269C3.99484 12.08035 4.42574 12.25882 4.87505 12.25882C5.32436 12.25882 5.75527 12.08035 6.07298 11.76269C6.39068 11.44493 6.56917 11.01408 6.56917 10.5647C6.56917 10.11542 6.39068 9.68453 6.07298 9.36682C5.75527 9.04911 5.32436 8.87062 4.87505 8.87062C4.42574 8.87062 3.99484 9.04911 3.67714 9.36682C3.35942 9.68453 3.18094 10.11542 3.18094 10.5647z"
        fill="#FB813Aff"></path>
    <path
        d="M5.69523 9.30581C5.69518 9.60927 5.76987 9.90977 5.91502 10.19011C6.06016 10.47053 6.27294 10.72531 6.54118 10.93987C6.80942 11.15443 7.12788 11.32474 7.47837 11.4408C7.82887 11.55696 8.20452 11.61677 8.5839 11.61677C8.96327 11.61677 9.33893 11.55696 9.68938 11.4408C10.03987 11.32474 10.3584 11.15443 10.62662 10.93987C10.89485 10.72531 11.10758 10.47053 11.25274 10.19011C11.39789 9.90977 11.47258 9.60927 11.47258 9.30581C11.47258 9.00234 11.39789 8.70184 11.25274 8.42147C11.10758 8.1411 10.89485 7.88634 10.62662 7.67174C10.3584 7.45715 10.03987 7.28693 9.68938 7.17079C9.33893 7.05465 8.96327 6.99487 8.5839 6.99487C8.20452 6.99487 7.82887 7.05465 7.47837 7.17079C7.12788 7.28693 6.80942 7.45715 6.54118 7.67174C6.27294 7.88634 6.06016 8.1411 5.91502 8.42147C5.76987 8.70184 5.69518 9.00234 5.69523 9.30581z"
        fill="#FB813Aff"></path>
    <path
        d="M14.90909 11.21645C14.90899 11.59296 14.9832 11.96582 15.1272 12.31373C15.2713 12.66163 15.4825 12.97766 15.7487 13.24397C16.01501 13.51018 16.33104 13.72147 16.67894 13.86557C17.02675 14.00966 17.39962 14.08378 17.77622 14.08378C18.15274 14.08378 18.5256 14.00966 18.87341 13.86557C19.22131 13.72147 19.53744 13.51018 19.80365 13.24397C20.06986 12.97766 20.28106 12.66163 20.42515 12.31373C20.56925 11.96582 20.64336 11.59296 20.64326 11.21645C20.64336 10.83994 20.56925 10.46707 20.42515 10.11917C20.28106 9.77126 20.06986 9.45516 19.80365 9.1889C19.53744 8.92264 19.22131 8.71142 18.87341 8.56733C18.5256 8.42322 18.15274 8.34905 17.77622 8.34905C17.39962 8.34905 17.02675 8.42322 16.67894 8.56733C16.33104 8.71142 16.01501 8.92264 15.7487 9.1889C15.4825 9.45516 15.2713 9.77126 15.1272 10.11917C14.9832 10.46707 14.90899 10.83994 14.90909 11.21645z"
        fill="#FB813Aff"></path>
    <path
        d="M11.7816 9.52223C11.7816 9.91584 11.85907 10.3056 12.0097 10.66925C12.16032 11.0329 12.38112 11.36323 12.65942 11.64163C12.93773 11.91994 13.26816 12.14074 13.63181 12.29136C13.99546 12.44198 14.38522 12.51946 14.77882 12.51946C15.17242 12.51946 15.56218 12.44198 15.92582 12.29136C16.28947 12.14074 16.61981 11.91994 16.89821 11.64163C17.17651 11.36323 17.39722 11.0329 17.54784 10.66925C17.69846 10.3056 17.77603 9.91584 17.77603 9.52223C17.77603 8.72732 17.46029 7.96496 16.89821 7.40287C16.33603 6.84078 15.5737 6.525 14.77882 6.525C13.98384 6.525 13.2215 6.84078 12.65942 7.40287C12.09734 7.96496 11.7816 8.72732 11.7816 9.52223z"
        fill="#FB813Aff"></path>
    <path
        d="M21.52992 9.91312C21.70147 9.91322 21.86602 9.98144 21.98736 10.10275C22.10861 10.22419 22.17677 10.38874 22.17677 10.56029L22.17571 10.59082L22.1737 10.62125C21.85181 14.01696 19.23504 16.76074 15.85699 17.35306L16.31107 19.16976C16.33027 19.24666 16.33171 19.32682 16.3153 19.40429C16.29878 19.48176 16.26499 19.55443 16.21622 19.61683C16.16746 19.67923 16.10515 19.72973 16.03402 19.76448C15.96288 19.79923 15.88474 19.81728 15.80554 19.81728L8.27921 19.81728C8.20003 19.81728 8.12188 19.79923 8.05071 19.76448C7.97955 19.72973 7.91723 19.67923 7.8685 19.61683C7.81977 19.55443 7.7859 19.48176 7.76947 19.40429C7.75305 19.32682 7.75449 19.24666 7.7737 19.16976L8.22772 17.35306C4.89166 16.76822 2.29831 14.08474 1.92424 10.74768L1.91171 10.62672C1.90307 10.53629 1.9134 10.44509 1.94207 10.35898C1.97073 10.27286 2.01708 10.19366 2.07813 10.12646C2.13919 10.05928 2.21362 10.0056 2.29664 9.96886C2.37965 9.93212 2.46943 9.91314 2.56021 9.91312L21.52992 9.91312z"
        fill="#FDDE80ff"></path>
    <path
        d="M10.51066 3.65813L13.57402 3.65813C14.05238 3.65813 14.4695 3.9834 14.58538 4.44758L15.95184 9.91314L8.13281 9.91314L9.49929 4.44792C9.55566 4.22235 9.68582 4.02209 9.86909 3.87899C10.05235 3.73588 10.27814 3.65814 10.51066 3.65813z"
        fill="#FDDE80ff"></path>
    <path
        d="M12.04234 15.12614C12.5953 15.12614 13.1257 15.34579 13.5167 15.7368C13.90771 16.1279 14.12746 16.65821 14.12746 17.21126L14.12746 19.81747L9.95722 19.81747L9.95722 17.21126C9.95722 16.65821 10.17686 16.1279 10.56787 15.7368C10.95898 15.34579 11.48928 15.12614 12.04234 15.12614z"
        fill="#FB813Aff"></path>
</svg>