<svg xmlns="http://www.w3.org/2000/svg" viewBox="0 0 24 24" width="100%" height="100%">
    <path
        d="M5.73713 20.26694L18.61296 20.26694C19.40822 20.26694 20.05296 19.6223 20.05296 18.82694L20.05296 5.83225C20.05296 5.03696 19.40822 4.39225 18.61296 4.39225L5.73712 4.39225C4.94183 4.39225 4.29712 5.03696 4.29712 5.83225L4.29713 18.82694C4.29713 19.6223 4.94184 20.26694 5.73713 20.26694z"
        fill="#57D587ff"></path>
    <path
        d="M7.73276 8.05963C7.60831 8.05963 7.50647 8.16223 7.50647 8.28763L7.50647 10.96666C7.50647 11.09203 7.60831 11.19466 7.73276 11.19466L10.39162 11.19466C10.51603 11.19466 10.61789 11.09203 10.61789 10.96666L10.61789 8.28763C10.61789 8.16223 10.51603 8.05963 10.39162 8.05963L7.73276 8.05963z"
        fill="#1F9F81ff"></path>
    <path
        d="M16.84051 8.28763C16.84051 8.16223 16.73875 8.05963 16.61424 8.05963L13.95542 8.05963C13.83091 8.05963 13.72915 8.16223 13.72915 8.28763L13.72915 10.96666C13.72915 11.09203 13.83091 11.19466 13.95542 11.19466L16.61424 11.19466C16.73875 11.19466 16.84051 11.09203 16.84051 10.96666L16.84051 8.28763z"
        fill="#1F9F81ff"></path>
    <path
        d="M10.84416 11.19456C10.71974 11.19456 10.61789 11.29718 10.61789 11.42256L10.61789 12.70666C10.61789 12.83203 10.51603 12.93466 10.39162 12.93466L9.37919 12.93466C9.25473 12.93466 9.1529 13.03728 9.1529 13.16266L9.1529 14.27395L9.1529 14.72995L9.1529 15.84163L9.1529 16.29763L9.1529 17.40893C9.1529 17.5343 9.25473 17.63693 9.37919 17.63693L10.27843 17.63693C10.40294 17.63693 10.5047 17.5343 10.5047 17.40893L10.5047 16.29763C10.5047 16.17226 10.60656 16.06963 10.73098 16.06963L11.85658 16.06963L12.17338 16.06963L12.49066 16.06963L13.61616 16.06963C13.74058 16.06963 13.84243 16.17226 13.84243 16.29763L13.84243 17.40893C13.84243 17.5343 13.94429 17.63693 14.0687 17.63693L14.96755 17.63693C15.09197 17.63693 15.19382 17.5343 15.19382 17.40893L15.19382 16.29763L15.19382 15.84163L15.19382 14.72995L15.19382 14.27395L15.19382 13.16266C15.19382 13.03728 15.09197 12.93466 14.96755 12.93466L13.95562 12.93466C13.8311 12.93466 13.72934 12.83203 13.72934 12.70666L13.72934 11.42256C13.72934 11.29718 13.62749 11.19456 13.50298 11.19456L10.84416 11.19456z"
        fill="#1F9F81ff"></path>
</svg>