<svg xmlns="http://www.w3.org/2000/svg" viewBox="0 0 24 24" width="100%" height="100%">
    <path
        d="M2.00343 12.04454C2.00343 11.51434 2.41329 11.08454 2.91886 11.08454L21.22742 11.08454C21.73296 11.08454 22.14278 11.51434 22.14278 12.04454C22.14278 12.57475 21.73296 13.00454 21.22742 13.00454L2.91886 13.00454C2.41329 13.00454 2.00343 12.57475 2.00343 12.04454z"
        fill="#FF8834ff"></path>
    <path
        d="M18.79498 5.27997L17.35498 5.27997L17.35498 18.72L18.79498 18.72C19.59034 18.72 20.23498 18.07526 20.23498 17.28L20.23498 6.71994C20.23498 5.92466 19.59024 5.27997 18.79498 5.27997z"
        fill="#FFD671ff"></path>
    <path
        d="M8.23125 5.27997L6.79125 5.27997L6.79125 18.72L8.23125 18.72C9.02654 18.72 9.67123 18.07526 9.67123 17.28L9.67123 6.71995C9.67123 5.92467 9.02653 5.27997 8.23125 5.27997z"
        fill="#FF8834ff"></path>
    <path
        d="M15.91498 5.28L17.35498 5.28L17.35498 18.72L15.91498 18.72C15.11971 18.72 14.47498 18.07526 14.47498 17.28L14.47498 6.71983C14.47498 5.92466 15.11981 5.28 15.91498 5.28z"
        fill="#FF8834ff"></path>
    <path
        d="M5.35125 5.27997L6.79125 5.27997L6.79125 18.72L5.35125 18.72C4.55596 18.72 3.91125 18.07526 3.91125 17.28L3.91125 6.71994C3.91125 5.92466 4.55597 5.27997 5.35125 5.27997z"
        fill="#FFD671ff"></path>
</svg>