<svg xmlns="http://www.w3.org/2000/svg" viewBox="0 0 24 24" width="100%" height="100%">
    <path
        d="M12.62496 14.23738C12.36461 14.6424 11.77267 14.6424 11.51222 14.23757L10.54176 12.72902C10.4015 12.5111 10.4015 12.23146 10.54157 12.01344L16.35754 2.96447C16.50086 2.74146 16.80134 2.67425 16.99843 2.85151C18.05741 3.80375 18.30067 5.40988 17.50579 6.64666L12.62496 14.23738z"
        fill="#6D69E4ff"></path>
    <path
        d="M11.37398 12.43008L12.56045 13.11504L10.65005 16.42397L9.46356 15.73901L11.37398 12.43008z"
        fill="#6D69E4ff"></path>
    <path
        d="M11.49312 14.24842C11.75386 14.64998 12.34176 14.65008 12.60259 14.24861L13.58832 12.73152C13.73069 12.51245 13.73069 12.23011 13.58851 12.01094L7.71324 2.95969C7.56982 2.73875 7.2717 2.67196 7.07455 2.84664C6.00046 3.79827 5.75254 5.40777 6.55671 6.64666L11.49312 14.24842z"
        fill="#9796EDff"></path>
    <path
        d="M11.37398 13.11504L12.56045 12.43008L14.40605 15.62678L13.21958 16.31174L11.37398 13.11504z"
        fill="#9796EDff"></path>
    <path
        d="M6.8168 18.86678C5.84817 18.24422 5.56763 16.95437 6.1902 15.98573C6.81276 15.01709 8.10268 14.73648 9.07131 15.35914C10.03997 15.9817 10.32048 17.27155 9.69792 18.24019C9.07535 19.20883 7.78543 19.48934 6.8168 18.86678zM5.96217 20.19648C4.25917 19.10189 3.76595 16.83408 4.86051 15.13104C5.95507 13.4281 8.22294 12.93485 9.92592 14.02944C11.62896 15.12394 12.12221 17.39184 11.02762 19.09478C9.93302 20.79782 7.66517 21.29107 5.96217 20.19648z"
        fill="#FDDE80ff"></path>
    <path
        d="M15.05808 18.86678C14.08944 18.24422 13.80893 16.95437 14.43149 15.98573C15.05405 15.01709 16.3439 14.73648 17.31254 15.35914C18.28118 15.9817 18.56179 17.27155 17.93914 18.24019C17.31658 19.20883 16.02672 19.48934 15.05808 18.86678zM14.20349 20.19648C12.50045 19.10189 12.0072 16.83408 13.10179 15.13104C14.19638 13.4281 16.46419 12.93485 18.16723 14.02944C19.87018 15.12394 20.36342 17.39184 19.26883 19.09478C18.17434 20.79782 15.90643 21.29107 14.20349 20.19648z"
        fill="#FDDE80ff"></path>
    <path
        d="M13.07414 12.32688C13.07414 12.87965 12.62602 13.32778 12.07325 13.32778C11.52048 13.32778 11.07235 12.87965 11.07235 12.32688C11.07235 11.77411 11.52048 11.32598 12.07325 11.32598C12.62602 11.32598 13.07414 11.77411 13.07414 12.32688z"
        fill="#FDDE80ff"></path>
</svg>