<svg xmlns="http://www.w3.org/2000/svg" viewBox="0 0 24 24" width="100%" height="100%">
    <path
        d="M20.7696 9.43989C20.7696 8.64461 20.12486 7.99991 19.3296 7.99988C16.87613 7.9998 14.42275 7.99956 11.96928 7.99979C11.17411 7.99986 10.52957 8.64452 10.52957 9.4397L10.52957 18.96499C10.52957 19.76026 11.17421 20.40499 11.96957 20.40499C14.42285 20.40499 16.87622 20.40499 19.3296 20.40499C20.12486 20.40499 20.7696 19.76026 20.7696 18.96499C20.7696 15.78998 20.7696 12.61498 20.7696 9.43989z"
        fill="#00B9E7ff"></path>
    <path
        d="M17.56512 4.12356L5.86988 4.12356C5.16028 4.12356 4.58508 4.65644 4.58508 5.3136L4.58508 19.21469C4.58508 19.8719 5.16028 20.4047 5.86988 20.4047L17.56512 20.4047C18.27427 20.4047 18.8495 19.8719 18.8495 19.21469L18.8495 5.3136C18.8495 4.65644 18.27427 4.12356 17.56512 4.12356z"
        fill="#59E1F9ff"></path>
    <path
        d="M6.55239 15.36586C6.55239 14.96861 6.87441 14.64662 7.27164 14.64662L16.14778 14.64662C16.54493 14.64662 16.86701 14.96861 16.86701 15.36586C16.86701 15.7631 16.54493 16.08509 16.14778 16.08509L7.27164 16.08509C6.87441 16.08509 6.55239 15.7631 6.55239 15.36586z"
        fill="#00B9E7ff"></path>
    <path
        d="M6.55239 17.90045C6.55239 17.5032 6.87441 17.18122 7.27164 17.18122L16.14778 17.18122C16.54493 17.18122 16.86701 17.5032 16.86701 17.90045C16.86701 18.2977 16.54493 18.61968 16.14778 18.61968L7.27164 18.61968C6.87441 18.61968 6.55239 18.2977 6.55239 17.90045z"
        fill="#00B9E7ff"></path>
    <path
        d="M15.61574 13.17888L7.81898 13.17888C7.13058 13.17888 6.56738 12.61891 6.56738 11.93443L6.56738 7.62798C6.56738 6.94351 7.13058 6.38353 7.81898 6.38353L15.61574 6.38353C16.30416 6.38353 16.86701 6.94351 16.86701 7.62798L16.86701 11.93443C16.86701 12.61891 16.30416 13.17888 15.61574 13.17888z"
        fill="#00B9E7ff"></path>
    <path
        d="M10.3943 8.60394C10.3943 8.06573 10.77312 7.84541 11.23603 8.11452L13.40477 9.37584C13.86768 9.64495 13.86768 10.08557 13.40477 10.35466L11.23603 11.616C10.77312 11.88566 10.3943 11.66534 10.3943 11.12659L10.3943 8.60394z"
        fill="#FDDE80ff"></path>
</svg>