<svg xmlns="http://www.w3.org/2000/svg" viewBox="0 0 24 24" width="100%" height="100%">
    <path
        d="M9.29448 4.11732C9.64829 3.40975 10.65802 3.40975 11.01178 4.11732L18.0985 18.29069C18.4176 18.92899 17.95344 19.68 17.23978 19.68L3.06644 19.68C2.3528 19.68 1.88864 18.92899 2.20779 18.29069L9.29448 4.11732z"
        fill="#1F9F81ff"></path>
    <path
        d="M3.05915 19.68019C2.34988 19.67482 1.89021 18.92698 2.20821 18.29098L5.83356 11.04019L6.34665 12.06643C6.62966 12.63245 7.43746 12.63245 7.72048 12.06643L8.3349 10.83754C8.68868 10.13002 9.6984 10.13002 10.05216 10.83754L12.10666 14.94643C12.38966 15.51245 13.19741 15.51245 13.48051 14.94643L14.95354 12.00029L18.09888 18.29098C18.41808 18.92928 17.95392 19.68029 17.24026 19.68029L3.26428 19.68029C3.26216 19.68019 3.26004 19.68019 3.25792 19.68019L3.05915 19.68019z"
        fill="#57D587ff"></path>
    <path
        d="M16.01443 9.87732C16.36829 9.16975 17.37802 9.16975 17.73178 9.87732L21.9385 18.29069C22.2576 18.92899 21.79344 19.68 21.07978 19.68L12.66643 19.68C11.95277 19.68 11.48861 18.92899 11.80781 18.29069L16.01443 9.87732z"
        fill="#1F9F81ff"></path>
    <path
        d="M19.51354 13.44L21.93888 18.29069C22.25808 18.92899 21.79392 19.68 21.08026 19.68L12.66682 19.68C11.95325 19.68 11.48909 18.92899 11.80819 18.29069L14.95354 12L17.16422 16.42138C17.34115 16.77514 17.84602 16.77514 18.02285 16.42138L19.51354 13.44z"
        fill="#57D587ff"></path>
</svg>