<svg xmlns="http://www.w3.org/2000/svg" viewBox="0 0 24 24" width="100%" height="100%">
    <path
        d="M12.3744 18.84662C12.69341 20.00419 13.71994 21.08438 14.85139 20.68234C18.26458 19.46938 20.71642 16.13021 20.71642 12.20093C20.71642 7.24727 16.81949 3.23156 12.01248 3.23156C7.20531 3.23156 3.30844 7.24727 3.30844 12.20093C3.33446 12.77126 3.45612 13.28774 3.61254 13.63834C4.17721 14.90381 5.61394 15.15859 6.73392 15.12922C8.03405 15.09514 9.63226 15.24019 10.56096 16.00886C11.59786 16.8671 12.11866 17.91859 12.3744 18.84662z"
        fill="#FDDE80ff"></path>
    <path
        d="M8.78526 10.49779C8.78526 11.44157 8.02013 12.20669 7.07629 12.20669C6.13247 12.20669 5.36734 11.44157 5.36734 10.49779C5.36734 9.55393 6.13247 8.78881 7.07629 8.78881C8.02013 8.78881 8.78526 9.55393 8.78526 10.49779z"
        fill="#FB813Aff"></path>
    <path
        d="M12.408 7.48322C12.408 8.20428 11.82355 8.78881 11.1025 8.78881C10.38144 8.78881 9.7969 8.20428 9.7969 7.48322C9.7969 6.76216 10.38144 6.17764 11.1025 6.17764C11.82355 6.17764 12.408 6.76216 12.408 7.48322z"
        fill="#FB813Aff"></path>
    <path
        d="M16.3633 7.48323C16.3633 8.02254 15.92611 8.45974 15.38678 8.45974C14.84755 8.45974 14.41027 8.02254 14.41027 7.48323C14.41027 6.94392 14.84755 6.50672 15.38678 6.50672C15.92611 6.50672 16.3633 6.94392 16.3633 7.48323z"
        fill="#FB813Aff"></path>
    <path
        d="M14.71584 14.62147C14.41421 14.09914 14.58682 13.43146 15.10368 13.1207L21.1801 9.46733C21.82541 9.07934 22.66397 9.30876 23.02195 9.97121C23.37216 10.61933 23.12429 11.4287 22.4711 11.76941L16.18522 15.04906C15.6599 15.32304 15.012 15.1345 14.71584 14.62147z"
        fill="#FB813Aff"></path>
    <path
        d="M11.78429 14.75242C12.32054 14.68214 12.92227 13.98 13.23936 13.54013L15.35971 16.06061C13.86586 16.96474 11.96122 16.30694 11.5559 15.00941C11.51616 14.88211 11.65219 14.76979 11.78429 14.75242z"
        fill="#FB813Aff"></path>
    <path
        d="M16.15882 14.96486C15.96509 15.86717 15.07661 16.44154 14.1743 16.24781C13.272 16.05408 12.69763 15.1655 12.89136 14.2633C13.08509 13.36099 13.97366 12.78662 14.87587 12.98035C15.77818 13.17408 16.35254 14.06256 16.15882 14.96486z"
        fill="#FB813Aff"></path>
</svg>