<svg xmlns="http://www.w3.org/2000/svg" viewBox="0 0 24 24" width="100%" height="100%">
    <path
        d="M10.91453 10.73011C7.95237 9.85407 7.59103 5.97928 10.11072 4.12781C13.15738 5.65305 12.98035 8.82602 10.91453 10.73011z"
        fill="#57D587ff"></path>
    <path
        d="M18.67613 9.33284C18.19392 12.384 14.39933 13.24752 12.2351 10.99085C13.34995 7.77122 16.51891 7.53296 18.67613 9.33284z"
        fill="#57D587ff"></path>
    <path
        d="M11.30275 17.05469C7.42624 18.98832 3.35071 15.35866 4.16538 11.05008C8.74932 9.70172 11.6015 13.12618 11.30275 17.05469z"
        fill="#57D587ff"></path>
    <path
        d="M19.80106 14.7049C19.08797 18.83357 13.92499 19.93133 11.03338 16.8288C12.60778 12.48394 16.91021 12.22205 19.80106 14.7049z"
        fill="#57D587ff"></path>
    <path
        d="M16.30752 5.67904C16.56192 6.14421 16.39104 6.72755 15.92592 6.98196C13.72982 8.183 12.6264 10.43021 12.22214 12.83395C11.81539 15.25277 12.15562 17.6279 12.63734 18.80381C12.83827 19.29446 12.60346 19.8551 12.1128 20.05603C11.62224 20.25706 11.0616 20.02224 10.86058 19.53158C10.22304 17.97514 9.87216 15.2304 10.32874 12.51552C10.78781 9.78549 12.10214 6.88484 15.00461 5.29743C15.46973 5.04302 16.05312 5.21388 16.30752 5.67904z"
        fill="#1F9F81ff"></path>
</svg>