<svg xmlns="http://www.w3.org/2000/svg" viewBox="0 0 24 24" width="100%" height="100%">
    <path
        d="M3.28234 9.44915C3.28234 8.65385 3.92704 8.00915 4.72234 8.00915L18.60384 8.00915C19.3991 8.00915 20.04384 8.65385 20.04384 9.44915L20.04384 18.55642C20.04384 19.35168 19.3991 19.99642 18.60384 19.99642L4.72234 19.99642C3.92704 19.99642 3.28234 19.35168 3.28234 18.55642L3.28234 9.44915z"
        fill="#6D69E4ff"></path>
    <path
        d="M3.30774 6.48804C3.30774 5.77451 3.83026 5.16858 4.53603 5.06368L10.46851 4.18192C11.26406 4.06368 12.07267 4.06356 12.86813 4.18158L18.81648 5.06397C19.52246 5.1687 20.04518 5.77471 20.04518 6.48839L20.04518 8.03538L3.30774 8.03538L3.30774 6.48804z"
        fill="#FDDE80ff"></path>
    <path
        d="M3.2646 18.55642L3.2646 8.01092L10.72051 8.01092C10.72051 10.45459 8.77914 15.92371 4.72764 15.92371C6.42906 15.92371 6.81611 17.75664 6.79081 19.16352C6.78217 19.64362 6.36905 19.99642 5.88889 19.99642L4.7046 19.99642C3.90932 19.99642 3.2646 19.35168 3.2646 18.55642z"
        fill="#9796EDff"></path>
    <path
        d="M20.04586 18.55642L20.04586 8.01094L12.59002 8.01094C12.59002 10.45459 14.53133 15.92371 18.58282 15.92371C16.88141 15.92371 16.49434 17.75664 16.51968 19.16352C16.52832 19.64362 16.94141 19.99642 17.4216 19.99642L18.60586 19.99642C19.40112 19.99642 20.04586 19.35168 20.04586 18.55642z"
        fill="#9796EDff"></path>
    <path
        d="M6.42128 8.02812L3.28242 8.02812L3.28242 16.0439C6.1361 16.0439 6.56402 10.70006 6.42128 8.02812z"
        fill="#6D69E4ff"></path>
    <path
        d="M16.90704 8.02812L20.04586 8.02812L20.04586 16.0439C17.19216 16.0439 16.76429 10.70006 16.90704 8.02812z"
        fill="#6D69E4ff"></path>
    <path
        d="M3.2646 15.24941L5.88621 15.24941C6.4164 15.24941 6.84621 15.6792 6.84621 16.20941L6.84621 16.20941C6.84621 16.73962 6.4164 17.16941 5.88621 17.16941L3.2646 17.16941L3.2646 15.24941z"
        fill="#FDDE80ff"></path>
    <path
        d="M20.04586 15.24941L17.42016 15.24941C16.88995 15.24941 16.46016 15.6792 16.46016 16.20941L16.46016 16.20941C16.46016 16.73962 16.88995 17.16941 17.42016 17.16941L20.04586 17.16941L20.04586 15.24941z"
        fill="#FDDE80ff"></path>
</svg>