<svg xmlns="http://www.w3.org/2000/svg" viewBox="0 0 24 24" width="100%" height="100%">
    <path
        d="M11.96112 11.90266L12.51312 12.57888C12.73104 12.84586 12.83904 13.18579 12.81494 13.52957C12.79085 13.87334 12.63658 14.19494 12.38362 14.4289L6.04611 20.28893C5.83904 20.48045 5.56644 20.58538 5.2844 20.58211C5.00236 20.57875 4.7323 20.46749 4.52977 20.27117C4.32434 20.07216 4.20036 19.80374 4.18199 19.51834C4.16362 19.23283 4.25216 18.95078 4.43037 18.7271L6.93946 15.57552L9.85382 11.91571C9.97968 11.7576 10.13942 11.62973 10.32115 11.54141C10.50298 11.45309 10.70227 11.40653 10.90435 11.40528C11.10643 11.40403 11.3063 11.4481 11.48918 11.53411C11.67206 11.62022 11.83334 11.74618 11.96112 11.90266z"
        fill="#1F9F81ff"></path>
    <path
        d="M16.60733 3.48445C17.30227 3.48483 17.97043 3.75239 18.47347 4.23176C18.97651 4.71111 19.27603 5.36557 19.30992 6.05964C19.34381 6.75371 19.10957 7.43424 18.65558 7.96035C18.2017 8.48647 17.56282 8.81788 16.87123 8.88599L18.26746 9.94675C18.36806 10.02369 18.50237 10.0373 18.61651 9.98345L20.31802 9.18298C20.5559 9.07102 20.82662 9.05058 21.07862 9.12555C21.33053 9.20052 21.54614 9.36564 21.6841 9.58942C21.82022 9.81035 21.86755 10.07472 21.81638 10.32912C21.76522 10.58362 21.61939 10.80912 21.40838 10.96022L18.49757 13.0463C18.27658 13.2047 18.01296 13.29283 17.74118 13.29926C17.46931 13.3057 17.20186 13.23014 16.97357 13.0824L15.44717 12.09437L14.42717 13.19837L16.05888 15.12403C16.09757 15.16934 16.13309 15.21725 16.16544 15.26726L16.21037 15.34358C16.38432 15.6576 16.42637 16.02787 16.3273 16.37299C16.22822 16.71802 15.9961 17.00957 15.68208 17.18352L11.24246 19.64112C10.98701 19.78234 10.6872 19.82035 10.40458 19.7473C10.12205 19.67424 9.87821 19.49568 9.72317 19.24829C9.56556 18.99667 9.50644 18.69571 9.55721 18.4031C9.60797 18.11059 9.76512 17.84707 9.9983 17.66333L12.43757 15.74112L9.98122 14.16269L9.9457 14.13898C9.93869 14.13437 9.93178 14.12966 9.92496 14.12486L9.60547 13.95917C9.44086 13.87421 9.29545 13.75632 9.17823 13.6129C9.06103 13.46938 8.9745 13.30339 8.92404 13.12512C8.87357 12.94694 8.86022 12.76022 8.88483 12.57658C8.90943 12.39293 8.97147 12.21638 9.06708 12.0577L10.72368 9.31018L10.01366 8.9907C9.96048 8.96686 9.90202 8.95716 9.84403 8.96255C9.78595 8.96794 9.73027 8.98823 9.68237 9.02147L7.82232 10.30646C7.60337 10.45786 7.338 10.52707 7.07301 10.50182C6.80803 10.47658 6.56048 10.35859 6.37402 10.16861C6.28791 10.08096 6.22047 9.97679 6.17576 9.86235C6.13105 9.74791 6.10999 9.62558 6.11386 9.50278C6.11773 9.37997 6.14645 9.25923 6.19828 9.14782C6.25011 9.03642 6.32398 8.93669 6.41543 8.85463L9.38007 6.1935C9.55734 6.03445 9.77347 5.925 10.00656 5.87618C10.23965 5.82735 10.48147 5.8409 10.70765 5.91543L14.02493 7.00758C13.89667 6.60188 13.86595 6.17168 13.93507 5.75185C14.00419 5.33202 14.17133 4.93441 14.42285 4.59125C14.67437 4.24808 15.00326 3.96903 15.38275 3.77674C15.76234 3.58444 16.18186 3.4843 16.60733 3.48445L16.60733 3.48445z"
        fill="#57D587ff"></path>
</svg>