<svg xmlns="http://www.w3.org/2000/svg" viewBox="0 0 24 24" width="100%" height="100%">
    <path
        d="M12.02688 16.19126L9.47718 16.19126L8.48827 20.24736C8.41458 20.54966 8.64349 20.84102 8.95461 20.84102L12.02688 20.84102L15.09946 20.84102C15.41059 20.84102 15.63955 20.54966 15.56582 20.24736L14.57693 16.19126L12.02688 16.19126z"
        fill="#FDDE80ff"></path>
    <path
        d="M12.0265 5.11161C11.68627 5.11161 11.40749 4.83518 11.40749 4.49694L11.40749 2.92935C11.40749 2.59111 11.68627 2.31468 12.0265 2.31468C12.36662 2.31468 12.6455 2.59111 12.6455 2.92935L12.6455 4.49694C12.6455 4.83518 12.36662 5.11161 12.0265 5.11161z"
        fill="#00B9E7ff"></path>
    <path
        d="M5.44948 12.45869L5.44948 10.1089C5.44948 6.51677 8.40948 3.57738 12.02678 3.57738C15.64464 3.57738 18.60461 6.51677 18.60461 10.1089L18.60461 12.45869C18.60461 12.81619 18.31267 13.10611 17.95267 13.10611L6.1014 13.10611C5.74138 13.10611 5.44948 12.81619 5.44948 12.45869z"
        fill="#00B9E7ff"></path>
    <path
        d="M18.30816 16.26451L5.74677 16.26451C4.34618 16.26451 3.20062 15.15648 3.20062 13.80269C3.20062 12.44851 4.34618 11.34048 5.74677 11.34048L18.30816 11.34048C19.7088 11.34048 20.85427 12.44851 20.85427 13.80269C20.85427 15.15648 19.7088 16.26451 18.30816 16.26451z"
        fill="#59E1F9ff"></path>
    <path
        d="M18.0864 13.80269C18.0864 14.2633 17.71018 14.63683 17.2463 14.63683C16.78205 14.63683 16.40621 14.2633 16.40621 13.80269C16.40621 13.34208 16.78205 12.96845 17.2463 12.96845C17.71018 12.96845 18.0864 13.34208 18.0864 13.80269z"
        fill="#00B9E7ff"></path>
    <path
        d="M7.64822 13.80259C7.64822 14.2632 7.272 14.63683 6.80816 14.63683C6.3439 14.63683 5.9681 14.2632 5.9681 13.80259C5.9681 13.34198 6.3439 12.96835 6.80816 12.96835C7.272 12.96835 7.64822 13.34198 7.64822 13.80259z"
        fill="#00B9E7ff"></path>
    <path
        d="M12.91315 13.8025C12.91315 14.2631 12.53693 14.63674 12.07315 14.63674C11.6089 14.63674 11.23306 14.2631 11.23306 13.8025C11.23306 13.34189 11.6089 12.96826 12.07315 12.96826C12.53693 12.96826 12.91315 13.34189 12.91315 13.8025z"
        fill="#00B9E7ff"></path>
</svg>