<svg xmlns="http://www.w3.org/2000/svg" viewBox="0 0 1024 1024" width="100%" height="100%">
<path d="M518.656 475.904a223.488 223.488 0 0 1-23.296-75.52 366.08 366.08 0 0 1 81.408 14.592 623.104 623.104 0 0 1-58.112 60.928m-69.888-119.04c-11.52-58.112-8.704-55.296-25.6-156.928a265.984 265.984 0 0 0-78.336 46.592c51.2 104.448 60.928 165.376 92.928 290.304 51.2-5.632 211.968-40.704 226.56-130.56 8.704-64-142.336-64-215.04-49.408M486.4 624.128a263.424 263.424 0 0 0-107.52 69.632l43.52 153.6a47.872 47.872 0 0 1-92.928 23.296L216.576 473.088l-72.704-204.8c2.816-5.632 5.888-8.704 8.704-14.336l-14.592-51.2a46.08 46.08 0 0 1 32-57.856A47.616 47.616 0 0 1 228.096 179.2v2.816a334.848 334.848 0 0 1 98.816-43.52c177.152-46.592 203.264 55.04 429.824 23.296L890.368 588.8c-171.52 90.112-232.448-11.52-403.712 35.072" fill="#F39800">
</svg>