<svg xmlns="http://www.w3.org/2000/svg" xmlns:xlink="http://www.w3.org/1999/xlink" fill="none" version="1.1" width="1024" height="1024" viewBox="0 0 1024 1024"><defs><clipPath id="master_svg0_1_5"><rect x="0" y="0" width="1024" height="1024" rx="0"/></clipPath><linearGradient x1="-0.03559274226427078" y1="0.14154286682605743" x2="0.3670809864997864" y2="1.0495315790176392" id="master_svg1_1_92"><stop offset="0%" stop-color="#393946" stop-opacity="1"/><stop offset="40.115898847579956%" stop-color="#23232E" stop-opacity="1"/><stop offset="100%" stop-color="#191924" stop-opacity="1"/></linearGradient><linearGradient x1="1.0356004238128662" y1="0.14154286682605743" x2="0.6329137682914734" y2="1.0495315790176392" id="master_svg2_1_93"><stop offset="0%" stop-color="#393946" stop-opacity="1"/><stop offset="40.115898847579956%" stop-color="#23232E" stop-opacity="1"/><stop offset="100%" stop-color="#191924" stop-opacity="1"/></linearGradient><filter id="master_svg3_1_05" filterUnits="objectBoundingBox" color-interpolation-filters="sRGB" x="-5" y="-5" width="831.2000732421875" height="728.800048828125"><feFlood flood-opacity="0" result="BackgroundImageFix"/><feColorMatrix in="SourceAlpha" type="matrix" values="0 0 0 0 0 0 0 0 0 0 0 0 0 0 0 0 0 0 127 0"/><feOffset dy="1" dx="1"/><feGaussianBlur stdDeviation="1.5"/><feColorMatrix type="matrix" values="0 0 0 0 0.03954499959945679 0 0 0 0 0.08450230211019516 0 0 0 0 0.20010699331760406 0 0 0 0.8500000238418579 0"/><feBlend mode="normal" in2="BackgroundImageFix" result="effect1_dropShadow"/><feBlend mode="normal" in="SourceGraphic" in2="effect1_dropShadow" result="shape"/></filter><filter id="master_svg4_1_12" filterUnits="objectBoundingBox" color-interpolation-filters="sRGB" x="0" y="0" width="887.4667358398438" height="750.933349609375"><feFlood flood-opacity="0" result="BackgroundImageFix"/><feBlend mode="normal" in="SourceGraphic" in2="BackgroundImageFix" result="shape"/><feColorMatrix in="SourceAlpha" type="matrix" result="hardAlpha" values="0 0 0 0 0 0 0 0 0 0 0 0 0 0 0 0 0 0 127 0"/><feOffset dy="3.714289903640747" dx="2.785710096359253"/><feGaussianBlur stdDeviation="1.3928600549697876"/><feComposite in2="hardAlpha" operator="arithmetic" k2="-1" k3="1"/><feColorMatrix type="matrix" values="0 0 0 0 1 0 0 0 0 1 0 0 0 0 1 0 0 0 0.25 0"/><feBlend mode="normal" in2="shape" result="effect1_innerShadow"/><feColorMatrix in="SourceAlpha" type="matrix" result="hardAlpha" values="0 0 0 0 0 0 0 0 0 0 0 0 0 0 0 0 0 0 127 0"/><feOffset dy="-1.8571399450302124" dx="-2"/><feGaussianBlur stdDeviation="1.8571399450302124"/><feComposite in2="hardAlpha" operator="arithmetic" k2="-1" k3="1"/><feColorMatrix type="matrix" values="0 0 0 0 0 0 0 0 0 0.15444999933242798 0 0 0 0 0.45426398515701294 0 0 0 0.10999999940395355 0"/><feBlend mode="normal" in2="effect1_innerShadow" result="effect2_innerShadow"/></filter><linearGradient x1="0.21811191737651825" y1="0.21849091351032257" x2="0.6896499991416931" y2="1.0494545698165894" id="master_svg5_1_95"><stop offset="0%" stop-color="#F4FCFF" stop-opacity="1"/><stop offset="100%" stop-color="#EAF5F9" stop-opacity="1"/></linearGradient></defs><g clip-path="url(#master_svg0_1_5)"><g><g><path d="M257.357049609375,80.1351999267578C279.080249609375,62.032609926757814,311.364849609375,64.96772992675781,329.467549609375,86.69049992675781L414.802349609375,189.09079992675782C432.902349609375,210.8137999267578,429.967349609375,243.0987999267578,408.245349609375,261.2007999267578C386.522349609375,279.30379992675785,354.239349609375,276.3687999267578,336.135049609375,254.6457999267578L250.801749609375,152.2452999267578C232.699149609375,130.5224999267578,235.634279609375,98.2374999267578,257.357049609375,80.1351999267578Z" fill-rule="evenodd" fill="url(#master_svg1_1_92)" fill-opacity="1"/></g><g><path d="M749.5745874023437,80.1351999267578C727.8525874023437,62.032609926757814,695.5695874023438,64.96772992675781,677.4648874023437,86.69049992675781L592.1314874023437,189.09079992675782C574.0306074023438,210.8137999267578,576.9660174023437,243.0987999267578,598.6884874023438,261.2007999267578C620.4109874023437,279.30379992675785,652.6942874023438,276.3687999267578,670.7985874023437,254.6457999267578L756.1315874023437,152.2452999267578C774.2325874023437,130.5224999267578,771.3005874023438,98.2374999267578,749.5745874023437,80.1351999267578Z" fill-rule="evenodd" fill="url(#master_svg2_1_93)" fill-opacity="1"/></g><g style="opacity:0.20000000298023224;" filter="url(#master_svg3_1_05)"><g><path d="M921.6000244140625,623.0460183105469C921.6000244140625,854.0370183105468,738.2150244140626,921.6000183105468,512.0000244140625,921.6000183105468C285.7840244140625,921.6000183105468,102.4000244140625,854.0370183105468,102.4000244140625,623.0460183105469C102.4000244140625,392.05501831054687,133.9078244140625,204.80001831054688,512.0000244140625,204.80001831054688C905.8480244140625,204.80001831054688,921.6000244140625,392.05501831054687,921.6000244140625,623.0460183105469Z" fill="#D9D9D9" fill-opacity="1"/></g></g><g filter="url(#master_svg4_1_12)"><g><path d="M955.7336625976562,646.7890183105469C955.7336625976562,909.8580183105469,757.0666625976562,955.7330183105469,511.99966259765625,955.7330183105469C266.93266259765625,955.7330183105469,68.26666259765625,909.8580183105469,68.26666259765625,646.7890183105469C68.26666259765625,341.3330183105469,102.39996259765624,204.80001831054688,511.99966259765625,204.80001831054688C938.6666625976562,204.80001831054688,955.7336625976562,341.3330183105469,955.7336625976562,646.7890183105469Z" fill="url(#master_svg5_1_95)" fill-opacity="1"/></g></g><g><path d="M163.36666870117188,485.00368701171874C163.36666870117188,407.0843870117187,219.98396870117188,340.03798701171877,297.34866870117185,330.76228701171874C450.79566870117185,312.36440701171875,572.3406687011718,311.68546701171874,727.4906687011719,330.44178701171876C804.5126687011718,339.7532870117187,860.6616687011718,406.65778701171877,860.6616687011718,484.2426870117188L860.6616687011718,655.0866870117188C860.6616687011718,728.1596870117187,810.8406687011719,792.7736870117187,738.8226687011719,805.1506870117187C576.9556687011718,832.9626870117188,449.55266870117185,827.6006870117187,292.1596687011719,802.6006870117187C217.16826870117188,790.6886870117187,163.36666870117188,724.7296870117187,163.36666870117188,648.7996870117188L163.36666870117188,485.00368701171874Z" fill="#191924" fill-opacity="1"/></g><g><path d="M639.7466748046875,522.6667022705078L639.7466748046875,617.7519022705078Q639.7466748046875,618.5060022705078,639.7836748046875,619.2593022705078Q639.8206748046875,620.0125022705079,639.8945748046875,620.7630022705079Q639.9684748046875,621.5135022705078,640.0791748046875,622.2595022705078Q640.1898748046875,623.0057022705078,640.3369748046875,623.7447022705078Q640.4840748046875,624.4847022705078,640.6672748046875,625.2167022705078Q640.8505748046875,625.9477022705078,641.0694748046875,626.6697022705079Q641.2883748046875,627.3907022705079,641.5424748046875,628.1007022705078Q641.7964748046875,628.8117022705078,642.0850748046875,629.5077022705078Q642.3736748046875,630.2047022705078,642.6961748046875,630.8867022705078Q643.0185748046875,631.5677022705078,643.3740748046876,632.2337022705078Q643.7295748046874,632.8987022705078,644.1172748046876,633.5447022705079Q644.5049748046875,634.1917022705078,644.9239748046875,634.8187022705079Q645.3428748046875,635.4457022705078,645.7921748046875,636.0517022705078Q646.2413748046876,636.6577022705078,646.7197748046875,637.2407022705078Q647.1981748046875,637.8237022705079,647.7046748046876,638.3827022705078Q648.2110748046875,638.9407022705078,648.7443748046875,639.4747022705078Q649.2775748046874,640.0077022705078,649.8363748046875,640.5137022705078Q650.3951748046875,641.0207022705079,650.9780748046875,641.4987022705078Q651.5610748046875,641.9777022705078,652.1667748046875,642.4267022705078Q652.7724748046875,642.8757022705079,653.3995748046875,643.2947022705079Q654.0265748046875,643.7137022705078,654.6734748046875,644.1017022705078Q655.3202748046875,644.4887022705078,655.9853748046875,644.8447022705078Q656.6504748046875,645.1997022705078,657.3321748046875,645.5227022705078Q658.0138748046875,645.8447022705078,658.7106748046875,646.1337022705078Q659.4073748046875,646.4217022705078,660.1173748046875,646.6757022705078Q660.8274748046875,646.9307022705078,661.5491348046875,647.1487022705078Q662.2707948046875,647.3677022705078,663.0023248046875,647.5517022705078Q663.7338548046876,647.7347022705078,664.4735048046875,647.8817022705078Q665.2131448046875,648.0287022705078,665.9591148046875,648.1397022705078Q666.7050848046875,648.2497022705078,667.4555848046875,648.3237022705079Q668.2060948046875,648.3977022705078,668.9593148046876,648.4347022705078Q669.7125408046875,648.4717022705079,670.4666748046875,648.4717022705079Q671.2208088046875,648.4717022705079,671.9740348046874,648.4347022705078Q672.7272548046875,648.3977022705078,673.4777648046875,648.3237022705079Q674.2282648046875,648.2497022705078,674.9742348046875,648.1397022705078Q675.7202048046875,648.0287022705078,676.4598448046875,647.8817022705078Q677.1994948046874,647.7347022705078,677.9310248046875,647.5517022705078Q678.6625548046875,647.3677022705078,679.3842148046875,647.1487022705078Q680.1058748046875,646.9307022705078,680.8159748046875,646.6757022705078Q681.5259748046875,646.4217022705078,682.2226748046875,646.1337022705078Q682.9194748046875,645.8447022705078,683.6011748046875,645.5227022705078Q684.2828748046875,645.1997022705078,684.9479748046875,644.8447022705078Q685.6130748046875,644.4887022705078,686.2598748046875,644.1017022705078Q686.9067748046875,643.7137022705078,687.5337748046875,643.2947022705079Q688.1608748046875,642.8757022705079,688.7665748046875,642.4267022705078Q689.3722748046875,641.9777022705078,689.9552748046875,641.4987022705078Q690.5381748046875,641.0207022705079,691.0969748046875,640.5137022705078Q691.6557748046876,640.0077022705078,692.1889748046875,639.4747022705078Q692.7222748046875,638.9407022705078,693.2286748046874,638.3827022705078Q693.7351748046875,637.8237022705079,694.2135748046875,637.2407022705078Q694.6919748046874,636.6577022705078,695.1411748046875,636.0517022705078Q695.5904748046875,635.4457022705078,696.0093748046875,634.8187022705079Q696.4283748046875,634.1917022705078,696.8160748046874,633.5447022705079Q697.2037748046876,632.8987022705078,697.5592748046874,632.2337022705078Q697.9147748046875,631.5677022705078,698.2371748046875,630.8867022705078Q698.5596748046875,630.2047022705078,698.8482748046875,629.5077022705078Q699.1368748046875,628.8117022705078,699.3908748046875,628.1007022705078Q699.6449748046875,627.3907022705079,699.8638748046875,626.6697022705079Q700.0827748046875,625.9477022705078,700.2660748046875,625.2167022705078Q700.4492748046875,624.4847022705078,700.5963748046875,623.7447022705078Q700.7434748046875,623.0057022705078,700.8541748046875,622.2595022705078Q700.9648748046875,621.5135022705078,701.0387748046875,620.7630022705079Q701.1126748046875,620.0125022705079,701.1496748046875,619.2593022705078Q701.1866748046875,618.5060022705078,701.1866748046875,617.7519022705078L701.1866748046875,522.6667022705078Q701.1866748046875,521.9125682705078,701.1496748046875,521.1593422705079Q701.1126748046875,520.4061222705078,701.0387748046875,519.6556122705078Q700.9648748046875,518.9051122705079,700.8541748046875,518.1591422705078Q700.7434748046875,517.4131722705079,700.5963748046875,516.6735322705078Q700.4492748046875,515.9338822705079,700.2660748046875,515.2023522705078Q700.0827748046875,514.4708222705078,699.8638748046875,513.7491622705078Q699.6449748046875,513.0275022705079,699.3908748046875,512.3174022705078Q699.1368748046875,511.6074022705078,698.8482748046875,510.91070227050784Q698.5596748046875,510.2139022705078,698.2371748046875,509.5322022705078Q697.9147748046875,508.85050227050783,697.5592748046874,508.18540227050784Q697.2037748046876,507.52030227050784,696.8160748046874,506.8735022705078Q696.4283748046875,506.2266022705078,696.0093748046875,505.59960227050783Q695.5904748046875,504.9725022705078,695.1411748046875,504.36680227050783Q694.6919748046874,503.7611022705078,694.2135748046875,503.1781022705078Q693.7351748046875,502.5952022705078,693.2286748046874,502.03640227050784Q692.7222748046875,501.4776022705078,692.1889748046875,500.9444022705078Q691.6557748046876,500.4111022705078,691.0969748046875,499.9047022705078Q690.5381748046875,499.3982022705078,689.9552748046875,498.91980227050783Q689.3722748046875,498.4414022705078,688.7665748046875,497.9922022705078Q688.1608748046875,497.5429022705078,687.5337748046875,497.1240022705078Q686.9067748046875,496.7050022705078,686.2598748046875,496.3173022705078Q685.6130748046875,495.9296022705078,684.9479748046875,495.5741022705078Q684.2828748046875,495.2186022705078,683.6011748046875,494.89620227050784Q682.9194748046875,494.5737022705078,682.2226748046875,494.2851022705078Q681.5259748046875,493.9965022705078,680.8159748046875,493.7425022705078Q680.1058748046875,493.48840227050783,679.3842148046875,493.2695022705078Q678.6625548046875,493.0506022705078,677.9310248046875,492.8673022705078Q677.1994948046874,492.6841022705078,676.4598448046875,492.5370022705078Q675.7202048046875,492.38990227050783,674.9742348046875,492.2792022705078Q674.2282648046875,492.1685022705078,673.4777648046875,492.09460227050783Q672.7272548046875,492.0207022705078,671.9740348046874,491.9837022705078Q671.2208088046875,491.9467022705078,670.4666748046875,491.9467022705078Q669.7125408046875,491.9467022705078,668.9593148046876,491.9837022705078Q668.2060948046875,492.0207022705078,667.4555848046875,492.09460227050783Q666.7050848046875,492.1685022705078,665.9591148046875,492.2792022705078Q665.2131448046875,492.38990227050783,664.4735048046875,492.5370022705078Q663.7338548046876,492.6841022705078,663.0023248046875,492.8673022705078Q662.2707948046875,493.0506022705078,661.5491348046875,493.2695022705078Q660.8274748046875,493.48840227050783,660.1173748046875,493.7425022705078Q659.4073748046875,493.9965022705078,658.7106748046875,494.2851022705078Q658.0138748046875,494.5737022705078,657.3321748046875,494.89620227050784Q656.6504748046875,495.2186022705078,655.9853748046875,495.5741022705078Q655.3202748046875,495.9296022705078,654.6734748046875,496.3173022705078Q654.0265748046875,496.7050022705078,653.3995748046875,497.1240022705078Q652.7724748046875,497.5429022705078,652.1667748046875,497.9922022705078Q651.5610748046875,498.4414022705078,650.9780748046875,498.91980227050783Q650.3951748046875,499.3982022705078,649.8363748046875,499.9047022705078Q649.2775748046874,500.4111022705078,648.7443748046875,500.9444022705078Q648.2110748046875,501.4776022705078,647.7046748046876,502.03640227050784Q647.1981748046875,502.5952022705078,646.7197748046875,503.1781022705078Q646.2413748046876,503.7611022705078,645.7921748046875,504.36680227050783Q645.3428748046875,504.9725022705078,644.9239748046875,505.59960227050783Q644.5049748046875,506.2266022705078,644.1172748046876,506.8735022705078Q643.7295748046874,507.52030227050784,643.3740748046876,508.18540227050784Q643.0185748046875,508.85050227050783,642.6961748046875,509.5322022705078Q642.3736748046875,510.2139022705078,642.0850748046875,510.91070227050784Q641.7964748046875,511.6074022705078,641.5424748046875,512.3174022705078Q641.2883748046875,513.0275022705079,641.0694748046875,513.7491622705078Q640.8505748046875,514.4708222705078,640.6672748046875,515.2023522705078Q640.4840748046875,515.9338822705079,640.3369748046875,516.6735322705078Q640.1898748046875,517.4131722705079,640.0791748046875,518.1591422705078Q639.9684748046875,518.9051122705079,639.8945748046875,519.6556122705078Q639.8206748046875,520.4061222705078,639.7836748046875,521.1593422705079Q639.7466748046875,521.9125682705078,639.7466748046875,522.6667022705078Z" fill-rule="evenodd" fill="#2CFFFF" fill-opacity="1"/></g><g><path d="M375.2577557128906,485.21440764160155L375.2550557128906,485.2118076416016Q375.24655571289065,485.20330764160155,375.2380557128906,485.1948076416016Q375.1149557128906,485.07190764160157,374.99045571289065,484.95040764160154Q374.9815557128906,484.94170764160157,374.9726557128906,484.93300764160153Q374.4414557128906,484.4154076416016,373.8859557128906,483.9240076416016Q373.33035571289065,483.4326076416016,372.7517557128906,482.9686076416016Q372.17305571289063,482.5046076416016,371.5727557128906,482.0691076416016Q370.97235571289065,481.63350764160157,370.35165571289065,481.22750764160156Q369.7310557128906,480.8214076416016,369.09145571289065,480.44580764160156Q368.45195571289065,480.07010764160157,367.79505571289064,479.7258076416016Q367.1380557128906,479.38150764160156,366.4652557128906,479.06930764160154Q365.79255571289065,478.75700764160155,365.1054557128906,478.47760764160154Q364.4183557128906,478.1982076416016,363.7186557128906,477.9523076416016Q363.0189057128906,477.7064076416016,362.3081057128906,477.49460764160153Q361.5973057128906,477.2827076416016,360.8771057128906,477.1054076416016Q360.1569157128906,476.92810764160157,359.42899571289064,476.78570764160156Q358.70108571289063,476.6434076416016,357.96715571289064,476.53640764160156Q357.2332157128906,476.42930764160155,356.4949757128906,476.35780764160154Q355.7567257128906,476.2863076416016,355.0158957128906,476.2505076416016Q354.2750557128906,476.21470764160154,353.5333557128906,476.21470764160154L353.5325367328906,476.21470764160154Q352.1499857128906,476.21470764160154,350.7730257128906,476.33900764160154Q349.44232571289064,476.45900764160154,348.12707571289064,476.69420764160157Q346.81182571289065,476.92930764160155,345.52195571289064,477.2777076416016Q344.23208571289064,477.6262076416016,342.97735571289064,478.08530764160156Q341.72255571289065,478.54440764160154,340.51245571289064,479.11070764160155Q339.3022557128906,479.67700764160156,338.14585571289064,480.3463076416016Q336.9894557128906,481.0155076416016,335.89555571289065,481.78260764160154Q334.8015557128906,482.54980764160155,333.77835571289063,483.40900764160153Q332.75515571289066,484.2682076416016,331.81045571289064,485.21300764160156Q331.8019557128906,485.22150764160153,331.79345571289065,485.23000764160156Q331.67055571289063,485.3531076416016,331.5490557128906,485.47760764160154Q331.54035571289063,485.4865076416016,331.5316557128906,485.49540764160156Q331.01405571289064,486.0266076416016,330.52265571289064,486.58210764160157Q330.03125571289064,487.13770764160154,329.56725571289064,487.7163076416016Q329.10325571289064,488.29500764160156,328.66775571289065,488.89530764160156Q328.23215571289063,489.49570764160154,327.8261557128906,490.11640764160154Q327.42005571289064,490.73700764160156,327.0444557128906,491.37660764160154Q326.66875571289063,492.01610764160154,326.32445571289065,492.67300764160154Q325.9801557128906,493.3300076416016,325.6679557128906,494.0028076416016Q325.3556557128906,494.67550764160154,325.0762557128906,495.3626076416016Q324.79685571289065,496.0497076416016,324.55095571289064,496.7494076416016Q324.30505571289063,497.4491576416016,324.0932557128906,498.15996764160155Q323.88135571289064,498.8707576416016,323.70405571289064,499.59095764160156Q323.52675571289063,500.31114764160156,323.3843557128906,501.03906764160155Q323.24205571289065,501.76697764160156,323.13495571289064,502.50090764160154Q323.0279557128906,503.23484764160156,322.9564557128906,503.9730876416016Q322.88495571289064,504.7113376416016,322.84915571289065,505.4521676416016Q322.8133557128906,506.1930076416016,322.8133557128906,506.93470764160156L322.8133557128906,506.9355266216016Q322.8133557128906,508.3180776416016,322.9376557128906,509.6950376416016Q323.0576557128906,511.02573764160155,323.2928557128906,512.3409876416016Q323.5279557128906,513.6562376416016,323.87635571289064,514.9461076416015Q324.22485571289064,516.2359776416016,324.6839557128906,517.4907076416016Q325.1430557128906,518.7455076416015,325.7093557128906,519.9556076416015Q326.2756557128906,521.1658076416015,326.94495571289065,522.3222076416016Q327.61415571289064,523.4786076416016,328.3812557128906,524.5725076416015Q329.1484557128906,525.6665076416016,330.0076557128906,526.6897076416016Q330.86685571289064,527.7129076416015,331.8116557128906,528.6576076416015L331.8142557128906,528.6602076416016L373.4799557128906,570.3237076416016L331.8116557128906,611.9897076416016Q331.27835571289063,612.5227076416015,330.7718557128906,613.0817076416016Q330.2654557128906,613.6407076416016,329.78695571289063,614.2237076416015Q329.3085557128906,614.8067076416015,328.85935571289065,615.4117076416015Q328.41005571289065,616.0177076416015,327.9910557128906,616.6447076416016Q327.57205571289063,617.2717076416016,327.18435571289064,617.9187076416016Q326.79665571289064,618.5657076416015,326.44115571289063,619.2307076416016Q326.0856557128906,619.8957076416016,325.76315571289064,620.5777076416016Q325.4407557128906,621.2587076416015,325.1520557128906,621.9557076416015Q324.86345571289064,622.6527076416015,324.60935571289065,623.3627076416016Q324.3553557128906,624.0727076416016,324.13635571289063,624.7947076416016Q323.9174557128906,625.5157076416016,323.73415571289064,626.2477076416016Q323.55095571289064,626.9787076416015,323.40375571289064,627.7187076416016Q323.2566557128906,628.4587076416016,323.1459557128906,629.2047076416015Q323.0352557128906,629.9507076416015,322.9613557128906,630.7007076416015Q322.88745571289064,631.4517076416016,322.85035571289063,632.2047076416015Q322.8133557128906,632.9577076416016,322.8133557128906,633.7117076416016L322.8133557128906,633.7127076416016Q322.8133557128906,634.4507076416015,322.84875571289064,635.1877076416015Q322.8827557128906,635.8947076416016,322.94925571289065,636.5997076416015Q323.01585571289064,637.3047076416016,323.1147557128906,638.0057076416016Q323.2136557128906,638.7067076416015,323.34485571289065,639.4017076416015Q323.4759557128906,640.0977076416016,323.6389557128906,640.7867076416015Q323.8019557128906,641.4757076416015,323.99655571289065,642.1567076416015Q324.19115571289063,642.8377076416016,324.4169557128906,643.5087076416016Q324.64265571289064,644.1797076416016,324.89905571289063,644.8387076416016Q325.15555571289065,645.4987076416015,325.44205571289064,646.1467076416016Q325.7286557128906,646.7937076416016,326.04465571289063,647.4277076416015Q326.36075571289064,648.0607076416015,326.70565571289063,648.6787076416016Q327.0505557128906,649.2977076416016,327.42365571289065,649.8987076416015Q327.79665571289064,650.5007076416016,328.19705571289063,651.0847076416015Q328.59735571289065,651.6687076416016,329.02425571289064,652.2337076416015Q329.45105571289065,652.7987076416016,329.9034557128906,653.3427076416016Q330.3558557128906,653.8877076416015,330.83285571289065,654.4107076416016Q331.3098557128906,654.9337076416016,331.81045571289064,655.4347076416016Q332.3436557128906,655.9677076416016,332.9024557128906,656.4747076416015Q333.46125571289065,656.9807076416016,334.0442557128906,657.4587076416016Q334.6271557128906,657.9377076416015,335.2329557128906,658.3867076416016Q335.8386557128906,658.8357076416016,336.46575571289065,659.2547076416015Q337.0927557128906,659.6737076416016,337.7396557128906,660.0617076416015Q338.3864557128906,660.4497076416015,339.0515557128906,660.8047076416016Q339.7166557128906,661.1607076416016,340.3984557128906,661.4827076416016Q341.08015571289064,661.8057076416015,341.77695571289064,662.0937076416016Q342.4736557128906,662.3827076416015,343.1837557128906,662.6367076416016Q343.89382571289065,662.8907076416016,344.6155157128906,663.1097076416015Q345.3371957128906,663.3287076416016,346.0687557128906,663.5117076416016Q346.80030571289063,663.6957076416015,347.5399757128906,663.8427076416016Q348.2796457128906,663.9897076416016,349.0256357128906,664.1007076416015Q349.7716357128906,664.2107076416016,350.5221657128906,664.2847076416016Q351.27269571289065,664.3587076416015,352.02594571289063,664.3957076416016Q352.7791957128906,664.4327076416016,353.5333557128906,664.4327076416016Q354.32820271289063,664.4327076416016,355.1220457128906,664.3917076416016Q355.8255057128906,664.3547076416015,356.5265657128906,664.2867076416015Q357.22762571289064,664.2177076416016,357.92480571289065,664.1177076416016Q358.62198571289065,664.0167076416016,359.3138057128906,663.8837076416016Q360.00563571289064,663.7517076416016,360.6906657128906,663.5877076416016Q361.3756957128906,663.4237076416016,362.0524757128906,663.2277076416016Q362.7292557128906,663.0327076416015,363.39637571289063,662.8067076416016Q364.06345571289063,662.5807076416015,364.7195557128906,662.3237076416016Q365.3755557128906,662.0667076416016,366.0191557128906,661.7807076416016Q366.6627557128906,661.4947076416015,367.2926557128906,661.1787076416016Q367.9224557128906,660.8637076416015,368.5370557128906,660.5197076416016Q369.15175571289063,660.1757076416015,369.7500557128906,659.8037076416016Q370.3483557128906,659.4317076416016,370.9289557128906,659.0327076416015Q371.5094557128906,658.6337076416016,372.07115571289063,658.2087076416016Q372.6328557128906,657.7837076416015,373.17455571289065,657.3337076416016Q373.7161557128906,656.8827076416015,374.2365557128906,656.4087076416015Q374.7569557128906,655.9337076416016,375.2550557128906,655.4357076416015L438.6475557128906,592.0466076416016Q439.18075571289063,591.5134076416016,439.68725571289065,590.9546076416016Q440.19365571289063,590.3959076416015,440.6721557128906,589.8129076416016Q441.15055571289065,589.2300076416016,441.59985571289064,588.6243076416016Q442.0490557128906,588.0186076416015,442.46805571289065,587.3915076416016Q442.88705571289063,586.7645076416015,443.2747557128906,586.1177076416016Q443.6624557128906,585.4708076416016,444.0179557128906,584.8058076416015Q444.3735557128906,584.1407076416016,444.6959557128906,583.4590076416016Q445.0184557128906,582.7773076416015,445.30705571289064,582.0805076416016Q445.5956557128906,581.3838076416016,445.8497557128906,580.6738076416016Q446.10375571289063,579.9637076416016,446.3227557128906,579.2421076416016Q446.54165571289064,578.5204076416015,446.7249557128906,577.7889076416016Q446.9081557128906,577.0573076416016,447.0553557128906,576.3177076416016Q447.20245571289064,575.5781076416016,447.31315571289065,574.8321076416016Q447.4238557128906,574.0861076416015,447.49775571289064,573.3356076416015Q447.5716557128906,572.5851076416016,447.6087557128906,571.8319076416016Q447.6457557128906,571.0787076416016,447.6457557128906,570.3246076416016Q447.6457557128906,569.5704076416016,447.6087557128906,568.8172076416016Q447.5718557128906,568.0640076416016,447.49795571289064,567.3135076416015Q447.4240557128906,566.5630076416015,447.3133557128906,565.8170076416015Q447.2027557128906,565.0710076416016,447.0556557128906,564.3314076416016Q446.90855571289063,563.5917076416016,446.72535571289063,562.8602076416016Q446.54215571289063,562.1286076416015,446.3232557128906,561.4070076416016Q446.10435571289065,560.6853076416015,445.85025571289066,559.9753076416016Q445.59625571289064,559.2652076416016,445.3076557128906,558.5685076416015Q445.01905571289063,557.8717076416016,444.6966557128906,557.1900076416016Q444.37425571289066,556.5082076416015,444.01875571289065,555.8432076416016Q443.6633557128906,555.1781076416015,443.2756557128906,554.5312076416016Q442.88795571289063,553.8844076416016,442.46895571289065,553.2573076416015Q442.05005571289064,552.6303076416016,441.6008557128906,552.0245076416015Q441.1515557128906,551.4188076416016,440.6731557128906,550.8358076416016Q440.19475571289064,550.2528076416015,439.6883557128906,549.6941076416016Q439.1819557128906,549.1353076416016,438.6486557128906,548.6020076416015L375.2577557128906,485.21440764160155Z" fill-rule="evenodd" fill="#2CFFFF" fill-opacity="1"/></g></g></g></svg>