<svg xmlns="http://www.w3.org/2000/svg" viewBox="0 0 2250 1024">
<path d="M2079.44,914.36c-10,0-19-0.33-27-1c-17.33-1.33-34.33-2-51-2c-10.67,0-10.67-0.33-12-11l-16-182l-16-151
	l-11-93l-10-81l-18-126c-6-44.67-13.33-89.33-22-134c-1.33-6.67-1-7.67,7-9c31.33-6,63-9,95-9h11c5.33,0.67,8.33,4,9,10
	c1.33,23.33,2.67,46.33,4,69l28,373l14,171l9,98L2079.44,914.36z M853.44,115.36c4.67,0,10.67,0,18,0c9.33,0,11,2.67,11,12l8,121
	l18,251l11,131l8,101l16,174c0,8-1,9-9,9c-24-1.33-48-2.33-72-3c-5.33,0.67-8-1.67-8-7c-1.33-11.33-2.33-23-3-35
	c-3.33-30-6-60.33-8-91l-16-158l-17-143l-12-101l-13-92c-6-41.33-12.67-82.67-20-124l-5-28c-1.33-4.67,0.33-7.33,5-8
	C793.44,119.03,820.11,114.03,853.44,115.36z M1859.44,518.36c25.33,0,28,1,32,25c4.67,30,8.67,60,12,90l11,97l21,206
	c1.33,4.67-0.33,7-5,7l-78,9c-8,1.33-9.67,0-11-8l-45-230l-28-153l-4-21c-0.67-4,1-6.67,5-8
	C1800.11,525.03,1830.11,520.36,1859.44,518.36z M722.44,518.36c26.67-1.33,30.33,1.67,33,27c6.67,40.67,12,81.33,16,122l13,120
	l8,81l7,65c0,9.33-1,10.67-9,12l-74,7c-8,1.33-9.67,0-11-8l-61-314l-16-89c-1.33-4.67,0.67-7.67,6-9
	C665.11,525.03,694.44,520.36,722.44,518.36z M1104.44,828.36v124v4c0.67,6-2,8.67-8,8c-8,0-16,0-24,0c-17.33,0-34.33,0.67-51,2
	c-9.33,1.33-9.67,0.67-11-10l-16-180l-8-89l-12-136c-1.33-10.67,0.67-12.67,10-14c28-2.67,56-3.33,84-2c6.67,0.67,13.67,1.67,21,3
	c8,2.67,9,4,9,12c1.33,18,2.33,36,3,54l1,60C1103.78,719.03,1104.44,773.7,1104.44,828.36z M2239.44,834.36v117v6
	c0,5.33-2.33,7.67-7,7h-36c-14,0-27.67,0.67-41,2c-8,1.33-8.67,0.33-10-9l-21-234l-11-116l-4-59c-1.33-8,1-10,9-10
	c33.33-4,66.67-5,100-1c13.33,1.33,14.67,4.67,16,18c1.33,44.67,2.33,89,3,133C2238.78,735.03,2238.11,782.36,2239.44,834.36z
	 M1830.44,305.36c10,0,18.67,0.67,26,2c4.67,0.67,7.33,3.33,8,8l13,139c2.67,12,1,14-11,14l-34,2c-6.67,1.33-10,1.67-10-9
	c-4.67-37.33-9.33-75-14-113l-4-32c-1.33-6,1-9.33,7-10L1830.44,305.36z M697.44,305.36c8,0,15.67,0.67,23,2c4,0.67,6.33,3.33,7,8
	l4,35l10,109c1.33,8,1,9-7,9c-12.67,0.67-25.67,1.33-39,2c-8,1.33-8.67,0-10-8l-9-80c-2.67-22.67-5.33-45-8-67
	c-1.33-5.33,0.67-8,6-8C681.78,306.03,689.44,305.36,697.44,305.36z M1096.44,405.36c0,23.33,0,46.33,0,69c1.33,10.67-0.67,11-10,11
	c-12.67,0-25-0.67-37-2c-8-1.33-9.33-1-8-9l-3-85c0-18.67-0.33-37.67-1-57c-1.33-9.33-0.33-10,9-10c14,0,28,1,42,3c8,0,8,2,8,10
	V405.36z M2232.44,406.36c0,22.67,0,45.67,0,69c0,9.33-0.67,10-10,10c-12.67-0.67-25.33-1.33-38-2c-6-0.67-8.67-3.67-8-9l-3-143
	c0-8,1-9,9-9c12.67,0,25,0.67,37,2c14.67,1.33,13,4.33,13,15V406.36z M666.44,460.36c1.33,12,0,13.67-12,15l-24,6
	c-8,2.67-8.67,0.67-10-6l-25-141c-2.67-9.33-1.33-10.67,8-12l35-6c8-1.33,10-1,10,7c3.33,17.33,6,34.33,8,51l10,80V460.36z
	 M1730.44,323.36c15.33-2.67,31-5,47-7c4.67-0.67,7.33,1.67,8,7c2.67,18.67,5.33,37,8,55c4,26.67,6.67,53.67,8,81v8
	c0.67,4-1,6.67-5,8l-32,7c-4.67,0.67-7.33-1.33-8-6l-26-149V323.36z M1020.44,431.36c0,16-0.67,31-2,45c0,4.67-2.33,7.33-7,8l-31,3
	c-4.67,0.67-7-1.67-7-7c-2-14.67-3.33-29.33-4-44c-2-27.33-3.67-55-5-83l-2-20c-0.67-4,1-6,5-6c13.33-1.33,27-2.33,41-3
	c6.67,0,9,1,9,9L1020.44,431.36z M2154.44,415.36c0.67,19.33,0.67,38.67,0,58c1.33,9.33-0.67,11-10,11l-28,3c-5.33,0.67-8-1.67-8-7
	c-1.33-25.33-3-50.67-5-76l-4-70c-0.67-4.67,1-7,5-7c13.33-1.33,26.67-2.33,40-3c6.67,0,8,1,8,9
	C2154.44,360.7,2155.11,388.03,2154.44,415.36z M627.44,756.36c16,18.67,18.67,40.33,12,63c-6,22-17,41-33,57
	c-26,27.33-55.67,49.33-89,66c-56.67,30-116.33,50.67-179,62c-44.67,9.33-89.67,15.33-135,18c-14,0.67-28,1-42,1h-30
	c-8,0-9.67-2-11-10l-7-97l-19-191l-21-182l-12-97l-13-93c-7.33-51.33-15.67-102.33-25-153c-6.67-41.33-14.33-82.33-23-123
	c-1.33-5.33,0.33-8.67,5-10l139-58c8.67-4,17.33-7,26-9c6-1.33,8.67,1,8,7c0,16-0.33,32.33-1,49l-1,13c-1.33,58-1.33,116.33,0,175
	c1.33,51.33,3.67,102.67,7,154c5.33,80,13,160.33,21,239c0,8,0.67,8.33,10,7c16.67-2.67,33.33-4,50-4c53.33,0,105.67,6.33,157,19
	c44.67,10.67,88.33,25.67,131,45c20.67,10,40,22,58,36C617.11,745.03,622.78,750.36,627.44,756.36z M1754.44,747.36
	c20.67,17.33,28,39.67,22,67c-5.33,22-15.33,41.33-30,58c-24,26.67-51.67,48.33-83,65c-60,33.33-124,56-192,68
	c-36.67,7.33-73.67,12.67-111,16c-21.33,2-43.67,2.67-67,2h-27c-6,0.67-9-2-9-8c-2-28-4.33-56-7-84l-16-171l-17-149l-21-168
	c-3.33-29.33-7.33-58.67-12-88l-18-112c-8-53.33-17.67-106.33-29-159l-1-7c-2-5.33-0.33-8.67,5-10c49.33-20,96.67-42.33,146-61
	c13.33-5.33,29.33-11,28,1c-4,37.33-2.67,74-4,110c-1.33,30-1,59.67,1,89c0,8,0,15.67,0,23c0,36,1.33,71.67,4,107
	c2,47.33,5,94.67,9,142c2.67,34,5.67,67.67,9,101c1.33,18.67,3.33,37.33,6,56c0,10.67,1.67,10.33,11,9c18-2.67,36-4,54-4
	c62.67,1.33,124,10.67,184,28c40.67,10.67,80,26,118,46C1724.11,723.7,1739.78,734.7,1754.44,747.36z M308.44,923.36
	c15.33-8.67,41-27.17,77-55.5s58.33-47.5,67-57.5c-54-24-110-45.33-168-64L308.44,923.36z M1585.44,815.36c2.67-2.67,2.33-5-1-7
	l-24-10c-42-18-84.33-34-127-48l-6-2c-2-0.67-4.33-0.33-7,1l24,173c2.67,0,4.67-0.67,6-2c39.33-28,78.33-57.33,117-88
	C1573.44,827.03,1579.44,821.36,1585.44,815.36z" fill="#FB7299"/>
</svg>
