<svg xmlns="http://www.w3.org/2000/svg" viewBox="0 0 1024 1024">
<path d="M472,244h119c47.06,0,47.06-65,0-65H281c-45.49,0-45.49,65,0,65h125v60c-112,8-192,93-196,205v44
	c3.12,40.52,62.97,42.37,66,0v-44c1.33-74.67,55.33-133.33,130-140v305c2.98,41.69,63.02,41.69,66,0V369
	c74.67,6.67,128.67,65.33,130,140v44c0,41.73,65,41.73,65,0v-44c-2.67-112-82.67-197-196-205v-60H472z M439,878
	c-124-3.33-227.33-46.33-310-129S3.33,563,0,439c3.33-124,46.33-227.33,129-310S315,3.33,439,0c124,3.33,227.33,46.33,310,129
	s125.67,186,129,310c-3.33,124-46.33,227.33-129,310S563,874.67,439,878z" fill="#FB7299"/>
</svg>
