<svg xmlns="http://www.w3.org/2000/svg" viewBox="0 0 1024 1024">
	<path fill="#F3A034" d="M646.6,837.1c-50.8,0-119.6-23.4-204.4-69.5l-0.2-0.1l-0.2,0.1c-84.7,45.8-153.4,69.1-204.2,69.1
		c-36,0-63.8-11.7-82.8-34.6c-17.8-21.5-28.2-53.6-31.1-95.4c-2.9-41.8,1.7-94.5,13.8-156.5l0.1-0.3l-0.2-0.2
		c-53.4-49.2-91.6-94.1-113.6-133.2c-21.9-39.1-28.3-73.6-19-102.7c9.4-29.2,35-53.7,76.1-72.8c41.2-19.1,99.1-33.4,172.1-42.4
		l0.3,0l0.1-0.2c31.3-65.6,63.1-115.6,94.4-148.4C379,17.1,410.7,0.5,441.9,0.5c31.2,0,62.9,16.6,94.1,49.3
		c31.3,32.8,63.1,82.7,94.4,148.4l0.1,0.2l0.3,0c73.2,9,131.2,23.3,172.5,42.4c41.2,19.1,66.9,43.6,76.2,72.9
		c9.3,29,2.9,63.6-19.1,102.6c-22.1,39.2-60.4,84-113.9,133.2l-0.2,0.2l0.1,0.3c12,62.2,16.7,115,13.8,156.9
		c-2.9,41.8-13.4,74-31.2,95.5C710.1,825.4,682.4,837.1,646.6,837.1z"/>
</svg>