<svg xmlns="http://www.w3.org/2000/svg" viewBox="0 0 1024 1024" width="100%" height="100%"><path d="M128 256m25.6 0l716.8 0q25.6 0 25.6 25.6l0 512q0 25.6-25.6 25.6l-716.8 0q-25.6 0-25.6-25.6l0-512q0-25.6 25.6-25.6Z" fill="#3DA9D3"></path><path d="M153.6 256h153.6v563.2H153.6a25.6 25.6 0 0 1-25.6-25.6V281.6a25.6 25.6 0 0 1 25.6-25.6zM870.4 256h-153.6v563.2h153.6a25.6 25.6 0 0 0 25.6-25.6V281.6a25.6 25.6 0 0 0-25.6-25.6z" fill="#7DD3E0"></path><path d="M768 320m15.36 0l46.08 0q15.36 0 15.36 15.36l0 20.48q0 15.36-15.36 15.36l-46.08 0q-15.36 0-15.36-15.36l0-20.48q0-15.36 15.36-15.36Z" fill="#3DA9D3"></path><path d="M768 448m15.36 0l46.08 0q15.36 0 15.36 15.36l0 20.48q0 15.36-15.36 15.36l-46.08 0q-15.36 0-15.36-15.36l0-20.48q0-15.36 15.36-15.36Z" fill="#3DA9D3"></path><path d="M768 576m15.36 0l46.08 0q15.36 0 15.36 15.36l0 20.48q0 15.36-15.36 15.36l-46.08 0q-15.36 0-15.36-15.36l0-20.48q0-15.36 15.36-15.36Z" fill="#3DA9D3"></path><path d="M768 704m15.36 0l46.08 0q15.36 0 15.36 15.36l0 20.48q0 15.36-15.36 15.36l-46.08 0q-15.36 0-15.36-15.36l0-20.48q0-15.36 15.36-15.36Z" fill="#3DA9D3"></path><path d="M576 180.736c8.7808-2.6112 15.8976-1.92 21.3504 2.0736 5.4784 3.9936 11.008 9.8304 16.64 17.4592 5.6064 7.6544 12.544 16.256 20.7616 25.856 8.2432 9.5744 19.456 18.5088 33.6896 26.7776 12.2368 7.68 22.9632 12.9536 32.2048 15.7696l25.9584 7.8592c8.2176 2.432 16.128 5.5296 23.6544 9.2672 0 0 17.7408 9.984 25.5232 20.48 8.1152 10.9056 14.8736 19.6608 16.6144 30.976 1.7152 11.3408 1.6128 21.9136-0.4608 31.6928a72.7296 72.7296 0 0 1-9.5744 24.576c-4.2752 6.5792-7.8592 9.9328-10.752 9.9328-2.8672 0.0256-5.4016-1.6128-7.6032-5.0432-2.2272-3.3792-3.84-9.984-4.864-19.7632-1.6896-15.872-6.656-27.0336-14.976-33.4592-8.32-6.4256-21.3504-9.984-39.1424-10.7264a96.0512 96.0512 0 0 1-48.9216-15.616c-12.3648-8.0384-24.064-16.9984-34.9696-26.8032-8.8832-7.3728-15.7952-9.5488-20.8896-6.2976-4.992 3.2256-7.5776 8.1152-7.7312 14.7456l-0.5632 26.752-6.7072 273.792-0.7936 35.4048c0.1536 9.856-1.664 21.1968-5.4272 33.9968-3.7888 12.8-10.6752 25.2928-20.6592 37.4528-9.9328 12.16-23.0912 23.2192-39.4752 33.2288s-36.5824 17.3568-60.5952 22.0672c-24.448 4.7616-46.4128 3.584-65.8944-3.5072-19.456-7.0912-34.3808-17.4336-44.7744-31.0272-10.24-12.928-15.4368-29.5936-14.7712-47.5136 0.6912-18.048 8.8576-36.0448 24.4736-53.9648 15.616-17.92 32.4352-31.2832 50.432-40.1152a198.8096 198.8096 0 0 1 51.8144-17.7152 178.8416 178.8416 0 0 1 44.3136-3.0208c13.0048 1.0496 22.5792 2.3808 28.7488 3.9424 0 0 6.4512-280.1664 8.2944-341.6064 0.2304-12.1088 3.584-22.3232 9.9328-30.976 6.4-8.5504 14.7712-14.208 25.1392-16.9472z m160.9216 288.1792a12.8 12.8 0 0 1 0.3584 2.9696v40.96l41.728-6.912a12.8 12.8 0 0 1 14.8992 12.5952v15.0016a12.8 12.8 0 0 1-10.7008 12.6464l-45.952 7.6288 0.0256 45.3632a12.8 12.8 0 0 1-9.8304 12.4416l-15.36 3.6608a12.8 12.8 0 0 1-15.7696-12.4416V560.64l-41.1136 6.8608a12.8 12.8 0 0 1-14.8992-12.6208v-15.0016a12.8 12.8 0 0 1 10.7008-12.6464l45.312-7.552v-44.1344a12.8 12.8 0 0 1 9.8304-12.4672l15.36-3.6352a12.8 12.8 0 0 1 15.4112 9.472z" fill="#FFD469"></path><path d="M179.2 320m15.36 0l46.08 0q15.36 0 15.36 15.36l0 20.48q0 15.36-15.36 15.36l-46.08 0q-15.36 0-15.36-15.36l0-20.48q0-15.36 15.36-15.36Z" fill="#3DA9D3"></path><path d="M179.2 448m15.36 0l46.08 0q15.36 0 15.36 15.36l0 20.48q0 15.36-15.36 15.36l-46.08 0q-15.36 0-15.36-15.36l0-20.48q0-15.36 15.36-15.36Z" fill="#3DA9D3"></path><path d="M179.2 576m15.36 0l46.08 0q15.36 0 15.36 15.36l0 20.48q0 15.36-15.36 15.36l-46.08 0q-15.36 0-15.36-15.36l0-20.48q0-15.36 15.36-15.36Z" fill="#3DA9D3"></path><path d="M179.2 704m15.36 0l46.08 0q15.36 0 15.36 15.36l0 20.48q0 15.36-15.36 15.36l-46.08 0q-15.36 0-15.36-15.36l0-20.48q0-15.36 15.36-15.36Z" fill="#3DA9D3"></path></svg>