<svg xmlns="http://www.w3.org/2000/svg" viewBox="0 0 1024 1024" width="100%" height="100%"><path d="M215.04 153.6h593.92c33.93024 0 61.44 27.50976 61.44 61.44v643.3792a30.72 30.72 0 0 1-45.96224 26.6752L512 706.56l-312.43776 178.5344A30.72 30.72 0 0 1 153.6 858.4192V215.04c0-33.93024 27.50976-61.44 61.44-61.44z" fill="#9696ED"></path><path d="M512 555.392l-90.05056 46.60736a19.27168 19.27168 0 0 1-27.84256-20.41856l17.12128-98.2784-72.2432-69.32992a19.27168 19.27168 0 0 1 10.61376-32.98304l100.1216-14.32064 45.05088-89.8816a19.27168 19.27168 0 0 1 34.4576 0l45.05088 89.8816 100.11648 14.32064a19.27168 19.27168 0 0 1 10.61888 32.98304l-72.2432 69.32992 17.12128 98.2784a19.27168 19.27168 0 0 1-27.84768 20.41856L512 555.392z" fill="#FFD778"></path></svg>