<svg xmlns="http://www.w3.org/2000/svg" viewBox="0 0 1024 1024" width="100%" height="100%">
    <path
        d="M517.376 465.152a144.924444 144.924444 0 0 1 137.528889 99.214222c1.28 3.925333 2.275556 7.850667 2.901333 11.804445a132.266667 132.266667 0 0 1-14.279111 263.765333h-263.054222a132.266667 132.266667 0 0 1-14.250667-263.793778c0.625778-3.982222 1.592889-7.907556 2.872889-11.776a144.924444 144.924444 0 0 1 137.528889-99.214222h10.752zM420.693333 418.104889c50.261333-3.783111 85.617778-59.164444 79.047111-123.733333-6.599111-64.568889-52.650667-113.891556-102.912-110.108445-50.232889 3.754667-85.617778 59.164444-79.018666 123.733333 6.599111 64.568889 52.650667 113.863111 102.912 110.08zM603.306667 418.104889c50.232889 3.754667 96.284444-45.511111 102.883555-110.108445 6.599111-64.568889-28.785778-119.978667-79.018666-123.733333-50.261333-3.783111-96.312889 45.511111-102.912 110.08-6.599111 64.568889 28.785778 119.978667 79.018666 123.733333zM717.425778 551.139556c39.082667 21.816889 96.910222-4.266667 129.137778-58.225778 32.256-53.959111 26.709333-115.370667-12.373334-137.187556-39.111111-21.816889-96.938667 4.266667-129.166222 58.225778-32.256 53.959111-26.709333 115.370667 12.401778 137.187556zM306.574222 551.139556c39.111111-21.816889 44.657778-83.228444 12.401778-137.187556-32.227556-53.959111-90.055111-80.042667-129.137778-58.225778-39.111111 21.816889-44.657778 83.228444-12.430222 137.187556 32.256 53.959111 90.083556 80.042667 129.166222 58.225778z"
        fill="#FB7299"></path>
    <path
        d="M621.511111 113.777778c76.231111-0.938667 138.467556 74.012444 149.504 173.340444 37.745778-13.312 75.861333-12.913778 107.292445 4.323556 70.712889 38.769778 80.753778 147.968 22.442666 243.911111a272.327111 272.327111 0 0 1-71.111111 78.336c9.159111 22.869333 14.222222 47.843556 14.222222 73.984V711.111111a199.111111 199.111111 0 0 1-199.111111 199.111111h-265.500444a199.111111 199.111111 0 0 1-199.111111-199.111111v-23.438222c0-26.168889 5.063111-51.114667 14.222222-74.012445a272.099556 272.099556 0 0 1-71.111111-78.307555c-58.311111-95.943111-48.270222-205.141333 22.442666-243.911111 31.431111-17.237333 69.546667-17.635556 107.320889-4.352C264.021333 187.790222 326.257778 112.839111 402.488889 113.777778c42.410667 0.540444 81.152 24.462222 109.511111 62.776889 28.359111-38.286222 67.100444-62.236444 109.511111-62.776889z"
        fill="#FFD7E7"></path>
    <path
        d="M512 465.152a141.198222 141.198222 0 0 1 134.741333 98.958222l0.085334 0.256c1.905778 6.087111 3.015111 12.231111 3.356444 18.289778a132.266667 132.266667 0 0 1-9.728 264.163556h-256.910222a132.266667 132.266667 0 0 1-9.671111-264.192l-0.199111 4.579555c0-7.736889 1.194667-15.445333 3.498666-22.840889l0.085334-0.284444A141.198222 141.198222 0 0 1 512 465.180444zM420.693333 418.104889c50.261333-3.783111 85.617778-59.164444 79.047111-123.733333-6.599111-64.568889-52.650667-113.891556-102.912-110.108445-50.232889 3.754667-85.617778 59.164444-79.018666 123.733333 6.599111 64.568889 52.650667 113.863111 102.912 110.08zM603.306667 418.104889c50.232889 3.754667 96.284444-45.511111 102.883555-110.108445 6.599111-64.568889-28.785778-119.978667-79.018666-123.733333-50.261333-3.783111-96.312889 45.511111-102.912 110.08-6.599111 64.568889 28.785778 119.978667 79.018666 123.733333zM717.425778 551.139556c39.082667 21.816889 96.910222-4.266667 129.137778-58.225778 32.256-53.959111 26.709333-115.370667-12.373334-137.187556-39.111111-21.816889-96.938667 4.266667-129.166222 58.225778-32.256 53.959111-26.709333 115.370667 12.401778 137.187556zM306.574222 551.139556c39.111111-21.816889 44.657778-83.228444 12.401778-137.187556-32.227556-53.959111-90.055111-80.042667-129.137778-58.225778-39.111111 21.816889-44.657778 83.228444-12.430222 137.187556 32.256 53.959111 90.083556 80.042667 129.166222 58.225778z"
        fill="#FB7299"></path>
</svg>