<svg xmlns="http://www.w3.org/2000/svg" viewBox="0 0 24 24" width="100%" height="100%">
    <path
        d="M21.24202 9.24032C21.31075 9.46754 21.28675 9.71272 21.1753 9.92231C21.06374 10.13194 20.87386 10.2888 20.64701 10.35888L20.0521 10.53139C19.93997 10.56576 19.82218 10.57776 19.70544 10.56653C19.5887 10.55539 19.47533 10.52141 19.37174 10.4664C19.26816 10.41149 19.17638 10.33661 19.1017 10.24618C19.02701 10.15574 18.97094 10.05152 18.93658 9.9394C18.90221 9.82728 18.89021 9.70949 18.90134 9.59275C18.91248 9.47601 18.94656 9.36261 19.00147 9.25902C19.05648 9.15543 19.13126 9.06369 19.2217 8.98902C19.31213 8.91435 19.41638 8.85823 19.52851 8.82385L20.12352 8.65131C20.23555 8.61552 20.35363 8.6024 20.47085 8.61272C20.58806 8.62304 20.70211 8.65659 20.80618 8.71141C20.91034 8.76624 21.0025 8.84124 21.07728 8.93204C21.15206 9.02286 21.20813 9.12765 21.24202 9.24032zM5.17807 9.93642C5.10935 10.16285 4.95356 10.35264 4.74493 10.46419C4.53631 10.57574 4.29192 10.59994 4.06548 10.53139L3.47052 10.35888C3.2437 10.2888 3.0538 10.13194 2.94231 9.92231C2.83084 9.71272 2.80684 9.46754 2.87556 9.24032C2.9089 9.12779 2.96424 9.02298 3.03839 8.932C3.11254 8.84102 3.20402 8.76568 3.30752 8.71033C3.41101 8.65499 3.52448 8.62074 3.64131 8.60959C3.75815 8.59843 3.87604 8.6106 3.98814 8.64536L4.5831 8.8179C4.69586 8.85188 4.80079 8.90785 4.89181 8.98257C4.98284 9.05729 5.05818 9.1493 5.11349 9.25328C5.16879 9.35725 5.20298 9.47115 5.21406 9.58839C5.22515 9.70564 5.21291 9.82393 5.17807 9.93642z"
        fill="#00B9E7ff"></path>
    <path
        d="M6.97476 4.78406C8.65316 4.44467 10.36118 4.27327 12.07354 4.27239C13.82131 4.27461 15.56477 4.44596 17.27952 4.78406C17.47834 4.82236 17.6641 4.91076 17.81923 5.04089C17.97437 5.17104 18.0937 5.33861 18.16598 5.52776L20.34038 11.24707C20.38176 11.35603 20.40307 11.47171 20.40307 11.58826L20.40307 16.76659C20.40307 16.92442 20.34038 17.07571 20.22874 17.18726C20.11718 17.29882 19.96589 17.3615 19.80806 17.3615L4.33908 17.3615C4.18129 17.3615 4.02996 17.29882 3.91837 17.18726C3.8068 17.07571 3.74412 16.92442 3.74412 16.76659L3.74412 11.59834C3.74412 11.47526 3.76781 11.35325 3.8139 11.23901L6.12396 5.51586C6.19464 5.33331 6.30926 5.17102 6.45767 5.04336C6.60609 4.91571 6.7837 4.82665 6.97476 4.78406z"
        fill="#00B9E7ff"></path>
    <path
        d="M5.529 12.00691L7.90884 12.00691C8.30549 12.00691 8.5038 12.20515 8.5038 12.60182L8.5038 13.19683C8.5038 13.59341 8.30549 13.79174 7.90884 13.79174L5.529 13.79174C5.13236 13.79174 4.93404 13.59341 4.93404 13.19683L4.93404 12.60182C4.93404 12.20515 5.13236 12.00691 5.529 12.00691z"
        fill="#FDDE80ff"></path>
    <path
        d="M16.2383 12.00691L18.61814 12.00691C19.01482 12.00691 19.21315 12.20515 19.21315 12.60182L19.21315 13.19683C19.21315 13.59341 19.01482 13.79174 18.61814 13.79174L16.2383 13.79174C15.84173 13.79174 15.64339 13.59341 15.64339 13.19683L15.64339 12.60182C15.64339 12.20515 15.84173 12.00691 16.2383 12.00691z"
        fill="#FDDE80ff"></path>
    <path
        d="M7.79001 6.40233C9.11029 6.17235 10.44797 6.05689 11.78813 6.05724C13.31962 6.07062 14.84832 6.1899 16.36339 6.41422C16.47677 6.43024 16.58304 6.47862 16.66954 6.55355C16.75613 6.62846 16.8192 6.72677 16.85126 6.83665L17.77344 9.96614C17.79533 10.04115 17.80224 10.11974 17.7937 10.19741C17.78525 10.27507 17.76154 10.35034 17.724 10.41878C17.68637 10.48733 17.63568 10.54771 17.57482 10.59667C17.51386 10.64554 17.44387 10.68202 17.3689 10.7039C17.29622 10.7185 17.22144 10.7185 17.14877 10.7039C15.20918 10.51747 13.42426 10.42426 11.79408 10.42426C10.20394 10.4255 8.61508 10.51286 7.0344 10.68605C6.95666 10.6943 6.87804 10.6871 6.80307 10.66502C6.72808 10.64285 6.6582 10.60608 6.59743 10.55693C6.53665 10.50778 6.48615 10.4471 6.44884 10.37837C6.41152 10.30963 6.38811 10.23427 6.37995 10.15651C6.36471 10.07993 6.36471 10.00109 6.37995 9.9245L7.31404 6.81879C7.3462 6.71165 7.40791 6.61574 7.4921 6.54207C7.57629 6.46841 7.67954 6.41997 7.79001 6.40233z"
        fill="#59E1F9ff"></path>
    <path
        d="M3.74414 15.65299C3.74414 14.85763 4.38885 14.21299 5.18414 14.21299L5.28938 14.21299C6.08466 14.21299 6.72938 14.85763 6.72938 15.65299L6.72938 17.70653C6.72938 18.50189 6.08466 19.14653 5.28938 19.14653L5.18414 19.14653C4.38885 19.14653 3.74414 18.50189 3.74414 17.70653L3.74414 15.65299z"
        fill="#00B9E7ff"></path>
    <path
        d="M17.42822 15.65299C17.42822 14.85763 18.07296 14.21299 18.86822 14.21299L18.97344 14.21299C19.7688 14.21299 20.41344 14.85763 20.41344 15.65299L20.41344 17.70653C20.41344 18.50189 19.7688 19.14653 18.97344 19.14653L18.86822 19.14653C18.07296 19.14653 17.42822 18.50189 17.42822 17.70653L17.42822 15.65299z"
        fill="#00B9E7ff"></path>
</svg>