<svg xmlns="http://www.w3.org/2000/svg" viewBox="0 0 24 24" width="100%" height="100%">
    <path
        d="M5.16093 18.89558L18.83645 18.89558C19.63171 18.89558 20.27645 18.25085 20.27645 17.45558L20.27645 6.34031C20.27645 5.54503 19.63171 4.90031 18.83645 4.90031L5.16094 4.90031C4.36565 4.90031 3.72094 5.54503 3.72094 6.34031L3.72094 17.45558C3.72094 18.25085 4.36565 18.89558 5.16093 18.89558z"
        fill="#9796EDff"></path>
    <path
        d="M5.49187 7.15125C5.49187 7.54889 5.81423 7.87125 6.21187 7.87125L7.53881 7.87125C7.93645 7.87125 8.25881 7.54889 8.25881 7.15125C8.25881 6.75361 7.93645 6.43125 7.53881 6.43125L6.21187 6.43125C5.81423 6.43125 5.49187 6.75361 5.49187 7.15125z"
        fill="#6D69E4ff"></path>
    <path
        d="M10.6897 7.15125C10.6897 7.54889 11.01206 7.87125 11.4097 7.87125L12.73661 7.87125C13.13424 7.87125 13.45661 7.54889 13.45661 7.15125C13.45661 6.75361 13.13424 6.43125 12.73661 6.43125L11.4097 6.43125C11.01206 6.43125 10.6897 6.75361 10.6897 7.15125z"
        fill="#6D69E4ff"></path>
    <path
        d="M15.88733 7.15125C15.88733 7.54889 16.2097 7.87125 16.60733 7.87125L17.93424 7.87125C18.33187 7.87125 18.65424 7.54889 18.65424 7.15125C18.65424 6.75361 18.33187 6.43125 17.93424 6.43125L16.60733 6.43125C16.2097 6.43125 15.88733 6.75361 15.88733 7.15125z"
        fill="#6D69E4ff"></path>
    <path
        d="M5.49187 17.14742C5.49187 17.54515 5.81423 17.86742 6.21187 17.86742L7.53881 17.86742C7.93645 17.86742 8.25881 17.54515 8.25881 17.14742C8.25881 16.74979 7.93645 16.42742 7.53881 16.42742L6.21187 16.42742C5.81423 16.42742 5.49187 16.74979 5.49187 17.14742z"
        fill="#6D69E4ff"></path>
    <path
        d="M10.6897 17.14742C10.6897 17.54515 11.01206 17.86742 11.4097 17.86742L12.73661 17.86742C13.13424 17.86742 13.45661 17.54515 13.45661 17.14742C13.45661 16.74979 13.13424 16.42742 12.73661 16.42742L11.4097 16.42742C11.01206 16.42742 10.6897 16.74979 10.6897 17.14742z"
        fill="#6D69E4ff"></path>
    <path
        d="M15.88733 17.14742C15.88733 17.54515 16.2097 17.86742 16.60733 17.86742L17.93424 17.86742C18.33187 17.86742 18.65424 17.54515 18.65424 17.14742C18.65424 16.74979 18.33187 16.42742 17.93424 16.42742L16.60733 16.42742C16.2097 16.42742 15.88733 16.74979 15.88733 17.14742z"
        fill="#6D69E4ff"></path>
    <path
        d="M3.72094 14.9591L20.27645 14.9591L20.27645 8.83594L3.72094 8.83594L3.72094 14.9591z"
        fill="#6D69E4ff"></path>
    <path
        d="M9.8783 12.948C9.91536 12.84787 9.93389 12.79776 9.95213 12.77434C10.02883 12.67565 10.17802 12.67565 10.25482 12.77434C10.27296 12.79776 10.29149 12.84787 10.32854 12.948C10.53485 13.50557 10.97443 13.94515 11.532 14.15146C11.63222 14.18851 11.68224 14.20704 11.70566 14.22528C11.80435 14.30198 11.80435 14.45117 11.70566 14.52787C11.68224 14.54611 11.63222 14.56464 11.532 14.6017C10.97443 14.808 10.53485 15.24758 10.32854 15.80515C10.29149 15.90528 10.27296 15.95539 10.25482 15.97882C10.17802 16.0775 10.02883 16.0775 9.95213 15.97882C9.93389 15.95539 9.91536 15.90528 9.8783 15.80515C9.672 15.24758 9.23242 14.808 8.67487 14.6017C8.5747 14.56464 8.52462 14.54611 8.50123 14.52787C8.40254 14.45117 8.40254 14.30198 8.50123 14.22528C8.52462 14.20704 8.5747 14.18851 8.67487 14.15146C9.23242 13.94515 9.672 13.50557 9.8783 12.948z"
        fill="#FDDE80ff"></path>
    <path
        d="M13.42128 6.99748C13.50605 6.76846 13.54838 6.65394 13.58995 6.60048C13.76544 6.37484 14.10653 6.37484 14.28202 6.60048C14.32358 6.65394 14.36592 6.76846 14.45069 6.99748C14.92234 8.27225 15.92746 9.27733 17.20224 9.74909C17.4313 9.83376 17.54573 9.87619 17.5992 9.91776C17.8249 10.09325 17.8249 10.43424 17.5992 10.60973C17.54573 10.6513 17.4313 10.69373 17.20224 10.7785C15.92746 11.25014 14.92234 12.25526 14.45069 13.53005C14.36592 13.75901 14.32358 13.87354 14.28202 13.92701C14.10653 14.1527 13.76544 14.1527 13.58995 13.92701C13.54838 13.87354 13.50605 13.75901 13.42128 13.53005C12.94954 12.25526 11.94451 11.25014 10.66973 10.7785C10.44067 10.69373 10.32614 10.6513 10.27267 10.60973C10.04707 10.43424 10.04707 10.09325 10.27267 9.91776C10.32614 9.87619 10.44067 9.83376 10.66973 9.74909C11.94451 9.27733 12.94954 8.27225 13.42128 6.99748z"
        fill="#FDDE80ff"></path>
</svg>