<svg xmlns="http://www.w3.org/2000/svg" viewBox="0 0 1024 1024" width="100%" height="100%">
    <path
        d="M147.2 201.728m79.616 0l571.136 0q79.616 0 79.616 79.616l0 458.24q0 79.616-79.616 79.616l-571.136 0q-79.616 0-79.616-79.616l0-458.24q0-79.616 79.616-79.616Z"
        fill="#9796ED"></path>
    <path
        d="M222.976 269.312h77.056v57.856H222.976zM390.144 269.312h77.056v57.856h-77.056zM557.312 269.312h77.056v57.856h-77.056zM724.48 269.312h77.056v57.856H724.48zM222.976 693.76h77.056v57.856H222.976zM390.144 693.76h77.056v57.856h-77.056zM557.312 693.76h77.056v57.856h-77.056zM147.2 375.296h730.368v270.08H147.2z"
        fill="#7B78EA"></path>
    <path
        d="M521.369822 529.707066m23.351494-23.351495l2.534271-2.53427q23.351494-23.351494 46.702989 0l199.664327 199.664327q23.351494 23.351494 0 46.702989l-2.534271 2.534271q-23.351494 23.351494-46.702988 0l-199.664328-199.664328q-23.351494-23.351494 0-46.702989Z"
        fill="#FFD043"></path>
    <path
        d="M708.352 418.816h-25.6v-24.32a13.568 13.568 0 0 0-13.568-13.568H665.6a13.312 13.312 0 0 0-13.312 13.568v24.32h-25.6a13.568 13.568 0 0 0-13.568 13.568v5.632a13.568 13.568 0 0 0 13.568 13.568h25.6v24.32a13.312 13.312 0 0 0 13.312 13.568h5.632a13.568 13.568 0 0 0 13.568-13.568v-24.32h25.6a13.312 13.312 0 0 0 13.312-13.568v-5.632a13.312 13.312 0 0 0-15.36-13.568zM517.888 418.816h-25.6v-24.32a13.312 13.312 0 0 0-13.312-13.568h-5.632a13.568 13.568 0 0 0-13.568 13.568v24.32H435.2a13.312 13.312 0 0 0-13.312 13.568v5.632a13.312 13.312 0 0 0 13.312 13.568h25.6v24.32a13.568 13.568 0 0 0 13.568 13.568h5.632a13.312 13.312 0 0 0 13.312-13.568v-24.32h25.6a13.312 13.312 0 0 0 13.312-13.568v-5.632a13.312 13.312 0 0 0-14.336-13.568zM493.568 572.16h-18.432v-18.432a10.24 10.24 0 0 0-10.24-10.24H460.8a10.24 10.24 0 0 0-10.24 10.24v18.432h-18.432a10.24 10.24 0 0 0-10.24 10.24v4.352a10.24 10.24 0 0 0 10.24 10.24h18.432V614.4a10.24 10.24 0 0 0 10.24 10.24h4.352a10.24 10.24 0 0 0 10.24-10.24v-18.432h18.432a10.24 10.24 0 0 0 10.24-10.24v-4.352a10.24 10.24 0 0 0-10.496-9.216z"
        fill="#FFD778"></path>
</svg>