<svg xmlns="http://www.w3.org/2000/svg" viewBox="0 0 960 823">
<path fill="#1497C7" d="M892,329c-2-74-28.8-135.8-80.5-185.5C759.8,93.8,695,68,617,66H343c-78,2-142.8,27.8-194.5,77.5
	S70.3,255,69,329c1.3,74.7,27.8,136.8,79.5,186.5S265,591,343,593h79l32,107l117-107h46c78-2,142.8-27.8,194.5-77.5
	C863.2,465.8,890,403.7,892,329z M343,0h274c96.7,2.7,177.3,35,242,97s98.3,139.3,101,232c-2.7,93.3-36.3,171-101,233
	s-145.3,94.3-242,97h-19L419,823l-49-164h-27c-96.7-2.7-177.3-35-242-97S2.7,422.3,0,329c2.7-92.7,36.3-170,101-232S246.3,2.7,343,0
	z"/>
</svg>