<svg xmlns="http://www.w3.org/2000/svg" viewBox="0 0 24 24" width="100%" height="100%">
    <path
        d="M22.45853 11.58826C22.62758 11.94816 22.47293 12.37699 22.11302 12.54614L11.7097 17.43446C11.34979 17.60362 10.92096 17.44896 10.7519 17.08906C10.58275 16.72915 10.73741 16.30032 11.09731 16.13117L21.50064 11.24285C21.86054 11.0737 22.28938 11.22845 22.45853 11.58826z"
        fill="#FFCFE6ff"></path>
    <path
        d="M17.59709 7.57625C17.94307 7.77225 18.06461 8.21161 17.86867 8.55759L12.62534 17.81386C12.42941 18.15984 11.99002 18.28138 11.64403 18.08544C11.29805 17.88941 11.17642 17.45002 11.37245 17.10403L16.61568 7.84786C16.81171 7.50186 17.2511 7.38026 17.59709 7.57625z"
        fill="#FFCFE6ff"></path>
    <path
        d="M12.16022 6.47833C12.55786 6.47833 12.88022 6.80069 12.88022 7.19833L12.88022 17.40806C12.88022 17.8057 12.55786 18.12806 12.16022 18.12806C11.76259 18.12806 11.44022 17.8057 11.44022 17.40806L11.44022 7.19833C11.44022 6.80069 11.76259 6.47833 12.16022 6.47833z"
        fill="#FFCFE6ff"></path>
    <path
        d="M6.70345 8.53544C7.03465 8.31539 7.48154 8.40548 7.7016 8.73668L13.0248 16.74845C13.24493 17.07965 13.15478 17.52653 12.82358 17.74656C12.49238 17.96669 12.0455 17.87654 11.82547 17.54534L6.5022 9.53359C6.28214 9.20239 6.37225 8.7555 6.70345 8.53544z"
        fill="#FFCFE6ff"></path>
    <path
        d="M9.66182 17.5007C9.57036 17.28797 9.68467 17.0519 9.89453 16.95398L12.09898 15.92611L14.30141 16.95312C14.51126 17.05094 14.6256 17.28691 14.5343 17.49955C14.1288 18.44381 13.1905 19.10515 12.09782 19.10515C11.00554 19.10515 10.06752 18.44429 9.66182 17.5007z"
        fill="#FFCFE6ff"></path>
    <path
        d="M7.16267 14.97974C7.7695 12.8303 9.75514 11.23526 12.09878 11.23526C14.44253 11.23526 16.4183 12.81062 17.02512 14.96026L22.13731 12.53549C22.50115 12.36288 22.67424 11.93654 22.5119 11.568C22.49309 11.52528 22.47504 11.48554 22.45862 11.45078C20.62118 7.57511 16.67299 4.89487 12.09878 4.89487C7.45255 4.89487 3.4522 7.66017 1.65375 11.63472L1.65375 11.63472C1.49874 11.97734 1.64364 12.38957 1.98407 12.54922C3.48774 13.25472 7.16267 14.97974 7.16267 14.97974z"
        fill="#FF5C7Aff"></path>
    <path
        d="M1.65842 11.60611C1.82741 11.24611 2.2562 11.09126 2.61615 11.26032L12.85507 16.06723C13.21507 16.23619 13.36982 16.66502 13.20086 17.02493C13.0319 17.38493 12.60307 17.53968 12.24317 17.37072L2.00419 12.56381C1.64424 12.39485 1.48943 11.96602 1.65842 11.60611z"
        fill="#FFCFE6ff"></path>
</svg>