<svg xmlns="http://www.w3.org/2000/svg" viewBox="0 0 24 24" width="100%" height="100%">
    <path
        d="M5.67687 4.05598L5.67687 4.05598C4.8817 4.05598 4.23687 4.70064 4.23687 5.49582L4.23687 11.94893L8.11451 15.3912L12.12979 11.94893L12.12979 4.05598L5.67687 4.05598z"
        fill="#6D69E4ff"></path>
    <path
        d="M15.57206 15.82656L12.12979 19.72838L5.67687 19.72838C4.88158 19.72838 4.23687 19.08365 4.23687 18.28838L4.23687 11.94893L6.74114 11.94893C6.63916 12.15446 6.58075 12.38554 6.58075 12.63053C6.58075 13.47792 7.26776 14.16461 8.11482 14.16461C8.96189 14.16461 9.64886 13.47792 9.64886 12.63053C9.64886 12.38554 9.59049 12.15446 9.48819 11.94893L12.12979 11.94893L15.57206 15.82656z"
        fill="#9796EDff"></path>
    <path
        d="M16.00752 8.16033L12.12989 11.63318L12.12989 14.24419C12.33542 14.14195 12.56659 14.08349 12.81158 14.08349C13.65898 14.08349 14.34566 14.77046 14.34566 15.61757C14.34566 16.46467 13.65898 17.15165 12.81158 17.15165C12.56659 17.15165 12.33542 17.09357 12.12989 16.99094L12.12989 19.72838L18.46934 19.72838C19.26461 19.72838 19.90934 19.08365 19.90934 18.28838L19.90934 11.63318L16.00752 8.16033z"
        fill="#6D69E4ff"></path>
    <path
        d="M18.46934 4.05598C19.26461 4.05598 19.90934 4.70069 19.90934 5.49598L19.90934 11.94893L17.38723 11.94893C17.48947 11.74339 17.54755 11.51222 17.54755 11.26694C17.54755 10.41984 16.86086 9.73286 16.01357 9.73286C15.16646 9.73286 14.47949 10.41984 14.47949 11.26694C14.47949 11.51222 14.53786 11.74339 14.64019 11.94893L12.12989 11.94893L12.12989 9.3073C11.92435 9.40959 11.69328 9.46768 11.44829 9.46768C10.6009 9.46768 9.91392 8.781 9.91392 7.93361C9.91392 7.08655 10.6009 6.39986 11.44829 6.39986C11.69328 6.39986 11.92435 6.45795 12.12989 6.56025L12.12989 4.05598L18.46934 4.05598z"
        fill="#9796EDff"></path>
    <path
        d="M12.12979 9.04368L10.4809 8.09169C9.47782 7.51265 8.65694 7.98655 8.65694 9.14492L8.65694 14.57338C8.65694 14.69107 8.66543 14.80176 8.68171 14.90496L12.12979 11.94893L12.12979 9.04368z"
        fill="#FDDE80ff"></path>
    <path
        d="M13.72944 13.75075L10.4809 15.6263C9.47782 16.20557 8.65694 15.73171 8.65694 14.57338L8.65694 14.06611C9.23658 13.84704 9.64886 13.28707 9.64886 12.63053C9.64886 12.38554 9.59049 12.15446 9.48819 11.94893L12.12979 11.94893L13.72944 13.75075z"
        fill="#FDDE80ff"></path>
    <path
        d="M13.88794 10.05869L15.1823 10.80595C16.18531 11.38522 16.18531 12.33302 15.1823 12.9121L13.10477 14.11152C13.00982 14.09309 12.91181 14.08349 12.81158 14.08349C12.56659 14.08349 12.33542 14.14195 12.12989 14.24419L12.12989 11.63318L13.88794 10.05869z"
        fill="#FDDE80ff"></path>
    <path
        d="M8.65694 9.14491C8.65694 7.98655 9.47781 7.51266 10.4808 8.09169L15.18221 10.80586C16.18522 11.38522 16.18522 12.33302 15.18221 12.9121L10.4808 15.6263C9.47781 16.20557 8.65694 15.73171 8.65694 14.57338L8.65694 9.14491z"
        fill="#FDDE80ff"></path>
</svg>