<svg xmlns="http://www.w3.org/2000/svg" viewBox="0 0 24 24" width="100%" height="100%">
    <path
        d="M11.64326 6.75353C8.80572 2.45969 3.05423 4.99012 3.47601 9.85922C3.84148 14.0784 8.01705 17.41958 10.97002 19.14355C11.38675 19.38691 11.89891 19.38691 12.31574 19.14355C15.26842 17.41958 19.44403 14.0783 19.8095 9.85922C20.23123 4.99012 14.48035 2.45969 11.64326 6.75353z"
        fill="#FF5C7Aff"></path>
    <path
        d="M16.95014 12.98275C16.39747 10.17744 12.90787 10.2649 12.09763 12.85632C11.43677 14.97024 12.67536 17.39645 13.7856 18.93235C14.06842 19.32355 14.54659 19.51978 15.02266 19.44C16.89158 19.12675 19.47754 18.27005 20.49216 16.30128C21.73584 13.88774 19.31395 11.37437 16.95014 12.98275z"
        fill="#FFCFE6ff"></path>
</svg>