<svg xmlns="http://www.w3.org/2000/svg" viewBox="0 0 24 24" width="100%" height="100%">
    <path
        d="M16.0695 2.7305C12.7258 3.85612 10.9074 4.09695 8.30573 2.7305L12.1298 8.01044L16.0695 2.7305z"
        fill="#FFCFE6ff"></path>
    <path
        d="M8.37409 10.243C6.22673 12.7549 5.26956 15.1018 4.17298 18.4108C4.09425 18.6483 4.10943 18.9135 4.27234 19.1035C6.38097 21.5625 16.2982 21.696 19.208 19.118C19.4281 18.923 19.4887 18.6141 19.4071 18.3315C18.4274 14.9392 16.8594 12.462 14.8639 10.243L8.37409 10.243z"
        fill="#FF5C7Aff"></path>
    <path
        d="M6.71505 2.5833C7.21559 2.4809 7.56291 2.47743 8.05183 2.52926C8.29103 2.55462 8.50926 2.67534 8.66566 2.85809L11.0339 5.6253C11.3497 5.99425 11.9202 5.99425 12.236 5.6253L14.5849 2.88068C14.7528 2.68446 14.9917 2.56125 15.2493 2.54369C15.689 2.51373 16.0305 2.51088 16.555 2.59268C17.7675 2.77617 18.4473 4.98552 18.4928 6.49521C18.5014 6.77775 18.3517 7.04445 18.089 7.1489C17.3664 7.43628 16.3941 7.44278 15.6755 7.33024L14.8472 10.6895C12.29 11.0952 10.8825 11.103 8.42274 10.6895L7.60432 7.36766C6.85494 7.52539 5.78994 7.47444 5.07016 7.13883C4.84587 7.03425 4.71412 6.80481 4.71142 6.55735C4.69584 5.13103 5.45156 3.01836 6.71505 2.5833z"
        fill="#FF5C7Aff"></path>
    <path
        d="M8.19688 9.85347C9.66073 10.5601 13.5345 10.7668 15.1159 9.75003L15.6793 11.2107C12.9174 12.2073 9.85241 12.1155 7.65021 11.2107L8.19688 9.85347z"
        fill="#FFCFE6ff"></path>
</svg>