<?xml version="1.0" encoding="utf-8"?>
<!-- Generator: Adobe Illustrator 24.1.1, SVG Export Plug-In . SVG Version: 6.00 Build 0)  -->
<svg version="1.1" id="图层_1" xmlns="http://www.w3.org/2000/svg" xmlns:xlink="http://www.w3.org/1999/xlink" x="0px" y="0px"
	 viewBox="0 0 244.04 55.01" enable-background="new 0 0 244.04 55.01" xml:space="preserve">
<path fill="#19AAD5" d="M5.39,55.01h233.26c2.98,0,5.39-2.41,5.39-5.39V5.39c0-2.98-2.41-5.39-5.39-5.39L5.39,0
	C2.41,0,0,2.41,0,5.39l0,44.22C0,52.6,2.41,55.01,5.39,55.01z"/>
<path fill="#FFFFFF" d="M79.26,24.77V8.37c0.08-1.52,1.22-2.68,2.73-2.68s2.66,1.16,2.73,2.68v16.4h16.4
	c1.52,0.08,2.68,1.22,2.68,2.73c0,1.52-1.16,2.66-2.68,2.73h-16.4v16.4c-0.08,1.52-1.22,2.68-2.73,2.68s-2.66-1.16-2.73-2.68v-16.4
	h-16.4c-1.52-0.08-2.68-1.22-2.68-2.73c0-1.52,1.16-2.66,2.68-2.73H79.26z"/>
<g>
	<path fill="#FFFFFF" d="M105.14,44.25c9.46-3.33,15.11-8.12,16.93-14.37h-16.13V26.9h16.71c0.05-0.56,0.08-3.05,0.08-7.48h-14.45
		v-2.98h9.5c-2.27-2.47-4.21-4.45-5.82-5.95l2.3-2.04c2.27,2.01,4.34,3.93,6.22,5.76l-2.53,2.23h9.44c2.05-2.86,3.85-5.53,5.4-8.03
		l3.29,1.8c-1.82,2.3-3.5,4.37-5.03,6.23h10.02v2.98h-14.97c0,3.84-0.02,6.33-0.06,7.48h17.36v2.98h-16.81
		c3.1,6.57,8.94,11.07,17.52,13.51c-1.08,1.1-2.06,2.15-2.93,3.17c-8.13-3.13-13.65-7.84-16.57-14.13
		c-2.15,6.11-7.87,10.99-17.16,14.64C106.75,46.18,105.99,45.24,105.14,44.25z"/>
	<path fill="#FFFFFF" d="M147.35,19.11c1.9,1.31,4.24,3.08,7.01,5.33c-0.98,1.1-1.76,1.94-2.34,2.54c-2.77-2.51-4.99-4.39-6.65-5.64
		L147.35,19.11z M150.92,30.39c1.08,0.47,2.13,0.9,3.13,1.29c-1.45,4.59-2.97,9.61-4.55,15.04l-3.41-1.17
		C147.75,41.08,149.36,36.03,150.92,30.39z M148.86,8.97c2.56,1.91,4.84,3.81,6.85,5.72c-0.9,0.89-1.69,1.68-2.38,2.39
		c-1.42-1.49-3.59-3.47-6.49-5.95L148.86,8.97z M155.15,41.67h13.3V30.55h-10.29v-2.98h10.29v-9.48h-11.4v-2.98h12.63
		c-1.24-1.94-2.51-3.72-3.8-5.33l2.61-1.64c1.77,2.04,3.17,3.84,4.2,5.4l-2.47,1.57h13.29v2.98h-11.72v9.48h10.29v2.98h-10.29v11.12
		h12.83v2.98h-29.46V41.67z"/>
</g>
</svg>
