<svg xmlns="http://www.w3.org/2000/svg" viewBox="0 0 1024 1024" width="100%" height="100%">
    <path
        d="M192.075294 503.883294m-75.294118 0a75.294118 75.294118 0 1 0 150.588236 0 75.294118 75.294118 0 1 0-150.588236 0Z"
        fill="#FA942D"></path>
    <path
        d="M342.663529 411.211294m-75.294117 0a75.294118 75.294118 0 1 0 150.588235 0 75.294118 75.294118 0 1 0-150.588235 0Z"
        fill="#FA942D"></path>
    <path
        d="M284.747294 480.722824m-75.294118 0a75.294118 75.294118 0 1 0 150.588236 0 75.294118 75.294118 0 1 0-150.588236 0Z"
        fill="#FE5D79"></path>
    <path
        d="M765.470118 532.841412m-127.427765 0a127.427765 127.427765 0 1 0 254.855529 0 127.427765 127.427765 0 1 0-254.855529 0Z"
        fill="#FA942D"></path>
    <path
        d="M632.259765 457.547294m-133.210353 0a133.210353 133.210353 0 1 0 266.420706 0 133.210353 133.210353 0 1 0-266.420706 0Z"
        fill="#FA942D"></path>
    <path
        d="M672.798118 556.016941m-150.588236 0a150.588235 150.588235 0 1 0 301.176471 0 150.588235 150.588235 0 1 0-301.176471 0Z"
        fill="#FE5D79"></path>
    <path
        d="M932.291765 474.925176a28.762353 28.762353 0 0 1 28.747294 28.762353l-0.045177 1.355295-0.090353 1.355294c-14.305882 150.919529-130.605176 272.865882-280.741647 299.188706l20.178824 80.745411a23.160471 23.160471 0 0 1-22.467765 28.777412H343.371294a23.160471 23.160471 0 0 1-22.467765-28.777412l20.178824-80.745411C192.813176 779.595294 77.552941 660.329412 60.928 512.015059l-0.557176-5.376a28.958118 28.958118 0 0 1 28.822588-31.713883h843.083294z"
        fill="#FDDC7A"></path>
    <path
        d="M442.548706 196.924235h136.146823c21.263059 0 39.800471 14.456471 44.950589 35.087059l60.732235 242.913882H336.865882l60.732236-242.898823a46.336 46.336 0 0 1 44.950588-35.102118z"
        fill="#F6C338"></path>
    <path
        d="M688.037647 192.903529c9.441882-30.177882 28.385882-29.409882 34.680471-47.585882 7.062588-20.449882 9.366588-45.718588 6.927058-75.821176 16.850824 17.935059 25.976471 37.014588 30.945883 62.283294 4.894118 24.937412-9.125647 44.182588-29.06353 74.480941-19.922824 30.313412-8.809412 67.614118 0 94.915765-16.850824-17.92-59.904-55.777882-43.474823-108.272942zM283.361882 154.247529c11.324235-37.707294 34.063059-36.773647 41.60753-59.482353 8.493176-25.554824 11.264-57.133176 8.31247-94.765176 20.239059 22.407529 31.201882 46.260706 37.165177 77.854118 5.872941 31.171765-10.947765 55.220706-34.876235 93.108706-23.943529 37.872941-10.601412 84.48 0 118.633411-20.239059-22.422588-71.936-69.722353-52.208942-135.348706z"
        fill="#C6D2E1"></path>
    <path
        d="M510.629647 706.605176a92.672 92.672 0 0 1 92.672 92.672v115.832471H417.957647v-115.832471a92.672 92.672 0 0 1 92.672-92.672z"
        fill="#F5BC20"></path>
</svg>