<svg xmlns="http://www.w3.org/2000/svg" viewBox="0 0 24 24" width="100%" height="100%">
    <path
        d="M3.67336 7.39739C3.67336 6.59091 3.67336 6.18766 3.83031 5.87964C3.96837 5.60868 4.18866 5.38838 4.45961 5.25033C4.76765 5.09338 5.17089 5.09338 5.97736 5.09338L18.14179 5.09338C18.94829 5.09338 19.35149 5.09338 19.65955 5.25033C19.93046 5.38838 20.15078 5.60868 20.28883 5.87964C20.44579 6.18766 20.44579 6.5909 20.44579 7.39738L20.44579 16.60262C20.44579 17.40912 20.44579 17.81232 20.28883 18.12038C20.15078 18.3913 19.93046 18.61162 19.65955 18.74966C19.35149 18.90662 18.94829 18.90662 18.14179 18.90662L5.97735 18.90662C5.17089 18.90662 4.76765 18.90662 4.45961 18.74966C4.18866 18.61162 3.96837 18.3913 3.83031 18.12038C3.67336 17.81232 3.67336 17.40912 3.67336 16.60262L3.67336 7.39739z"
        fill="#FF5C7Aff"></path>
    <path
        d="M3.09983 7.20505L3.09983 7.20505C3.09983 6.57943 3.09983 6.26662 3.19538 6.01756C3.34163 5.63638 3.64284 5.33518 4.02401 5.18893C4.27307 5.09338 4.58588 5.09338 5.2115 5.09338L5.2115 5.09338L18.93494 5.09338L18.93494 5.09338C19.56058 5.09338 19.87344 5.09338 20.12246 5.18893C20.50368 5.33518 20.80483 5.63637 20.95114 6.01757C21.04666 6.26662 21.04666 6.57944 21.04666 7.20505L21.04666 7.20505C21.04666 7.41359 21.04666 7.51786 21.01478 7.60088C20.96602 7.72794 20.8656 7.82834 20.73859 7.87709C20.65555 7.90894 20.5513 7.90894 20.34278 7.90894L3.80372 7.90894C3.59518 7.90894 3.49091 7.90894 3.40789 7.87709C3.28083 7.82834 3.18043 7.72794 3.13167 7.60088C3.09983 7.51786 3.09983 7.41359 3.09983 7.20505z"
        fill="#FFCFE6ff"></path>
    <path
        d="M13.20672 11.86099L13.20672 9.88544C13.20672 9.62034 12.99187 9.40544 12.72672 9.40544L11.39251 9.40544C11.12736 9.40544 10.91251 9.62034 10.91251 9.88544L10.91251 11.86099L8.93696 11.86099C8.67185 11.86099 8.45696 12.07584 8.45696 12.34099L8.45696 13.6752C8.45696 13.94035 8.67185 14.1552 8.93696 14.1552L10.91251 14.1552L10.91251 16.13078C10.91251 16.39584 11.12736 16.61078 11.39251 16.61078L12.72672 16.61078C12.99187 16.61078 13.20672 16.39584 13.20672 16.13078L13.20672 14.1552L15.1823 14.1552C15.44736 14.1552 15.6623 13.94035 15.6623 13.6752L15.6623 12.34099C15.6623 12.07584 15.44736 11.86099 15.1823 11.86099L13.20672 11.86099z"
        fill="#FFCFE6ff"></path>
</svg>