<svg xmlns="http://www.w3.org/2000/svg" viewBox="0 0 24 24" width="100%" height="100%">
    <path
        d="M5.59324 5.04454C5.59324 4.24928 6.2378 3.60457 7.03307 3.60457C7.06633 3.60457 7.09987 3.60457 7.13368 3.60457L14.02454 3.60457C14.05824 3.60457 14.09174 3.60457 14.12486 3.60457C14.92022 3.60456 15.56496 4.24931 15.56496 5.04468L15.56496 20.40461L7.13367 20.40461C6.28292 20.40461 5.59324 19.79482 5.59324 19.04246L5.59324 5.04454z"
        fill="#FF8834ff"></path>
    <path
        d="M9.42703 11.3329C9.42703 11.06784 9.64195 10.8529 9.90701 10.8529L11.2512 10.8529C11.51626 10.8529 11.7312 11.06784 11.7312 11.3329L11.7312 12.67699C11.7312 12.94214 11.51626 13.15699 11.2512 13.15699L9.90701 13.15699C9.64195 13.15699 9.42703 12.94214 9.42703 12.67699L9.42703 11.3329z"
        fill="#FFD671ff"></path>
    <path
        d="M9.42703 7.04062C9.42703 6.77553 9.64195 6.56062 9.90701 6.56062L11.2512 6.56062C11.51626 6.56062 11.7312 6.77553 11.7312 7.04062L11.7312 8.38475C11.7312 8.64985 11.51626 8.86475 11.2512 8.86475L9.90701 8.86475C9.64195 8.86475 9.42703 8.64985 9.42703 8.38475L9.42703 7.04062z"
        fill="#FFD671ff"></path>
    <path
        d="M9.42703 15.62506C9.42703 15.36 9.64195 15.14506 9.90701 15.14506L11.2512 15.14506C11.51626 15.14506 11.7312 15.36 11.7312 15.62506L11.7312 16.96915C11.7312 17.2343 11.51626 17.44915 11.2512 17.44915L9.90701 17.44915C9.64195 17.44915 9.42703 17.2343 9.42703 16.96915L9.42703 15.62506z"
        fill="#FFD671ff"></path>
    <path
        d="M15.56496 8.80705L19.03325 8.80705C19.82851 8.80705 20.47325 9.45176 20.47325 10.24704L20.47325 10.24704L20.47325 18.96461C20.47325 19.75987 19.82851 20.40461 19.03325 20.40461L15.56496 20.40461L15.56496 8.80705z"
        fill="#FFD671ff"></path>
    <path
        d="M17.15616 11.3327C17.15616 11.06755 17.37101 10.8527 17.63616 10.8527L18.40205 10.8527C18.6672 10.8527 18.88205 11.06755 18.88205 11.3327L18.88205 12.6768C18.88205 12.94186 18.6672 13.1568 18.40205 13.1568L17.63616 13.1568C17.37101 13.1568 17.15616 12.94186 17.15616 12.6768L17.15616 11.3327z"
        fill="#FF8834ff"></path>
    <path
        d="M17.15616 15.62486C17.15616 15.35971 17.37101 15.14486 17.63616 15.14486L18.40205 15.14477C18.6672 15.14477 18.88205 15.35971 18.88205 15.62477L18.88205 16.96896C18.88205 17.23402 18.6672 17.44896 18.40205 17.44896L17.63616 17.44896C17.37101 17.44896 17.15616 17.23402 17.15616 16.96896L17.15616 15.62486z"
        fill="#FF8834ff"></path>
    <path
        d="M4.46813 19.8047C4.46813 19.2745 4.89793 18.8447 5.42813 18.8447L20.63626 18.8447C21.16646 18.8447 21.59626 19.2745 21.59626 19.8047C21.59626 20.33491 21.16646 20.7647 20.63626 20.7647L5.42813 20.7647C4.89793 20.7647 4.46813 20.33491 4.46813 19.8047z"
        fill="#FF8834ff"></path>
</svg>