<svg xmlns="http://www.w3.org/2000/svg" viewBox="0 0 24 24" width="100%" height="100%">
    <path
        d="M21.44573 11.95363C21.44573 9.55713 19.50038 7.61437 17.10058 7.61437C15.08016 7.61437 13.38701 8.99326 12.90048 10.85837C12.61642 10.97539 12.34656 11.1191 12.09197 11.28422C11.8248 11.11114 11.54035 10.9632 11.24141 10.8431C10.7495 8.98562 9.05986 7.61437 7.04517 7.61437C4.64539 7.61437 2.7 9.55713 2.7 11.95363C2.7 13.36733 3.37985 14.61888 4.42758 15.41136C4.42758 15.4225 4.42605 15.43315 4.42605 15.4439C4.42605 18.18326 6.64974 20.40394 9.39251 20.40394C10.38893 20.40394 11.31456 20.10806 12.09197 19.60387C12.86947 20.10806 13.7951 20.40394 14.7911 20.40394C17.5343 20.40394 19.75795 18.18326 19.75795 15.4439C19.75795 15.42365 19.75488 15.40406 19.75488 15.38381C20.78198 14.59027 21.44573 13.35091 21.44573 11.95363z"
        fill="#FF5C7Aff"></path>
    <path
        d="M12.58224 5.53555L11.71478 5.53555C9.34452 5.53555 7.40521 7.47222 7.40521 9.83926L7.40521 15.31181C7.40521 17.67888 9.34452 19.61558 11.71478 19.61558L12.58224 19.61558C14.95258 19.61558 16.89187 17.67888 16.89187 15.31181L16.89187 9.83926C16.89187 7.47222 14.95258 5.53555 12.58224 5.53555z"
        fill="#ffffffff"></path>
    <path
        d="M9.46395 12.41309C9.51499 12.25402 9.73997 12.25402 9.79104 12.41309L9.80074 12.44323C9.99446 13.04669 10.41043 13.55386 10.96445 13.86182C11.0785 13.92528 11.0785 14.08934 10.96445 14.1527C10.41043 14.46067 9.99446 14.96784 9.80074 15.5713L9.79104 15.60154C9.73997 15.76051 9.51499 15.76051 9.46395 15.60154L9.45425 15.5713C9.26053 14.96784 8.84449 14.46067 8.29054 14.1527C8.17648 14.08934 8.17648 13.92528 8.29054 13.86182C8.84449 13.55386 9.26053 13.04669 9.45425 12.44323L9.46395 12.41309z"
        fill="#FF5C7Aff"></path>
    <path
        d="M14.28221 12.41309C14.33328 12.25402 14.55821 12.25402 14.60928 12.41309L14.61898 12.44323C14.8127 13.04669 15.22877 13.55386 15.78269 13.86182C15.89674 13.92528 15.89674 14.08934 15.78269 14.1527C15.22877 14.46067 14.8127 14.96784 14.61898 15.5713L14.60928 15.60154C14.55821 15.76051 14.33328 15.76051 14.28221 15.60154L14.27251 15.5713C14.07878 14.96784 13.66282 14.46067 13.1088 14.1527C12.99475 14.08934 12.99475 13.92528 13.1088 13.86182C13.66282 13.55386 14.07878 13.04669 14.27251 12.44323L14.28221 12.41309z"
        fill="#FF5C7Aff"></path>
    <path
        d="M15.88627 4.34697C15.40176 4.34697 14.94173 4.44877 14.52384 4.62983C13.90205 3.99273 13.03459 3.59566 12.07315 3.59566C11.11171 3.59566 10.24426 3.99273 9.62208 4.62983C9.20452 4.44877 8.74409 4.34697 8.25997 4.34697C6.36862 4.34697 4.83576 5.87813 4.83576 7.76653C4.83576 9.65493 6.36862 11.18611 8.25997 11.18611C9.22144 11.18611 10.08883 10.78906 10.71072 10.1519C11.12861 10.33296 11.58864 10.43482 12.07315 10.43482C12.55766 10.43482 13.0177 10.33296 13.4352 10.1519C14.05738 10.78906 14.92483 11.18611 15.88627 11.18611C17.77728 11.18611 19.3105 9.65493 19.3105 7.76653C19.3105 5.87813 17.77728 4.34697 15.88627 4.34697z"
        fill="#FF5C7Aff"></path>
    <path
        d="M13.46515 16.05629C13.46515 16.85155 12.81917 17.49658 12.02285 17.49658C11.22586 17.49658 10.58064 16.85155 10.58064 16.05629C10.58064 15.26102 11.22586 14.616 12.02285 14.616C12.81917 14.616 13.46515 15.26102 13.46515 16.05629z"
        fill="#FF5C7Aff"></path>
</svg>