<svg xmlns="http://www.w3.org/2000/svg" viewBox="0 0 1024 1024" width="100%" height="100%">
    <path
        d="M918.784 510.208a187.904 187.904 0 0 0-88.832-159.488 156.416 156.416 0 0 0 1.792-22.016 150.784 150.784 0 0 0-210.944-138.496 151.04 151.04 0 0 0-216.32 0 150.784 150.784 0 0 0-210.944 138.496 156.416 156.416 0 0 0 1.792 22.016 187.648 187.648 0 0 0-13.824 309.504v1.536a215.296 215.296 0 0 0 332.8 179.2 215.04 215.04 0 0 0 332.8-179.2v-2.56a187.904 187.904 0 0 0 71.68-148.992z"
        fill="#FC6B8A"></path>
    <path
        d="M680.704 479.744A150.528 150.528 0 0 1 572.672 435.2a150.016 150.016 0 0 1-120.064 0 150.528 150.528 0 0 1-108.032 45.824h-11.264v167.168a166.4 166.4 0 0 0 165.888 165.888h33.536a166.4 166.4 0 0 0 165.888-165.888v-169.728a137.216 137.216 0 0 1-17.92 1.28z"
        fill="#FFFFFF"></path>
    <path d="M510.464 651.264m-33.536 0a33.536 33.536 0 1 0 67.072 0 33.536 33.536 0 1 0-67.072 0Z" fill="#E2006C">
    </path>
    <path
        d="M635.904 554.496H614.4v-21.504a12.032 12.032 0 0 0-11.776-11.776h-4.864a12.032 12.032 0 0 0-11.776 11.776v21.504h-21.248a11.776 11.776 0 0 0-11.776 11.52v5.12a11.776 11.776 0 0 0 11.776 11.52h21.248v21.504a12.032 12.032 0 0 0 11.776 11.776h4.864a12.032 12.032 0 0 0 11.776-11.776v-21.504h21.248a11.776 11.776 0 0 0 11.776-11.52v-5.12a11.776 11.776 0 0 0-11.52-11.52zM455.936 554.496H435.2v-21.504a12.032 12.032 0 0 0-11.776-11.776h-4.864a12.032 12.032 0 0 0-11.776 11.776v21.504H384a11.776 11.776 0 0 0-11.776 11.52v5.12a11.776 11.776 0 0 0 11.776 11.52h21.248v21.504a12.032 12.032 0 0 0 11.776 11.776h4.864a12.032 12.032 0 0 0 13.312-11.776v-21.504h21.248a11.52 11.52 0 0 0 11.776-11.52v-5.12a11.52 11.52 0 0 0-12.288-11.52z"
        fill="#FF5C7A"></path>
    <path
        d="M600.32 651.008a12.288 12.288 0 0 0-12.288 12.544c0 34.048-34.816 61.696-76.8 61.696s-76.8-27.648-76.8-61.696a12.544 12.544 0 1 0-25.6 0c0 47.616 45.824 86.528 102.4 86.528s102.4-38.912 102.4-86.528a12.544 12.544 0 0 0-13.312-12.544z"
        fill="#EB53A8"></path>
</svg>