<svg xmlns="http://www.w3.org/2000/svg" viewBox="0 0 24 24" width="100%" height="100%">
    <path
        d="M11.314 2.23489C12.9446 2.23067 14.532 2.75886 15.8349 3.73921C17.1379 4.71955 18.0852 6.09845 18.5329 7.66636C18.9806 9.23427 18.9042 10.9055 18.3154 12.426C17.8016 13.7526 16.9223 14.9013 15.7852 15.7421C15.4744 15.972 15.2705 16.326 15.2705 16.7125L15.2705 17.592C15.2617 17.8153 15.2705 18.4288 15.2705 18.4288C15.2705 18.4288 14.2951 18.5929 13.8545 18.5929C13.4139 18.5929 8.6663 18.5929 8.6663 18.5929C8.23657 18.5929 7.26348 18.3716 7.26348 18.3716C7.26348 18.3716 7.26348 17.3741 7.26348 16.9398L7.26348 16.6997C7.26348 16.3201 7.06671 15.9714 6.76507 15.741C5.64258 14.8837 4.78051 13.7248 4.28335 12.394C3.71494 10.8724 3.65406 9.20783 4.10982 7.64882C4.56557 6.08982 5.51348 4.7201 6.81195 3.7443C8.11043 2.7685 9.68976 2.239 11.314 2.23489z"
        fill="#FF8834ff"></path>
    <path
        d="M12.1195 12.5257C12.3663 12.5257 12.5664 12.3256 12.5664 12.0788L12.5664 11.3639C12.5664 11.1171 12.7665 10.917 13.0133 10.917L13.6389 10.917C14.6152 10.917 14.7114 10.3559 14.7114 10.0232L14.7114 6.7135C14.7114 6.22927 14.351 5.81976 13.6389 5.81976L9.17018 5.81976C8.28824 5.81976 7.91895 6.26199 7.91895 6.7135L7.91895 8.50456C7.91895 8.75099 8.11871 8.95076 8.36514 8.95076L9.61773 8.95076C9.86415 8.95076 10.0639 8.75099 10.0639 8.50456L10.0639 7.96765C10.0639 7.72085 10.264 7.52078 10.5108 7.52078L12.1195 7.52078C12.3663 7.52078 12.5664 7.72085 12.5664 7.96765L12.5664 9.57638C12.5664 9.82318 12.3663 10.0232 12.1195 10.0232L11.4939 10.0232C10.2266 10.0114 9.88517 10.5345 9.88517 10.917L9.88517 12.0788C9.88517 12.3256 10.0852 12.5257 10.332 12.5257L12.1195 12.5257zM11.2537 13.0396C11.5011 13.0396 11.7431 13.113 11.9488 13.2505C12.1546 13.388 12.315 13.5834 12.4097 13.812C12.5044 14.0407 12.5291 14.2922 12.4809 14.535C12.4326 14.7777 12.3134 15.0006 12.1384 15.1756C11.9634 15.3506 11.7405 15.4698 11.4978 15.518C11.2551 15.5663 11.0035 15.5415 10.7748 15.4468C10.5462 15.3521 10.3508 15.1918 10.2133 14.986C10.0758 14.7802 10.0024 14.5383 10.0024 14.2909C10.0024 13.959 10.1343 13.6407 10.3689 13.4061C10.6036 13.1714 10.9218 13.0396 11.2537 13.0396z"
        fill="#FFE8AFff"></path>
    <path
        d="M7.61193 19.1082C7.56041 18.8267 7.79538 18.593 8.0816 18.593L14.5507 18.593C14.8369 18.593 15.0719 18.8267 15.0204 19.1082C14.9 19.7663 14.5593 20.4539 14.0385 20.8941C13.3787 21.4518 12.4838 21.7652 11.5507 21.7652L11.0816 21.7652C10.1485 21.7652 9.25362 21.4518 8.59382 20.8941C8.073 20.4539 7.73233 19.7663 7.61193 19.1082z"
        fill="#00B9E7ff"></path>
    <path
        d="M6.53796 17.9091C6.53796 17.4028 6.94835 16.9924 7.45459 16.9924L14.9778 16.9924C15.484 16.9924 15.8944 17.4028 15.8944 17.9091L15.8944 18.0758C15.8944 18.582 15.484 18.9924 14.9778 18.9924L7.45459 18.9924C6.94835 18.9924 6.53796 18.582 6.53796 18.0758L6.53796 17.9091z"
        fill="#FFD671ff"></path>
    <path
        d="M20.289 3.28204C20.345 3.15749 20.5218 3.15749 20.5779 3.28204L20.8592 3.90715C21.1186 4.4836 21.5405 4.97188 22.0732 5.31218L22.267 5.43598C22.3971 5.51903 22.3971 5.70894 22.267 5.79199L22.0821 5.91013C21.5438 6.25396 21.1188 6.74879 20.8602 7.33278L20.5783 7.96932C20.5226 8.09501 20.3442 8.09501 20.2886 7.96932L20.0206 7.36425C19.7533 6.76065 19.3084 6.25278 18.7453 5.90825L18.5589 5.79416C18.4242 5.71178 18.4242 5.51619 18.5589 5.43381L18.7543 5.3142C19.3118 4.9731 19.7535 4.47182 20.0217 3.87581L20.289 3.28204z"
        fill="#FFD671ff"></path>
</svg>