<svg xmlns="http://www.w3.org/2000/svg" viewBox="0 0 24 24" width="100%" height="100%">
    <path
        d="M10.61434 6.33318C10.44384 7.21354 10.50317 8.08513 10.75046 8.88596L5.69662 13.35926L5.69921 13.36157C5.57936 13.47024 5.465 13.58765 5.35702 13.7137C3.97257 15.33053 4.16094 17.76355 5.77777 19.14806C7.39459 20.53248 9.82762 20.34413 11.21203 18.7273C11.30314 18.62093 11.38742 18.51101 11.46499 18.39811L15.31018 12.58262C17.97302 12.82781 20.43984 11.0184 20.9593 8.33736C21.17885 7.20411 21.01738 6.0853 20.56435 5.11334C20.37149 4.69955 19.82563 4.66821 19.52582 5.01252L17.27568 7.59697C17.10634 7.79142 16.81142 7.81181 16.61702 7.6425L15.29088 6.48796C15.09648 6.31865 15.07603 6.02376 15.24538 5.82931L17.46605 3.27885C17.7697 2.93007 17.65584 2.38682 17.2104 2.26236C17.07254 2.22383 16.9319 2.19058 16.78886 2.16287C13.93229 1.60943 11.16778 3.47652 10.61434 6.33318z"
        fill="#FDDE80ff"></path>
    <path
        d="M7.35426 17.3065C6.75449 16.79299 6.68461 15.8904 7.19819 15.29059C7.71177 14.69088 8.61432 14.62099 9.21409 15.1345C9.81389 15.6481 9.88378 16.55069 9.37018 17.1504C8.8566 17.75021 7.95404 17.8201 7.35426 17.3065z"
        fill="#FB813Aff"></path>
</svg>