<svg xmlns="http://www.w3.org/2000/svg" viewBox="0 0 24 24" width="100%" height="100%">
    <path
        d="M4.07763 7.63768C4.05931 6.56311 5.5539 6.83651 6.30349 7.10752C7.97693 7.98802 10.8193 9.80818 8.8013 10.0448C6.27878 10.3405 4.10053 8.98089 4.07763 7.63768z"
        fill="#FB813Aff"></path>
    <path
        d="M4.55611 14.4882C4.84141 11.4532 7.31628 10.1389 8.31998 9.82821C8.48729 9.82821 9.61772 10.5076 13.464 11.2928C16.0255 11.8156 17.6628 11.0097 18.4364 9.93394C18.805 9.42136 19.3229 9.07939 19.7434 9.55032C20.3467 10.226 21.0067 11.5269 21.0067 13.5405C21.0067 17.3561 18.0324 20.9886 12.5657 20.9886C7.48437 20.9886 4.24105 17.8397 4.55611 14.4882z"
        fill="#FDDE80ff"></path>
    <path
        d="M14.8068 7.41519C14.8068 9.84733 12.8352 11.819 10.4031 11.819C7.97092 11.819 5.99929 9.84733 5.99929 7.41519C5.99929 4.98305 7.97092 3.01141 10.4031 3.01141C12.8352 3.01141 14.8068 4.98305 14.8068 7.41519z"
        fill="#FDDE80ff"></path>
    <path
        d="M10.0014 7.74284C10.0014 8.297 9.5522 8.74623 8.99804 8.74623C8.44388 8.74623 7.99465 8.297 7.99465 7.74284C7.99465 7.18868 8.44388 6.73944 8.99804 6.73944C9.5522 6.73944 10.0014 7.18868 10.0014 7.74284z"
        fill="#FB813Aff"></path>
</svg>