<svg xmlns="http://www.w3.org/2000/svg" viewBox="0 0 24 24" width="100%" height="100%">
    <path
        d="M20.36371 11.11344C20.36371 7.03327 17.00093 3.69495 12.89088 3.69495L11.25552 3.69495C7.1455 3.69495 3.78273 7.03327 3.78273 11.11344L3.78273 17.13898C3.78273 17.88566 4.38811 18.49114 5.1349 18.49114C5.43671 19.51978 5.98057 20.27731 7.11021 20.27731L8.35096 20.27731C8.80764 20.27731 9.17878 19.91088 9.18128 19.45718L9.21324 13.14941C9.21532 12.69274 8.84292 12.32102 8.38293 12.32102L7.11021 12.32102C6.69256 12.32102 6.29858 12.42566 5.95151 12.60826L5.95151 10.98528C5.95151 8.03846 8.38018 5.62746 11.34854 5.62746L12.85142 5.62746C15.81984 5.62746 18.24845 8.03846 18.24845 10.98528L18.24845 12.63706C17.88893 12.4368 17.47546 12.32102 17.03616 12.32102L15.76349 12.32102C15.30346 12.32102 14.93107 12.69274 14.93318 13.14941L14.96515 19.45718C14.96765 19.91088 15.33878 20.27731 15.79546 20.27731L17.03616 20.27731C18.16589 20.27731 18.70973 19.51978 19.01155 18.49114C19.75834 18.49114 20.36371 17.88566 20.36371 17.13898L20.36371 11.11344z"
        fill="#59E0F9ff"></path>
    <path
        d="M5.11552 15.22608C5.11552 14.15078 5.11552 13.61309 5.32479 13.2024C5.50887 12.84115 5.8026 12.54739 6.16386 12.36336C6.57458 12.15408 7.11223 12.15408 8.18752 12.15408L8.61742 12.15408C9.15507 12.15408 9.4239 12.15408 9.62928 12.25872C9.80986 12.35078 9.95674 12.49757 10.0488 12.67824C10.15344 12.88358 10.15344 13.15238 10.15344 13.69008L10.15344 18.74131C10.15344 19.27891 10.15344 19.54781 10.0488 19.75315C9.95674 19.93373 9.80986 20.08061 9.62928 20.17267C9.4239 20.27731 9.15507 20.27731 8.61742 20.27731L8.18752 20.27731C7.11223 20.27731 6.57458 20.27731 6.16386 20.06803C5.8026 19.884 5.50887 19.59024 5.32479 19.22899C5.11552 18.81821 5.11552 18.28061 5.11552 17.20531L5.11552 15.22608z"
        fill="#00B9E7ff"></path>
    <path
        d="M19.03075 15.22608C19.03075 14.15078 19.03075 13.61309 18.82147 13.2024C18.63734 12.84115 18.34368 12.54739 17.98243 12.36336C17.57165 12.15408 17.03405 12.15408 15.95875 12.15408L15.52675 12.15408C14.98906 12.15408 14.72026 12.15408 14.51491 12.25872C14.33424 12.35078 14.18736 12.49757 14.09539 12.67824C13.99075 12.88358 13.99075 13.15238 13.99075 13.69008L13.99075 18.74131C13.99075 19.27891 13.99075 19.54781 14.09539 19.75315C14.18736 19.93373 14.33424 20.08061 14.51491 20.17267C14.72026 20.27731 14.98906 20.27731 15.52675 20.27731L15.95875 20.27731C17.03405 20.27731 17.57165 20.27731 17.98243 20.06803C18.34368 19.884 18.63734 19.59024 18.82147 19.22899C19.03075 18.81821 19.03075 18.28061 19.03075 17.20531L19.03075 15.22608z"
        fill="#00B9E7ff"></path>
    <path
        d="M13.9992 12.87389C13.9992 12.34349 14.42928 11.91341 14.95968 11.91341L14.95968 11.91341C15.49018 11.91341 15.92026 12.34349 15.92026 12.87389L15.92026 19.55741C15.92026 20.0879 15.49018 20.51798 14.95968 20.51798L14.95968 20.51798C14.42928 20.51798 13.9992 20.0879 13.9992 19.55741L13.9992 12.87389z"
        fill="#FDDE80ff"></path>
    <path
        d="M8.24077 12.87389C8.24077 12.34349 8.67081 11.91341 9.20127 11.91341L9.20127 11.91341C9.73171 11.91341 10.16179 12.34349 10.16179 12.87389L10.16179 19.55741C10.16179 20.0879 9.73171 20.51798 9.20127 20.51798L9.20127 20.51798C8.67081 20.51798 8.24077 20.0879 8.24077 19.55741L8.24077 12.87389z"
        fill="#FDDE80ff"></path>
</svg>