<svg xmlns="http://www.w3.org/2000/svg" viewBox="0 0 24 24" width="100%" height="100%">
    <path
        d="M5.96079 9.69571C5.59021 9.81677 5.26667 9.8328 4.86949 9.85738L9.89213 5.07405L10.87805 9.6721L15.83242 9.6721C17.87904 9.6721 19.53811 11.33117 19.53811 13.37779C19.53811 15.42432 17.87904 17.08339 15.83242 17.08339L10.16016 17.08339C7.92572 17.08339 6.09908 15.30134 6.04398 13.06752L5.96079 9.69571z"
        fill="#FDDE80ff"></path>
    <path
        d="M9.6025 4.46082C10.41341 5.55808 9.75648 7.49415 8.20206 8.64297C6.64761 9.79181 3.96818 10.40179 3.055 9.26052C1.96426 7.89731 3.63332 5.60959 5.18777 4.46077C6.74222 3.31196 8.79157 3.36356 9.6025 4.46082z"
        fill="#FDDE80ff"></path>
    <path
        d="M6.87196 6.71961C6.87196 7.12133 6.5463 7.447 6.14457 7.447C5.74284 7.447 5.41718 7.12133 5.41718 6.71961C5.41718 6.31788 5.74284 5.99222 6.14457 5.99222C6.5463 5.99222 6.87196 6.31788 6.87196 6.71961z"
        fill="#FB813Aff"></path>
    <path
        d="M6.14543 12.70627L10.23763 14.1047L8.64211 18.77357L4.54988 17.37514L6.14543 12.70627z"
        fill="#FDDE80ff"></path>
    <path
        d="M14.78726 14.63981L18.7393 12.88387L20.74282 17.3928L16.79078 19.14874L14.78726 14.63981z"
        fill="#FDDE80ff"></path>
    <path
        d="M21.96979 15.99082C22.31914 16.3897 22.27901 16.99613 21.88022 17.34547C15.86986 22.61002 7.48995 22.30915 2.4827 17.30218C2.10779 16.9273 2.10778 16.31942 2.48267 15.94454C2.85756 15.56966 3.4654 15.56966 3.84032 15.94454C8.08284 20.18688 15.31133 20.54678 20.61514 15.90125C21.01392 15.5519 21.62045 15.59203 21.96979 15.99082z"
        fill="#FB813Aff"></path>
    <path
        d="M19.39718 14.39482C19.72656 11.1407 18.06538 10.3655 17.14954 9.91958C17.37629 9.69235 18.31123 9.5818 19.1807 9.99101C20.37235 10.55174 21.10224 11.98934 21.42298 12.9239C21.54499 13.27949 21.33542 13.65331 20.98474 13.78877C20.39798 14.01523 19.57814 14.33251 19.39718 14.39482z"
        fill="#FB813Aff"></path>
    <path
        d="M10.83811 9.66922C10.11696 4.5294 7.26305 3.30956 5.97503 3.99554C5.97565 3.79332 5.97577 3.52899 5.97581 3.2852C5.97588 2.91278 6.25105 2.59212 6.62292 2.5719C11.19946 2.32295 12.21792 7.17193 12.41837 9.66922C12.19757 9.69322 11.40576 9.66922 10.83811 9.66922z"
        fill="#FB813Aff"></path>
</svg>