<svg xmlns="http://www.w3.org/2000/svg" viewBox="0 0 24 24" width="100%" height="100%">
    <path
        d="M10.91453 10.73011C7.95237 9.85407 7.59103 5.97928 10.11072 4.12781C13.15738 5.65305 12.98035 8.82602 10.91453 10.73011z"
        fill="#57D587ff"></path>
    <path
        d="M18.67613 9.33284C18.19392 12.384 14.39933 13.24752 12.2351 10.99085C13.34995 7.77122 16.51891 7.53296 18.67613 9.33284z"
        fill="#57D587ff"></path>
    <path
        d="M11.30275 17.05469C7.42624 18.98832 3.35071 15.35866 4.16538 11.05008C8.74932 9.70172 11.6015 13.12618 11.30275 17.05469z"
        fill="#57D587ff"></path>
    <path
        d="M19.80106 14.7049C19.08797 18.83357 13.92499 19.93133 11.03338 16.8288C12.60778 12.48394 16.91021 12.22205 19.80106 14.7049z"
        fill="#57D587ff"></path>
    <path
        d="M11.74896 19.16765C10.6297 16.4353 10.36675 8.92814 15.46522 6.13969"
        fill="#000000ff"></path>
</svg>