<svg xmlns="http://www.w3.org/2000/svg" viewBox="0 0 24 24" width="100%" height="100%">
    <path
        d="M7.28637 20.13062C7.28637 19.42819 7.85893 18.85872 8.56137 18.85872C9.2638 18.85872 9.83635 19.42819 9.83635 20.13062C9.83635 20.83306 9.2638 21.40253 8.56137 21.40253C7.85893 21.40253 7.28637 20.83306 7.28637 20.13062z"
        fill="#59E1F9ff"></path>
    <path
        d="M14.51731 20.13062C14.51731 19.42819 15.08986 18.85872 15.79229 18.85872C16.49472 18.85872 17.06726 19.42819 17.06726 20.13062C17.06726 20.83306 16.49472 21.40253 15.79229 21.40253C15.08986 21.40253 14.51731 20.83306 14.51731 20.13062z"
        fill="#59E1F9ff"></path>
    <path
        d="M9.77107 3.69966C9.29394 3.69966 8.90712 4.08648 8.90712 4.56366L8.90712 9.36919L7.75512 9.36919L7.75512 4.56366C7.75512 3.45025 8.65771 2.54766 9.77107 2.54766L14.35613 2.54766C15.46954 2.54766 16.37213 3.45025 16.37213 4.56366L16.37213 9.63337L15.22013 9.63337L15.22013 4.56366C15.22013 4.08648 14.83325 3.69966 14.35613 3.69966L9.77107 3.69966z"
        fill="#59E1F9ff"></path>
    <path
        d="M7.37112 4.56367C7.37112 3.23819 8.44563 2.16366 9.77107 2.16366L14.35613 2.16366C15.6816 2.16366 16.75613 3.23818 16.75613 4.56366L16.75613 10.01737L14.83613 10.01737L14.83613 4.56366C14.83613 4.29856 14.62118 4.08366 14.35613 4.08366L9.77107 4.08366C9.50603 4.08366 9.29112 4.29856 9.29112 4.56367L9.29112 9.7532L7.37112 9.7532L7.37112 4.56367zM9.77107 2.93166C8.86979 2.93166 8.13912 3.66233 8.13912 4.56367L8.13912 8.9852L8.52312 8.9852L8.52312 4.56367C8.52312 3.87442 9.08187 3.31566 9.77107 3.31566L14.35613 3.31566C15.04541 3.31566 15.60413 3.87441 15.60413 4.56366L15.60413 9.24937L15.98813 9.24937L15.98813 4.56366C15.98813 3.66233 15.25747 2.93166 14.35613 2.93166L9.77107 2.93166z"
        fill="#59E1F9ff"></path>
    <path
        d="M9.77146 4.03555C9.47984 4.03555 9.24345 4.27194 9.24345 4.56355L9.24345 4.80656C9.24345 5.31025 8.83513 5.71857 8.33145 5.71857C7.82776 5.71857 7.41945 5.31025 7.41945 4.80656L7.41945 4.56355C7.41945 3.26458 8.47247 2.21155 9.77146 2.21155L14.35642 2.21155C15.65539 2.21155 16.70842 3.26458 16.70842 4.56355L16.70842 4.90056C16.70842 5.40424 16.30013 5.81256 15.79642 5.81256C15.2928 5.81256 14.88442 5.40424 14.88442 4.90056L14.88442 4.56355C14.88442 4.27194 14.64806 4.03555 14.35642 4.03555L9.77146 4.03555z"
        fill="#59E1F9ff"></path>
    <path
        d="M5.11429 8.49827C5.11429 7.7029 5.75914 7.05815 6.55452 7.05827C10.23398 7.05876 13.91347 7.05902 17.59296 7.05831C18.38842 7.05816 19.03334 7.70292 19.03334 8.49836L19.03334 18.42451C19.03334 19.21978 18.3887 19.86451 17.59334 19.86451C13.91366 19.86451 10.23398 19.86451 6.55429 19.86451C5.75901 19.86451 5.11429 19.21978 5.11429 18.42451L5.11429 8.49827z"
        fill="#00B9E7ff"></path>
    <path
        d="M8.86945 11.22643C8.86945 10.69622 9.29926 10.26643 9.82944 10.26643C10.35965 10.26643 10.78944 10.69622 10.78944 11.22643L10.78944 15.69638C10.78944 16.22659 10.35965 16.65638 9.82944 16.65638C9.29926 16.65638 8.86945 16.22659 8.86945 15.69638L8.86945 11.22643z"
        fill="#FDDE80ff"></path>
    <path
        d="M13.35821 11.22643C13.35821 10.69622 13.788 10.26643 14.31821 10.26643C14.84842 10.26643 15.27821 10.69622 15.27821 11.22643L15.27821 15.69638C15.27821 16.22659 14.84842 16.65638 14.31821 16.65638C13.788 16.65638 13.35821 16.22659 13.35821 15.69638L13.35821 11.22643z"
        fill="#FDDE80ff"></path>
</svg>