<svg xmlns="http://www.w3.org/2000/svg" viewBox="0 0 1024 1024">
<path fill="#17AACC" d="M618,131.5l47-47c41.7-47.6-25-112.2-72-71l-107,106c-3.3,3.3-6,7-8,11H361c-1.3-2.7-3.3-5-6-7l-112-111
	c-21.3-17.3-51-17-71,3s-20.3,49.7-3,71l45,44H105c-56.7,0-105,48.3-105,105v417c0,56.7,48.3,105,105,105h57
	c-17.9,49.6,19.9,105,73.5,105c55.4,0,90.4-55.3,74.5-105h218c-15.9,49.7,19.1,105,74.5,105c53.6,0,91.4-55.4,73.5-105h57
	c56.7,0,105-48.3,105-105v-417c0-57.6-48.3-104-105-104L618,131.5L618,131.5z"/>
</svg>
