<svg xmlns="http://www.w3.org/2000/svg" viewBox="0 0 24 24" width="100%" height="100%">
    <path
        d="M19.21968 13.77802C19.42733 13.68547 19.56115 13.47936 19.56115 13.25194L19.56115 10.74586L20.71315 9.59381L20.71315 14.2224C20.71315 14.90957 20.30602 15.53146 19.67616 15.80621L13.80115 18.3696L10.51142 17.65949L19.21968 13.77802z"
        fill="#6D69E4ff"></path>
    <path
        d="M19.56115 10.74586L20.71315 10.74586L20.71315 11.32186C20.71315 11.6399 20.4552 11.89786 20.13715 11.89786L19.56115 11.89786L19.56115 10.74586z"
        fill="#6D69E4ff"></path>
    <path
        d="M18.40877 7.866C18.40877 7.54788 18.66662 7.29 18.98477 7.29L20.13677 7.29C20.45491 7.29 20.71277 7.54788 20.71277 7.866L20.71277 10.74595C20.71277 11.0641 20.45491 11.32195 20.13677 11.32195L18.98477 11.32195C18.66662 11.32195 18.40877 11.0641 18.40877 10.74595L18.40877 7.866z"
        fill="#6D69E4ff"></path>
    <path
        d="M17.54477 3.8339L5.44875 3.8339C4.65346 3.8339 4.00875 4.47862 4.00875 5.2739L4.00875 12.76195C4.00875 13.55722 4.65347 14.20195 5.44875 14.20195L17.54477 14.20195C18.34003 14.20195 18.98477 13.55722 18.98477 12.76195L18.98477 5.2739C18.98477 4.47862 18.34003 3.8339 17.54477 3.8339z"
        fill="#6D69E4ff"></path>
    <path
        d="M6.31312 6.13781C6.31312 5.50158 6.82889 4.98581 7.46512 4.98581L14.95315 4.98581C15.58934 4.98581 16.10515 5.50158 16.10515 6.13781L16.10515 11.89786C16.10515 12.53405 15.58934 13.04986 14.95315 13.04986L7.46512 13.04986C6.82889 13.04986 6.31312 12.53405 6.31312 11.89786L6.31312 6.13781z"
        fill="#FDDE80ff"></path>
    <path
        d="M9.76877 7.50189C9.76877 7.04184 10.2815 6.76744 10.66426 7.02263L13.08182 8.63436C13.42387 8.86236 13.42387 9.36489 13.08182 9.59289L10.66426 11.20464C10.2815 11.45981 9.76877 11.18544 9.76877 10.72531L9.76877 7.50189z"
        fill="#6D69E4ff"></path>
    <path
        d="M10.34515 16.50586C10.34515 15.7105 10.98989 15.06586 11.78515 15.06586L13.51315 15.06586C14.30842 15.06586 14.95315 15.7105 14.95315 16.50586L14.95315 19.09786C14.95315 19.89312 14.30842 20.53786 13.51315 20.53786L11.78515 20.53786C10.98989 20.53786 10.34515 19.89312 10.34515 19.09786L10.34515 16.50586z"
        fill="#6D69E4ff"></path>
    <path
        d="M10.34515 17.8895L14.95315 17.8895L14.95315 18.8495L10.34515 18.8495L10.34515 17.8895z"
        fill="#9796EDff"></path>
</svg>