<svg xmlns="http://www.w3.org/2000/svg" viewBox="0 0 1024 1024" width="100%" height="100%">
    <path
        d="M576.768 153.6c32.768-32.512 132.096 13.824 221.952 103.68s136.448 189.184 103.68 221.952a27.648 27.648 0 0 1-6.144 4.608c-37.632 22.784-640 377.6-640 377.6a110.592 110.592 0 0 1-48.384-30.976 140.288 140.288 0 0 1-34.56-49.152s381.184-588.8 399.36-620.8a34.56 34.56 0 0 1 4.096-6.912z"
        fill="#9796ED"></path>
    <path
        d="M172.288 780.032c-4.864 3.328-35.328 19.968-51.2 28.928a18.688 18.688 0 0 0-9.728 19.456 104.192 104.192 0 0 0 31.488 58.368 117.504 117.504 0 0 0 59.392 33.024 19.2 19.2 0 0 0 19.968-8.448c10.752-17.152 32-51.2 33.024-51.2a110.592 110.592 0 0 1-48.384-30.976 140.288 140.288 0 0 1-34.56-49.152z"
        fill="#9289F0"></path>
    <path
        d="M576.768 153.6c32.768-32.512 132.096 13.824 221.952 103.68s136.448 189.184 103.68 221.952a27.648 27.648 0 0 1-6.144 4.608c-37.632 22.784-102.4 60.16-102.4 60.16s-64-4.096-173.312-113.664c-102.4-102.4-112.128-171.008-112.128-171.008s39.936-61.696 62.464-98.816a34.56 34.56 0 0 1 5.888-6.912z"
        fill="#F7DF88"></path>
    <path
        d="M680.45816 374.49224a230.144 83.712 45 1 0 118.386645-118.386645 230.144 83.712 45 1 0-118.386645 118.386645Z"
        fill="#8683EA"></path>
</svg>