<svg xmlns="http://www.w3.org/2000/svg" viewBox="0 0 1024 1024" width="100%" height="100%">
    <path
        d="M588.8 359.68l-12.032-7.424 150.272-206.592a30.976 30.976 0 0 0-51.2-36.352l-153.6 210.176L281.6 170.24a30.976 30.976 0 1 0-33.024 52.736L486.4 369.92l-22.784 31.488a30.976 30.976 0 1 0 51.2 36.352l25.6-35.072 16.128 9.728A30.976 30.976 0 1 0 588.8 359.68z"
        fill="#FB813A"></path>
    <path d="M763.648 850.688m-53.248 0a53.248 53.248 0 1 0 106.496 0 53.248 53.248 0 1 0-106.496 0Z" fill="#FB813A">
    </path>
    <path d="M261.12 797.44a53.248 53.248 0 1 0 53.504 53.248 53.248 53.248 0 0 0-53.504-53.248z" fill="#FB813A"></path>
    <path
        d="M141.312 314.368m92.928 0l556.288 0q92.928 0 92.928 92.928l0 360.704q0 92.928-92.928 92.928l-556.288 0q-92.928 0-92.928-92.928l0-360.704q0-92.928 92.928-92.928Z"
        fill="#FDDE80"></path>
    <path d="M520.448 575.232m-128.256 0a128.256 128.256 0 1 0 256.512 0 128.256 128.256 0 1 0-256.512 0Z"
        fill="#FFFFFF"></path>
    <path
        d="M476.928 546.56c0-26.88 19.2-37.632 42.24-25.6l49.664 28.672a25.6 25.6 0 0 1 0 48.64l-49.664 28.672c-23.04 13.568-42.24 2.56-42.24-24.32z"
        fill="#FB813A"></path>
</svg>