<svg xmlns="http://www.w3.org/2000/svg" viewBox="0 0 1024 1024" width="100%" height="100%">
    <path
        d="M722.204444 843.491556H170.524444a70.144 70.144 0 0 1-69.973333-69.916445V400.896a70.144 70.144 0 0 1 69.973333-69.944889H722.204444a70.144 70.144 0 0 1 69.916445 69.973333v372.622223a70.144 70.144 0 0 1-69.916445 69.944889"
        fill="#FDDE80"></path>
    <path
        d="M710.314667 341.703111c22.613333-7.338667 38.200889-29.098667 36.067555-52.792889a143.616 143.616 0 0 0-6.542222-32.142222c-39.480889-121.628444-229.12-169.045333-423.566222-105.898667C121.799111 214.016-3.783111 363.804444 35.697778 485.461333c3.413333 10.524444 7.992889 20.451556 13.596444 29.809778 12.231111 20.423111 37.603556 28.871111 60.216889 21.532445l600.803556-195.100445z"
        fill="#9796ED"></path>
    <path
        d="M281.031111 123.676444l11.235556 34.616889c4.977778 15.331556 21.617778 23.779556 36.920889 18.801778 15.331556-4.977778 23.808-21.589333 18.830222-36.920889l-11.235556-34.588444a29.383111 29.383111 0 0 0-36.920889-18.801778c-15.36 4.949333-23.808 21.589333-18.830222 36.892444"
        fill="#7B78EB"></path>
    <path
        d="M444.16 714.069333a139.747556 139.747556 0 0 0 138.296889-119.552 17.493333 17.493333 0 0 0-17.123556-20.195555h-242.346666a17.493333 17.493333 0 0 0-17.123556 20.195555 139.776 139.776 0 0 0 138.296889 119.552"
        fill="#FFAF66"></path>
    <path
        d="M704.796444 680.903111L618.951111 640.284444s12.288 55.751111 71.395556 92.672c-0.085333 0.739556-0.284444 1.422222-0.369778 2.190223-12.714667 94.549333 38.200889 179.399111 113.692444 189.553777 75.491556 10.126222 146.972444-58.311111 159.687111-152.860444 12.686222-94.520889-38.200889-179.399111-113.720888-189.525333-60.017778-8.078222-117.418667 33.649778-144.839112 98.588444z"
        fill="#9796ED"></path>
    <path
        d="M856.064 682.012444l-19.797333 99.157334a6.570667 6.570667 0 0 1-6.456889 5.290666h-17.777778a6.599111 6.599111 0 0 1-6.542222-7.537777l14.478222-99.128889a6.542222 6.542222 0 0 1 6.485333-5.660445h23.153778c4.181333 0 7.281778 3.811556 6.456889 7.879111m-22.897778 136.078223l-2.986666 16.298666a6.570667 6.570667 0 0 1-6.456889 5.404445h-20.963556a6.599111 6.599111 0 0 1-6.485333-7.651556l2.645333-16.270222a6.599111 6.599111 0 0 1 6.485333-5.546667h21.276445c4.124444 0 7.253333 3.726222 6.485333 7.765334"
        fill="#C5C2FF"></path>
</svg>