<svg xmlns="http://www.w3.org/2000/svg" viewBox="0 0 1024 1024" width="100%" height="100%">
    <path
        d="M956.672 513.792a476.416 476.416 0 0 0-890.368 0L512 727.296l-95.232 45.568a117.76 117.76 0 0 0 192.256 0L512 727.04z"
        fill="#FC6B8A"></path>
    <path d="M512 727.296l208.64-99.84a222.976 222.976 0 0 0-416.768 0z" fill="#FFFFFF"></path>
    <path d="M405.4528 751.5392l541.184-258.5856 14.0288 29.312-541.184 258.6112z" fill="#FF5C7A"></path>
    <path
        d="M666.624 545.792l-18.688-15.36-112.64 135.424 40.192-173.056-23.552-5.632-40.192 172.544-40.448-172.544-23.808 5.632 40.704 173.056-112.896-135.424-18.688 15.36 111.616 134.144-391.68-186.88-13.824 29.184 541.184 258.56 14.08-29.44-87.552-41.728 136.192-163.84z"
        fill="#F14767"></path>
</svg>