<svg xmlns="http://www.w3.org/2000/svg" viewBox="0 0 1024 1024" width="100%" height="100%">
    <path
        d="M298.496 284.928l17.664-51.2a36.608 36.608 0 0 1 33.28-22.016h325.376a37.12 37.12 0 0 1 34.304 22.016l17.408 51.2h88.576a69.376 69.376 0 0 1 66.56 70.656v377.344a69.12 69.12 0 0 1-67.84 70.144H209.92a69.12 69.12 0 0 1-68.352-70.144V355.584a69.376 69.376 0 0 1 68.352-70.656z"
        fill="#FFBA7B"></path>
    <path d="M141.568 457.728h740.096v271.36a69.632 69.632 0 0 1-73.728 73.984H210.688a69.12 69.12 0 0 1-69.12-69.376z"
        fill="#FB952C"></path>
    <path d="M512 358.4a197.376 197.376 0 1 1-197.376 197.376A197.632 197.632 0 0 1 512 358.4z" fill="#FB952C"></path>
    <path d="M512 409.6a148.224 148.224 0 1 1-147.968 147.968A147.968 147.968 0 0 1 512 409.6z" fill="#FFFFFF"></path>
    <path d="M512 457.728a98.816 98.816 0 1 1-98.56 98.56A98.56 98.56 0 0 1 512 457.728z" fill="#FB952C"></path>
    <path
        d="M733.696 358.4h73.984a25.6 25.6 0 0 1 25.6 25.6 25.6 25.6 0 0 1-25.6 25.6h-73.984a25.6 25.6 0 0 1-25.6-25.6 25.6 25.6 0 0 1 25.6-25.6z"
        fill="#FFFFFF"></path>
</svg>