<svg xmlns="http://www.w3.org/2000/svg" viewBox="0 0 1024 1024" width="100%" height="100%">
    <path
        d="M404.9 386.765c-70.8975-2.565-143.3475 12.06-196.65 38.1825-48.8475 23.9625-117.63 89.46-121.9275 135.5625h735.3225c-3.2175 0-12.015-9.4275-14.7375-11.52-5.0175-3.825-9.7425-7.8075-14.76-11.5425-11.9025-8.91-24.66-16.8975-37.1475-24.975a1040.175 1040.175 0 0 0-77.0625-45.585c-52.47-27.945-107.865-50.805-165.69-65.0025a533.88 533.88 0 0 0-107.3475-15.12"
        fill="#47CFE5"></path>
    <path
        d="M744.605 489.1625c-12.7125 32.31-136.71 36.765-181.395 36.765H137.8025c-15.2325 0-29.7675 5.1975-39.7575 14.265-9.9 8.9775-14.1075 20.7675-11.7 32.355 0 0.1125 0 0.27 0.09 0.3375 9.2925 43.6725 35.73 83.34 76.365 114.6825 1.62 1.26 3.2625 2.52 4.9275 3.735 106.74 78.4575 292.5225 81.1575 423.45 43.875 41.445-11.79 80.865-28.17 115.1775-49.635 38.9925-24.39 78.795-57.3075 102.3075-91.7325 3.465-5.0625 41.22-61.1775 41.9625-60.885l-106.02-43.7625z"
        fill="#47CFE5"></path>
    <path
        d="M918.0575 505.3175l-29.88-17.0775a75.0825 75.0825 0 0 0-70.11-2.1375 75.375 75.375 0 0 0-37.4175-59.355l-29.925-17.0775a11.4525 11.4525 0 0 0-15.66 4.275l-7.83 13.7025a59.0625 59.0625 0 0 0 21.96 80.5725l15.795 9.045a0.045 0.045 0 0 1-0.045 0.045l51.48 29.43 0.045-0.045 17.46 9.99a59.085 59.085 0 0 0 80.5725-21.9375l7.83-13.725a11.5425 11.5425 0 0 0-4.275-15.705"
        fill="#2BBAE4"></path>
    <path
        d="M654.515 712.4975C351.3275 720.8675 266.3 564.425 266.3 564.425H85.7825a31.995 31.995 0 0 0 0.63 8.46c9.2925 43.6725 35.73 83.34 76.365 114.6825 1.62 1.2825 3.2625 2.52 4.9275 3.735 106.7175 78.4575 292.5 81.18 423.4275 43.875a509.6925 509.6925 0 0 0 63.3825-22.68"
        fill="#E5E6E6"></path>
    <path
        d="M654.515 712.4975c-65.16 1.8-120.15-4.41-166.5675-14.2425-49.005-10.3725-26.1675 59.31-3.2175 56.79 37.485-4.0725 73.665-10.5975 106.4025-19.9125a502.3575 502.3575 0 0 0 63.3825-22.635"
        fill="#E4E5E4"></path>
    <path
        d="M407.1275 674.9225c21.5775 69.84 69.705 117.6525 116.775 113.6475 3.735-0.3375 6.2325-4.0725 5.5125-7.74l-24.435-125.6175a5.715 5.715 0 0 0-6.6825-4.5l-86.715 16.8975a5.7825 5.7825 0 0 0-4.455 7.3125"
        fill="#47CFE5"></path>
    <path d="M441.2375 614.7125a29.295 29.295 0 1 1-58.6125 0.0225 29.295 29.295 0 0 1 58.6125-0.0225" fill="#0099BC">
    </path>
    <path
        d="M252.5975 310.4675a64.2825 64.2825 0 0 1 64.305-64.1025c18.81 0 35.73 8.1225 47.52 21.1275a64.17 64.17 0 0 1 111.7125 42.975 16.56 16.56 0 0 1-16.5825 16.5825 16.56 16.56 0 0 1-16.605-16.5825 31.05 31.05 0 0 0-61.9875-2.16h-0.18l0.1125 77.4675a16.5825 16.5825 0 1 1-33.1875 0v-75.3975c0-17.0325-13.9275-30.9375-30.96-30.9375a31.05 31.05 0 0 0-31.0275 31.0275 16.56 16.56 0 1 1-33.12 0"
        fill="#47CFE5"></path>
    <path
        d="M364.3325 408.0275a22.2525 22.2525 0 0 1-22.2075-22.23V310.4a25.3575 25.3575 0 1 0-50.715 0.09 22.23 22.23 0 0 1-44.415 0c0-38.4525 31.365-69.75 69.9075-69.75a69.75 69.75 0 0 1 47.52 18.765 70.2 70.2 0 0 1 47.61-18.765c38.4525 0 69.75 31.2975 69.75 69.75a22.23 22.23 0 0 1-44.4375 0 25.425 25.425 0 0 0-50.7375-1.7775l-0.1575 2.385 0.09 74.7a22.2525 22.2525 0 0 1-22.2075 22.23z m-47.5425-134.19c20.16 0 36.5625 16.4025 36.5625 36.5625v75.42a10.98 10.98 0 1 0 21.915 0l-0.09-83.0925h0.9225a36.7425 36.7425 0 0 1 35.82-28.8675c20.205 0 36.6525 16.4475 36.6525 36.6525a10.98 10.98 0 0 0 21.9375 0c0-32.265-26.235-58.5-58.5-58.5-16.4475 0-32.2875 7.02-43.4475 19.305l-4.1625 4.545-4.1625-4.6125a58.635 58.635 0 0 0-43.335-19.2825 58.635 58.635 0 0 0-58.6575 58.5 10.9575 10.9575 0 0 0 21.915 0 36.675 36.675 0 0 1 36.63-36.63z"
        fill="#47CFE5"></path>
    <path
        d="M389.87 621.2825h-66.33a47.79 47.79 0 0 1-35.0325-15.5925l-23.715-25.695a28.575 28.575 0 0 0-20.88-9.2925H91.0475a6.525 6.525 0 1 1 0-13.095h152.8875c11.4525 0 22.5675 4.9275 30.4875 13.5225l23.715 25.7175c6.66 7.2 15.93 11.34 25.425 11.34h66.33a6.525 6.525 0 1 1-0.0225 13.095"
        fill="#0099BC"></path>
</svg>