<svg xmlns="http://www.w3.org/2000/svg" viewBox="0 0 1024 1024" width="100%" height="100%">
    <path
        d="M273.408 166.912h477.696c58.368 0 105.984 47.616 105.984 105.984v477.696c0 58.368-47.616 105.984-105.984 105.984H273.408c-58.368 0-105.984-47.616-105.984-105.984V273.408C166.912 215.04 215.04 166.912 273.408 166.912z"
        fill="#7B78EB"></path>
    <path
        d="M512 525.312v98.816c33.28-14.848 72.704 0.512 87.552 33.792 14.848 33.28-0.512 72.704-33.792 87.552-16.896 7.68-35.84 7.68-53.248 0v111.616H273.408c-58.368 0-105.984-47.616-105.984-105.984V512h137.216c-21.504 19.456-24.064 53.248-4.608 74.752 19.456 21.504 53.248 24.064 74.752 4.608 21.504-18.944 24.064-53.248 4.608-74.752l-4.608-4.608H512v-40.96c-4.096 0.512-9.216 0.512-13.312 0-51.2 0-86.016-47.616-86.016-105.984s20.992-108.032 86.016-108.032h13.312V166.912h238.592c58.368 0 105.984 47.616 105.984 105.984v251.904h-120.832c20.992-23.552 19.456-59.392-3.584-80.896-23.552-20.992-59.392-19.456-80.896 3.584-19.968 21.504-19.968 55.296 0 76.8H512z"
        fill="#9796ED"></path>
    <path
        d="M512 525.312v98.816l13.312-4.096c35.84-7.68 72.704 15.872 79.872 52.224 7.68 35.84-18.432 72.192-54.272 78.848-4.096 1.024-8.704 1.024-13.312 1.024-9.216 0-16.384-3.072-25.088-6.144v111.616h-14.336v-132.608l18.432 8.192c27.136 11.776 58.368-0.512 70.144-27.648 11.776-27.136-0.512-58.368-27.648-70.144-13.312-5.632-28.672-5.632-42.496 0l-18.432 8.192v-117.76H399.872c14.848 33.28-0.512 72.704-33.792 87.552-33.28 14.848-72.704-0.512-87.552-33.792-7.68-16.896-7.68-35.84 0-53.248H166.912V512h137.216c-21.504 19.456-24.064 53.248-4.608 74.752 19.456 21.504 53.248 24.064 74.752 4.608 21.504-19.456 24.064-53.248 4.608-74.752l-4.608-4.608H512v-39.936h-13.312c-51.2 0-86.016-47.104-86.016-105.984s20.992-109.568 86.016-109.568h13.312V166.912h13.312v105.984h-26.624c-49.664 0-73.216 33.28-73.216 94.208 0 53.248 30.72 92.672 73.216 92.672 3.584 0.512 7.68 0.512 11.264 0l15.36-2.048V512h102.912c-13.824-35.84 4.096-76.8 40.448-90.624 35.84-13.824 76.8 4.096 90.624 40.448 6.144 15.872 6.144 33.792 0 50.176h97.792v13.312h-120.832c20.992-23.552 19.456-59.392-3.584-80.896-23.552-20.992-59.392-19.456-80.896 3.584-19.968 21.504-19.968 55.296 0 76.8H512z"
        fill="#6A68C6"></path>
    <path
        d="M444.928 693.248c-23.04 13.312-52.224 5.12-65.024-17.408-4.096-7.68-6.144-15.36-6.144-24.064V392.192c0-26.624 20.992-47.616 47.616-47.616 8.704 0 16.896 2.048 24.576 6.656l221.696 132.608c23.04 13.312 30.208 42.496 16.896 65.024-4.096 6.656-10.24 12.8-16.896 16.896"
        fill="#FDDE80"></path>
</svg>