<svg xmlns="http://www.w3.org/2000/svg" viewBox="0 0 1024 1024" width="100%" height="100%">
    <path
        d="M534.442796 378.982175m36.203867 36.203867l30.592268 30.592268q36.203867 36.203867 0 72.407734l-360.590518 360.590518q-36.203867 36.203867-72.407734 0l-30.592268-30.592268q-36.203867-36.203867 0-72.407735l360.590518-360.590517q36.203867-36.203867 72.407734 0Z"
        fill="#FF8693"></path>
    <path
        d="M369.92 543.744l137.472-137.472a38.912 38.912 0 0 1 54.528 0l48.384 48.64a38.4 38.4 0 0 1 0 54.528l-137.984 137.984z"
        fill="#FC6376"></path>
    <path
        d="M286.133941 631.021801m12.854616 12.85013l72.601422 72.576083q12.854616 12.850129 0.004486 25.704746l-1.62889 1.629458q-12.850129 12.854616-25.704745 0.004486l-72.601422-72.576083q-12.854616-12.850129-0.004486-25.704745l1.62889-1.629459q12.850129-12.854616 25.704745-0.004486Z"
        fill="#FFA9B1"></path>
    <path
        d="M737.024 547.584a99.328 99.328 0 0 1 62.72-62.72l51.2-13.568a27.136 27.136 0 0 0 13.056-49.664L826.624 384a98.816 98.816 0 0 1-22.784-85.76l16.896-63.232c7.168-27.136-8.96-43.52-36.096-36.096l-63.232 16.896a98.816 98.816 0 0 1-85.76-23.04l-37.376-36.864a27.136 27.136 0 0 0-49.408 13.312l-13.824 51.2a97.792 97.792 0 0 1-62.464 62.72l-51.2 13.824a27.136 27.136 0 0 0-13.312 49.408L445.44 384a97.536 97.536 0 0 1 23.04 85.504l-16.896 63.232c-7.424 27.392 8.96 43.52 36.096 36.352l63.232-16.896a97.792 97.792 0 0 1 85.76 22.784l37.376 37.376a26.88 26.88 0 0 0 49.408-13.312z"
        fill="#FDDE80"></path>
    <path
        d="M886.272 417.536l-74.752-75.008 30.464-114.432a41.216 41.216 0 0 0-8.704-41.472A41.728 41.728 0 0 0 791.808 179.2l-114.432 30.72-74.752-76.032A41.728 41.728 0 0 0 563.2 120.576a41.216 41.216 0 0 0-28.416 31.488l-27.392 102.4L404.48 281.6a42.24 42.24 0 0 0-31.744 28.16 42.24 42.24 0 0 0 13.312 40.448L460.8 425.216l-30.72 114.432a41.728 41.728 0 0 0 8.96 41.472 37.888 37.888 0 0 0 27.392 10.752 56.832 56.832 0 0 0 14.08-2.048l114.432-30.72 74.752 75.008a45.824 45.824 0 0 0 31.232 14.336 34.304 34.304 0 0 0 8.96 0 41.216 41.216 0 0 0 28.416-31.488l27.392-102.4 102.4-27.392a41.984 41.984 0 0 0 31.488-28.416 40.96 40.96 0 0 0-13.312-41.216z m-84.736-203.52h5.12a16.896 16.896 0 0 1 0 5.12l-25.6 93.696-72.96-73.728z m-32 139.776l-34.56 128-128 34.56-102.4-102.4 34.56-128 128-34.56z m-199.424-192c0-2.56 1.792-4.096 1.792-4.608a9.984 9.984 0 0 1 4.096 3.072l59.648 59.648-87.296 23.296z m-157.696 162.048L409.6 320a12.8 12.8 0 0 1 4.864-2.048l81.152-21.76-23.552 87.808z m58.368 230.4a18.944 18.944 0 0 1-5.12 0 17.92 17.92 0 0 1 0-5.12l25.6-93.696L563.2 528.64z m230.4 51.2c0 2.816-1.536 4.096-1.536 4.864a20.992 20.992 0 0 1-4.352-3.328l-59.392-59.392 87.296-23.552z m156.16-156.16l-81.152 21.76 23.296-87.04 59.392 59.392a40.96 40.96 0 0 1 3.328 3.84 12.8 12.8 0 0 1-4.096 2.56z"
        fill="#FCC029"></path>
</svg>