<svg xmlns="http://www.w3.org/2000/svg" viewBox="0 0 1024 1024" width="100%" height="100%">
    <path
        d="M691.2 204.8a44.032 44.032 0 0 1 29.952 34.048 117.76 117.76 0 0 1-13.056 76.8s-19.2 29.952-24.32 39.936a235.008 235.008 0 0 0-25.6 107.008v40.704H365.312v-39.424a235.008 235.008 0 0 0-25.6-107.008c-5.12-9.984-24.32-39.936-24.32-39.936a117.76 117.76 0 0 1-13.056-76.8A44.544 44.544 0 0 1 336.896 204.8V147.712a29.952 29.952 0 0 1 27.136-31.744 29.952 29.952 0 0 1 27.648 31.744v73.728A237.056 237.056 0 0 0 512 253.952a241.408 241.408 0 0 0 125.184-35.072V147.712a27.136 27.136 0 1 1 53.76 0z"
        fill="#FF6A9B"></path>
    <path
        d="M658.432 487.936H365.312L204.8 780.288a36.352 36.352 0 0 0 10.24 46.592 492.288 492.288 0 0 0 595.456 0 36.608 36.608 0 0 0 8.704-47.36z"
        fill="#FF9DC6"></path>
    <path
        d="M409.6 537.6a9.984 9.984 0 0 0-13.568 4.608l-124.16 250.624a10.496 10.496 0 0 0 4.608 13.568 14.848 14.848 0 0 0 4.608 0 9.984 9.984 0 0 0 8.96-5.632l124.16-250.88A10.24 10.24 0 0 0 409.6 537.6zM455.936 643.072a9.984 9.984 0 0 0-12.032 7.424l-40.448 170.752a10.24 10.24 0 0 0 7.424 12.288h2.304a9.728 9.728 0 0 0 9.728-7.936l40.448-170.752a9.984 9.984 0 0 0-7.424-11.776zM750.848 791.808l-124.16-250.624A9.984 9.984 0 0 0 614.4 537.6a10.24 10.24 0 0 0-4.608 13.312l124.16 250.88a9.984 9.984 0 0 0 8.96 5.632 14.848 14.848 0 0 0 4.608 0 10.496 10.496 0 0 0 3.328-15.616zM579.84 650.496a9.984 9.984 0 0 0-19.456 4.608l40.448 170.752a9.728 9.728 0 0 0 9.728 7.936h2.304a10.24 10.24 0 0 0 7.424-12.288z"
        fill="#FF6A9B"></path>
</svg>