<svg xmlns="http://www.w3.org/2000/svg" viewBox="0 0 1024 1024" width="100%" height="100%">
    <path
        d="M873.472 321.792c-46.08-46.592-102.4-73.472-161.536-40.192a177.152 177.152 0 0 0-51.2-161.536s-83.456 107.52-15.104 219.648c-12.288 13.568-24.32 27.136-36.352 39.424-26.88 27.136 14.592 69.12 41.216 41.984l68.608-69.632c40.704-40.96 76.8-23.808 112.896 12.288 26.624 26.88 68.096-15.104 41.472-41.984z"
        fill="#58D598"></path>
    <path
        d="M705.024 344.576a189.696 189.696 0 0 0-270.848 0 195.072 195.072 0 0 0-41.216 62.464 249.088 249.088 0 0 0-177.664 74.496 256 256 0 0 0 0 359.68 248.576 248.576 0 0 0 354.816 0 256 256 0 0 0 73.472-179.2 190.976 190.976 0 0 0 61.44-41.728 195.84 195.84 0 0 0 0-275.712z"
        fill="#FF5C7A"></path>
    <path
        d="M514.304 808.704a187.136 187.136 0 0 1-267.264-5.12 193.536 193.536 0 0 1 5.12-271.104s-45.056 120.832 43.776 214.272a210.176 210.176 0 0 0 218.368 61.952"
        fill="#F14767"></path>
</svg>