<svg xmlns="http://www.w3.org/2000/svg" viewBox="0 0 1024 1024" width="100%" height="100%">
    <path
        d="M760.685714 768a21.942857 21.942857 0 0 0 19.836343 21.840457L782.628571 789.942857a21.942857 21.942857 0 0 0 21.840458-19.836343L804.571429 768V321.828571h29.257142a58.514286 58.514286 0 0 1 58.514286 58.514286v438.857143a58.514286 58.514286 0 0 1-58.514286 58.514286H190.171429a58.514286 58.514286 0 0 1-58.514286-58.514286V204.8a58.514286 58.514286 0 0 1 58.514286-58.514286h512a58.514286 58.514286 0 0 1 58.514285 58.514286v563.2z"
        fill="#7DD3E0"></path>
    <path
        d="M219.428571 234.057143m29.257143 0l394.971429 0q29.257143 0 29.257143 29.257143l0 263.314285q0 29.257143-29.257143 29.257143l-394.971429 0q-29.257143 0-29.257143-29.257143l0-263.314285q0-29.257143 29.257143-29.257143Z"
        fill="#3DA9D3"></path>
    <path
        d="M404.772571 300.514743l129.462858 80.925257a15.945143 15.945143 0 0 1 0 27.062857l-129.462858 80.925257a15.945143 15.945143 0 0 1-24.429714-13.531428V314.046171a15.945143 15.945143 0 0 1 24.429714-13.531428z"
        fill="#FFD469"></path>
    <path
        d="M219.428571 614.4m29.257143 0l394.971429 0q29.257143 0 29.257143 29.257143l0 0q0 29.257143-29.257143 29.257143l-394.971429 0q-29.257143 0-29.257143-29.257143l0 0q0-29.257143 29.257143-29.257143Z"
        fill="#3DA9D3"></path>
    <path
        d="M219.428571 731.428571m29.257143 0l219.428572 0q29.257143 0 29.257143 29.257143l0 0q0 29.257143-29.257143 29.257143l-219.428572 0q-29.257143 0-29.257143-29.257143l0 0q0-29.257143 29.257143-29.257143Z"
        fill="#3DA9D3"></path>
</svg>