<svg xmlns="http://www.w3.org/2000/svg" viewBox="0 0 1024 1024" width="100%" height="100%">
    <path
        d="M881.408 664.064V504.32a168.192 168.192 0 0 0-128-162.56l-7.936-1.792v144.896a12.288 12.288 0 0 1-14.592 11.776 170.752 170.752 0 0 0-30.464-2.816h-138.752v-27.648a37.632 37.632 0 0 1 11.776-27.648 175.872 175.872 0 0 0 57.856-135.68A179.2 179.2 0 0 0 460.8 132.352a175.872 175.872 0 0 0-180.992 176.128V409.6h32.256a225.536 225.536 0 0 0 15.872 19.2 36.608 36.608 0 0 1 9.472 25.6v42.496A193.792 193.792 0 0 0 179.2 712.96a197.12 197.12 0 0 0 197.12 166.656h325.12a148.48 148.48 0 0 0 45.568-6.144 217.088 217.088 0 0 0 64.256-31.744 176.896 176.896 0 0 0 18.176-15.616l4.608-4.352a156.16 156.16 0 0 0 47.36-111.872v-35.84c0.512-3.072 0.256-6.656 0-9.984z"
        fill="#FFD778"></path>
    <path
        d="M468.736 238.592a40.192 40.192 0 1 0 40.192 40.192 40.192 40.192 0 0 0-40.192-40.192zM323.584 362.752H217.6a34.816 34.816 0 1 0 0 69.376h106.24a34.816 34.816 0 1 0 0-69.376z"
        fill="#FB813A"></path>
</svg>