<svg xmlns="http://www.w3.org/2000/svg" viewBox="0 0 1024 1024" width="100%" height="100%">
    <path
        d="M954.624 452.864H919.04v-168.96a37.376 37.376 0 0 0-25.6-36.608A36.608 36.608 0 0 0 846.848 281.6v170.24H199.936v-168.96a37.632 37.632 0 0 0-25.6-36.608A36.352 36.352 0 0 0 128 281.6v170.24H92.16a15.616 15.616 0 0 0-15.36 15.872v82.688a15.36 15.36 0 0 0 15.36 15.616h26.88v85.248a135.68 135.68 0 0 0 134.4 136.192h114.432a135.68 135.68 0 0 0 134.4-136.192v-20.992a7.936 7.936 0 0 1 7.68-7.936h25.6a7.68 7.68 0 0 1 7.68 7.936v20.992a135.936 135.936 0 0 0 134.4 136.192H793.6a135.68 135.68 0 0 0 134.4-136.192v-85.248h25.6a15.36 15.36 0 0 0 15.36-15.616v-81.664a15.616 15.616 0 0 0-15.36-15.872"
        fill="#E5E6E6"></path>
    <path
        d="M361.216 727.552h-102.4A87.296 87.296 0 0 1 172.8 640v-79.872a61.184 61.184 0 0 1 60.416-61.44h153.6a61.184 61.184 0 0 1 60.416 61.44V640a87.296 87.296 0 0 1-86.528 87.552"
        fill="#FF5C7A"></path>
    <path
        d="M685.568 727.552h102.4A87.296 87.296 0 0 0 873.984 640v-79.872a61.184 61.184 0 0 0-60.416-61.44h-153.6a61.184 61.184 0 0 0-60.416 61.44V640a87.296 87.296 0 0 0 86.528 87.552"
        fill="#2CBAE5"></path>
</svg>