<svg xmlns="http://www.w3.org/2000/svg" viewBox="0 0 1024 1024" width="100%" height="100%">
    <path
        d="M881.92 460.8A335.36 335.36 0 0 0 547.584 125.696h-73.216A335.616 335.616 0 0 0 139.776 460.8v313.6a18.688 18.688 0 0 0 18.432 18.688h41.984c13.568 46.336 37.888 80.384 88.576 80.384h98.304a37.376 37.376 0 0 0 37.376-36.864l1.28-284.672a36.864 36.864 0 0 0-37.12-37.12h-99.84a111.616 111.616 0 0 0-51.2 12.8v-73.216a242.432 242.432 0 0 1 241.664-241.664h67.328a242.176 242.176 0 0 1 241.408 241.664v74.496a110.592 110.592 0 0 0-54.272-14.08h-99.84a36.864 36.864 0 0 0-37.12 37.12v284.672a37.376 37.376 0 0 0 37.376 36.864h98.304c51.2 0 75.008-34.048 88.576-80.384h41.984a18.688 18.688 0 0 0 18.432-18.688z"
        fill="#45C7DD"></path>
    <path
        d="M646.141043 825.220963m0.045396-32.511969l0.273801-196.095809q0.045395-32.511968 32.557364-32.466573l1.023999 0.00143q32.511968 0.045395 32.466573 32.557364l-0.273802 196.095809q-0.045395 32.511968-32.557363 32.466573l-1.023999-0.00143q-32.511968-0.045395-32.466573-32.557364Z"
        fill="#FF5C7A"></path>
    <path
        d="M307.222608 825.246563m0.045395-32.511969l0.273801-196.095809q0.045395-32.511968 32.557364-32.466573l1.023999 0.00143q32.511968 0.045395 32.466573 32.557364l-0.273801 196.095809q-0.045395 32.511968-32.557364 32.466573l-1.023999-0.00143q-32.511968-0.045395-32.466573-32.557364Z"
        fill="#FF5C7A"></path>
</svg>