<svg xmlns="http://www.w3.org/2000/svg" viewBox="0 0 1024 1024" width="100%" height="100%">
    <path
        d="M497.8944 517.8624l23.8848 29.2608a58.5728 58.5728 0 0 1-5.6064 80.0512L241.9456 880.7424a47.7184 47.7184 0 0 1-65.6128-0.768 49.8176 49.8176 0 0 1-4.3008-66.816l108.5696-136.3712 126.1056-158.3616a58.5728 58.5728 0 0 1 91.1872-0.5632z"
        fill="#1BAD8B"></path>
    <path
        d="M698.9312 153.6a117.1456 117.1456 0 0 1 11.4176 233.728l60.416 45.9008c4.352 3.328 10.1632 3.9168 15.104 1.5872l73.6256-34.6368a46.2848 46.2848 0 0 1 59.1104 17.5872 44.3392 44.3392 0 0 1-11.9296 59.3152l-125.952 90.2656a58.5728 58.5728 0 0 1-65.9456 1.5616l-66.048-42.752-44.1344 47.7696 70.6048 83.328c1.664 1.9456 3.2 4.0192 4.608 6.1952l1.9456 3.3024a58.5728 58.5728 0 0 1-22.8608 79.616l-192.1024 106.3424a49.3824 49.3824 0 0 1-65.7408-16.9984 52.096 52.096 0 0 1 11.904-68.5824l105.5488-83.1744-106.2912-68.3008-1.536-1.024a59.7504 59.7504 0 0 1-0.896-0.6144l-13.824-7.168a58.5728 58.5728 0 0 1-23.296-82.2784l71.68-118.8864-30.72-13.824a14.6432 14.6432 0 0 0-14.336 1.3312l-80.4864 55.6032a48.8704 48.8704 0 0 1-62.6688-5.9648 39.3472 39.3472 0 0 1 1.792-56.8576l128.2816-115.1488a58.5728 58.5728 0 0 1 57.4464-12.032l143.5392 47.2576A117.1456 117.1456 0 0 1 698.9312 153.6z"
        fill="#57D59A"></path>
</svg>