<svg xmlns="http://www.w3.org/2000/svg" viewBox="0 0 1024 1024" width="100%" height="100%">
    <path d="M510.208 683.264h-114.176l-50.688 209.408H674.816l-50.688-209.408h-113.92z" fill="#FFD778"></path>
    <path
        d="M535.552 150.528v-28.16a25.6 25.6 0 1 0-51.2 0v28.16a271.872 271.872 0 0 0-244.992 269.568v97.28a25.6 25.6 0 0 0 26.88 26.88h487.936a25.6 25.6 0 0 0 25.6-26.88v-97.28a271.616 271.616 0 0 0-244.224-269.568z"
        fill="#48CFE5"></path>
    <path
        d="M125.696 464.64m103.168 0l562.432 0q103.168 0 103.168 103.168l0 15.36q0 103.168-103.168 103.168l-562.432 0q-103.168 0-103.168-103.168l0-15.36q0-103.168 103.168-103.168Z"
        fill="#2CBAE5"></path>
    <path
        d="M742.4 537.6a37.632 37.632 0 1 0 37.632 37.632A37.376 37.376 0 0 0 742.4 537.6zM276.736 537.6a37.632 37.632 0 1 0 37.632 37.632A37.632 37.632 0 0 0 276.736 537.6z"
        fill="#FFD778"></path>
</svg>